{"glyphs":{"0":{"ha":778,"x_min":72,"x_max":705,"o":"m 389 -17 q 149 95 227 -17 q 72 444 72 208 q 149 793 72 681 q 389 905 227 905 q 628 793 551 905 q 705 444 705 681 q 628 95 705 208 q 389 -17 551 -17 m 389 83 q 543 170 494 83 q 593 444 593 257 q 544 719 593 631 q 389 806 494 806 q 234 719 283 806 q 184 444 184 631 q 234 171 184 258 q 389 83 283 83 m 389 351 q 341 363 363 351 q 308 397 320 376 q 296 444 296 418 q 308 492 296 470 q 341 526 320 513 q 389 538 363 538 q 455 511 429 538 q 482 444 482 484 q 470 397 482 418 q 436 363 458 376 q 389 351 414 351 z "},"1":{"ha":778,"x_min":119,"x_max":711,"o":"m 136 96 l 370 96 l 370 755 l 155 657 l 119 724 l 395 889 l 478 889 l 478 96 l 711 96 l 711 0 l 136 0 l 136 96 z "},"2":{"ha":778,"x_min":100,"x_max":669,"o":"m 100 83 l 454 443 q 532 546 508 498 q 557 643 557 593 q 511 762 557 719 q 385 806 465 806 q 257 760 302 806 q 212 631 212 715 l 212 611 l 102 611 l 102 650 q 137 784 102 726 q 237 873 172 842 q 386 905 301 905 q 537 873 473 905 q 635 781 602 841 q 669 637 669 720 q 639 509 669 568 q 538 376 609 449 l 260 96 l 669 96 l 669 0 l 100 0 l 100 83 z "},"3":{"ha":778,"x_min":78,"x_max":679,"o":"m 379 -17 q 221 14 288 -17 q 116 101 153 44 q 78 235 79 157 l 187 235 q 243 123 192 163 q 378 83 294 83 q 517 127 467 83 q 567 249 567 172 q 514 365 567 326 q 358 404 461 404 l 289 404 l 289 500 l 358 500 q 495 537 449 500 q 542 647 542 574 q 497 763 542 721 q 374 806 452 806 q 253 766 298 806 q 205 656 209 726 l 96 656 q 130 788 96 732 q 227 875 164 844 q 375 905 290 905 q 523 875 460 905 q 620 789 586 845 q 654 657 654 732 q 532 461 654 514 l 532 456 q 679 243 679 401 q 643 104 679 163 q 539 15 607 46 q 379 -17 471 -17 z "},"4":{"ha":778,"x_min":72,"x_max":714,"o":"m 481 224 l 72 224 l 72 332 l 479 889 l 589 889 l 589 319 l 714 319 l 714 224 l 589 224 l 589 0 l 481 0 l 481 224 m 481 319 l 481 725 l 475 725 l 182 319 l 481 319 z "},"5":{"ha":778,"x_min":89,"x_max":693,"o":"m 390 -17 q 241 12 305 -17 q 137 96 176 41 q 89 228 98 151 l 201 228 q 263 122 213 161 q 389 83 313 83 q 490 107 446 83 q 557 174 533 131 q 581 277 581 218 q 557 379 581 335 q 490 446 533 422 q 389 469 446 469 q 288 451 334 469 q 208 397 242 433 l 118 429 l 168 889 l 625 889 l 625 793 l 258 793 l 228 505 l 233 503 q 313 552 266 535 q 416 568 359 568 q 563 533 500 568 q 659 433 625 498 q 693 281 693 368 q 656 122 693 189 q 552 19 620 55 q 390 -17 484 -17 z "},"6":{"ha":778,"x_min":89,"x_max":692,"o":"m 390 -17 q 232 19 300 -17 q 126 121 164 56 q 89 273 89 187 q 106 390 89 337 q 171 522 123 442 l 390 889 l 514 889 l 288 509 l 292 504 q 357 539 319 526 q 435 551 395 551 q 567 516 509 551 q 659 417 626 480 q 692 273 692 353 q 654 121 692 187 q 548 19 616 56 q 390 -17 479 -17 m 390 83 q 489 107 446 83 q 556 173 532 130 q 579 271 579 215 q 556 369 579 326 q 489 435 532 412 q 390 458 446 458 q 291 435 334 458 q 225 369 248 412 q 201 271 201 326 q 225 173 201 215 q 291 107 248 130 q 390 83 334 83 z "},"7":{"ha":778,"x_min":94,"x_max":681,"o":"m 561 793 l 94 793 l 94 889 l 681 889 l 681 803 l 267 0 l 144 0 l 561 793 z "},"8":{"ha":778,"x_min":75,"x_max":703,"o":"m 389 -17 q 219 13 290 -17 q 112 98 149 43 q 75 228 75 153 q 248 456 75 387 l 248 461 q 100 669 100 531 q 135 792 100 739 q 235 876 170 846 q 389 905 300 905 q 542 876 477 905 q 643 792 608 846 q 677 669 677 739 q 530 461 677 531 l 530 456 q 703 228 703 387 q 666 98 703 153 q 558 13 629 43 q 389 -17 488 -17 m 389 500 q 514 553 463 513 q 566 661 566 592 q 545 736 566 703 q 484 787 524 768 q 389 806 444 806 q 294 787 334 806 q 233 736 254 768 q 212 661 212 703 q 263 553 212 592 q 389 500 315 513 m 389 83 q 498 102 452 83 q 567 156 543 121 q 590 235 590 190 q 533 350 590 309 q 389 404 475 391 q 245 350 302 391 q 187 235 187 309 q 211 156 187 190 q 279 102 234 121 q 389 83 325 83 z "},"9":{"ha":778,"x_min":86,"x_max":689,"o":"m 387 905 q 545 869 477 905 q 651 767 614 833 q 689 615 689 701 q 672 499 689 551 q 607 367 654 446 l 387 0 l 264 0 l 490 380 l 486 385 q 421 350 459 363 q 343 338 384 338 q 211 373 269 338 q 119 472 152 409 q 86 615 86 535 q 124 767 86 701 q 230 869 161 833 q 387 905 298 905 m 387 806 q 288 782 331 806 q 222 716 245 759 q 199 618 199 673 q 222 520 199 562 q 288 454 245 477 q 387 431 331 431 q 487 454 444 431 q 553 520 530 477 q 576 618 576 562 q 553 716 576 673 q 487 782 530 759 q 387 806 444 806 z "},"\r":{"ha":778,"x_min":0,"x_max":0,"o":""}," ":{"ha":778,"x_min":0,"x_max":0,"o":""},"A":{"ha":778,"x_min":52,"x_max":726,"o":"m 323 917 l 454 917 l 726 0 l 611 0 l 542 241 l 233 241 l 164 0 l 52 0 l 323 917 m 514 342 l 390 775 l 385 775 l 261 342 l 514 342 z "},"Á":{"ha":778,"x_min":52,"x_max":726,"o":"m 323 917 l 454 917 l 726 0 l 611 0 l 542 241 l 233 241 l 164 0 l 52 0 l 323 917 m 514 342 l 390 775 l 385 775 l 261 342 l 514 342 m 454 1252 l 591 1252 l 400 1032 l 292 1032 l 454 1252 z "},"Ă":{"ha":778,"x_min":52,"x_max":726,"o":"m 323 917 l 454 917 l 726 0 l 611 0 l 542 241 l 233 241 l 164 0 l 52 0 l 323 917 m 514 342 l 390 775 l 385 775 l 261 342 l 514 342 m 389 1032 q 244 1086 297 1032 q 182 1239 191 1141 l 271 1239 q 307 1156 278 1183 q 389 1128 336 1128 q 471 1156 442 1128 q 507 1239 500 1183 l 596 1239 q 534 1086 587 1141 q 389 1032 481 1032 z "},"Â":{"ha":778,"x_min":52,"x_max":726,"o":"m 323 917 l 454 917 l 726 0 l 611 0 l 542 241 l 233 241 l 164 0 l 52 0 l 323 917 m 514 342 l 390 775 l 385 775 l 261 342 l 514 342 m 334 1252 l 444 1252 l 618 1032 l 510 1032 l 389 1174 l 268 1032 l 160 1032 l 334 1252 z "},"Ä":{"ha":778,"x_min":52,"x_max":726,"o":"m 323 917 l 454 917 l 726 0 l 611 0 l 542 241 l 233 241 l 164 0 l 52 0 l 323 917 m 514 342 l 390 775 l 385 775 l 261 342 l 514 342 m 250 1040 q 189 1065 214 1040 q 164 1126 164 1090 q 189 1188 164 1163 q 250 1213 214 1213 q 311 1188 286 1213 q 336 1126 336 1163 q 311 1065 336 1090 q 250 1040 286 1040 m 528 1040 q 467 1065 492 1040 q 441 1126 441 1090 q 467 1188 441 1163 q 528 1213 492 1213 q 589 1188 564 1213 q 614 1126 614 1163 q 589 1065 614 1090 q 528 1040 564 1040 z "},"À":{"ha":778,"x_min":52,"x_max":726,"o":"m 323 917 l 454 917 l 726 0 l 611 0 l 542 241 l 233 241 l 164 0 l 52 0 l 323 917 m 514 342 l 390 775 l 385 775 l 261 342 l 514 342 m 186 1252 l 323 1252 l 486 1032 l 378 1032 l 186 1252 z "},"Ā":{"ha":778,"x_min":52,"x_max":726,"o":"m 323 917 l 454 917 l 726 0 l 611 0 l 542 241 l 233 241 l 164 0 l 52 0 l 323 917 m 514 342 l 390 775 l 385 775 l 261 342 l 514 342 m 193 1170 l 585 1170 l 585 1084 l 193 1084 l 193 1170 z "},"Ą":{"ha":778,"x_min":52,"x_max":726,"o":"m 593 -154 q 614 -209 593 -191 q 669 -228 635 -228 q 726 -212 703 -228 l 726 -306 q 692 -318 710 -314 q 650 -322 674 -322 q 537 -285 579 -322 q 496 -184 496 -248 q 523 -87 496 -134 q 609 7 551 -40 l 542 241 l 233 241 l 164 0 l 52 0 l 323 917 l 454 917 l 726 0 l 686 0 q 593 -154 593 -79 m 514 342 l 390 775 l 385 775 l 261 342 l 514 342 z "},"Å":{"ha":778,"x_min":52,"x_max":726,"o":"m 323 917 l 454 917 l 726 0 l 611 0 l 542 241 l 233 241 l 164 0 l 52 0 l 323 917 m 514 342 l 390 775 l 385 775 l 261 342 l 514 342 m 389 1024 q 311 1043 346 1024 q 257 1096 277 1063 q 237 1171 237 1130 q 257 1246 237 1213 q 311 1299 277 1280 q 389 1318 346 1318 q 466 1299 431 1318 q 520 1246 500 1280 q 541 1171 541 1213 q 520 1096 541 1130 q 466 1043 500 1063 q 389 1024 431 1024 m 389 1102 q 437 1122 418 1102 q 456 1171 456 1141 q 437 1221 456 1201 q 389 1240 418 1240 q 341 1221 359 1240 q 322 1171 322 1201 q 341 1122 322 1141 q 389 1102 359 1102 z "},"Ã":{"ha":778,"x_min":52,"x_max":726,"o":"m 323 917 l 454 917 l 726 0 l 611 0 l 542 241 l 233 241 l 164 0 l 52 0 l 323 917 m 514 342 l 390 775 l 385 775 l 261 342 l 514 342 m 165 1032 q 202 1177 169 1126 q 300 1228 235 1228 q 351 1218 328 1228 q 411 1179 374 1207 q 453 1151 441 1158 q 478 1145 465 1145 q 514 1166 502 1145 q 529 1240 526 1188 l 612 1240 q 576 1096 609 1147 q 479 1045 543 1045 q 427 1056 450 1045 q 367 1093 404 1066 q 325 1121 337 1115 q 300 1128 313 1128 q 264 1106 276 1128 q 249 1032 252 1085 l 165 1032 z "},"Æ":{"ha":778,"x_min":-4,"x_max":761,"o":"m 339 917 l 761 917 l 761 819 l 514 819 l 514 522 l 705 522 l 705 425 l 514 425 l 514 97 l 761 97 l 761 0 l 408 0 l 408 243 l 193 243 l 106 0 l -4 0 l 339 917 m 408 340 l 408 819 l 403 819 l 229 340 l 408 340 z "},"Ǽ":{"ha":778,"x_min":-4,"x_max":761,"o":"m 339 917 l 761 917 l 761 819 l 514 819 l 514 522 l 705 522 l 705 425 l 514 425 l 514 97 l 761 97 l 761 0 l 408 0 l 408 243 l 193 243 l 106 0 l -4 0 l 339 917 m 408 340 l 408 819 l 403 819 l 229 340 l 408 340 m 469 1252 l 606 1252 l 414 1032 l 306 1032 l 469 1252 z "},"B":{"ha":778,"x_min":122,"x_max":708,"o":"m 122 917 l 392 917 q 599 859 530 917 q 668 684 668 801 q 546 488 668 537 l 546 484 q 708 257 708 440 q 639 64 708 128 q 431 0 570 0 l 122 0 l 122 917 m 382 524 q 513 559 471 524 q 555 671 555 595 q 513 781 555 746 q 382 817 471 817 l 233 817 l 233 524 l 382 524 m 421 100 q 552 139 511 100 q 593 261 593 178 q 552 385 593 346 q 421 424 511 424 l 233 424 l 233 100 l 421 100 z "},"C":{"ha":778,"x_min":90,"x_max":711,"o":"m 406 -17 q 227 34 296 -17 q 124 190 157 85 q 90 458 90 294 q 124 727 90 623 q 227 882 157 831 q 406 933 296 933 q 615 856 540 933 q 711 618 690 779 l 595 618 q 531 777 578 725 q 406 829 485 829 q 254 740 302 829 q 205 458 205 650 q 254 177 205 267 q 406 87 302 87 q 531 139 485 87 q 595 298 578 191 l 711 298 q 615 60 690 138 q 406 -17 540 -17 z "},"Ć":{"ha":778,"x_min":90,"x_max":711,"o":"m 406 -17 q 227 34 296 -17 q 124 190 157 85 q 90 458 90 294 q 124 727 90 623 q 227 882 157 831 q 406 933 296 933 q 615 856 540 933 q 711 618 690 779 l 595 618 q 531 777 578 725 q 406 829 485 829 q 254 740 302 829 q 205 458 205 650 q 254 177 205 267 q 406 87 302 87 q 531 139 485 87 q 595 298 578 191 l 711 298 q 615 60 690 138 q 406 -17 540 -17 m 467 1252 l 604 1252 l 413 1032 l 304 1032 l 467 1252 z "},"Č":{"ha":778,"x_min":90,"x_max":711,"o":"m 406 -17 q 227 34 296 -17 q 124 190 157 85 q 90 458 90 294 q 124 727 90 623 q 227 882 157 831 q 406 933 296 933 q 615 856 540 933 q 711 618 690 779 l 595 618 q 531 777 578 725 q 406 829 485 829 q 254 740 302 829 q 205 458 205 650 q 254 177 205 267 q 406 87 302 87 q 531 139 485 87 q 595 298 578 191 l 711 298 q 615 60 690 138 q 406 -17 540 -17 m 173 1252 l 281 1252 l 401 1110 l 523 1252 l 631 1252 l 457 1032 l 347 1032 l 173 1252 z "},"Ç":{"ha":778,"x_min":90,"x_max":711,"o":"m 406 -17 q 227 34 296 -17 q 124 190 157 85 q 90 458 90 294 q 124 727 90 623 q 227 882 157 831 q 406 933 296 933 q 615 856 540 933 q 711 618 690 779 l 595 618 q 531 777 578 725 q 406 829 485 829 q 254 740 302 829 q 205 458 205 650 q 254 177 205 267 q 406 87 302 87 q 531 139 485 87 q 595 298 578 191 l 711 298 q 615 60 690 138 q 406 -17 540 -17 m 391 -322 q 312 -314 349 -322 q 252 -293 275 -307 l 274 -229 q 320 -247 293 -241 q 375 -253 347 -253 q 434 -241 413 -253 q 454 -205 454 -229 q 436 -173 454 -183 q 380 -163 418 -163 l 323 -163 l 381 0 l 456 0 l 417 -110 q 519 -135 483 -110 q 555 -208 555 -159 q 512 -292 555 -262 q 391 -322 470 -322 z "},"Ĉ":{"ha":778,"x_min":90,"x_max":711,"o":"m 406 -17 q 227 34 296 -17 q 124 190 157 85 q 90 458 90 294 q 124 727 90 623 q 227 882 157 831 q 406 933 296 933 q 615 856 540 933 q 711 618 690 779 l 595 618 q 531 777 578 725 q 406 829 485 829 q 254 740 302 829 q 205 458 205 650 q 254 177 205 267 q 406 87 302 87 q 531 139 485 87 q 595 298 578 191 l 711 298 q 615 60 690 138 q 406 -17 540 -17 m 347 1252 l 457 1252 l 631 1032 l 523 1032 l 401 1174 l 281 1032 l 173 1032 l 347 1252 z "},"Ċ":{"ha":778,"x_min":90,"x_max":711,"o":"m 406 -17 q 227 34 296 -17 q 124 190 157 85 q 90 458 90 294 q 124 727 90 623 q 227 882 157 831 q 406 933 296 933 q 615 856 540 933 q 711 618 690 779 l 595 618 q 531 777 578 725 q 406 829 485 829 q 254 740 302 829 q 205 458 205 650 q 254 177 205 267 q 406 87 302 87 q 531 139 485 87 q 595 298 578 191 l 711 298 q 615 60 690 138 q 406 -17 540 -17 m 401 1032 q 334 1059 361 1032 q 307 1126 307 1086 q 334 1194 307 1167 q 401 1221 361 1221 q 469 1194 442 1221 q 496 1126 496 1167 q 469 1059 496 1086 q 401 1032 442 1032 z "},"D":{"ha":778,"x_min":114,"x_max":707,"o":"m 114 917 l 330 917 q 546 869 463 917 q 668 721 629 821 q 707 458 707 620 q 668 196 707 297 q 546 48 629 96 q 330 0 463 0 l 114 0 l 114 917 m 321 100 q 479 135 420 100 q 565 249 538 171 q 591 458 591 327 q 565 668 591 590 q 479 781 538 745 q 321 817 420 817 l 225 817 l 225 100 l 321 100 z "},"Ð":{"ha":778,"x_min":28,"x_max":707,"o":"m 114 408 l 28 408 l 28 509 l 114 509 l 114 917 l 330 917 q 546 869 463 917 q 668 721 629 821 q 707 458 707 620 q 668 196 707 297 q 546 48 629 96 q 330 0 463 0 l 114 0 l 114 408 m 321 100 q 479 135 420 100 q 565 249 538 171 q 591 458 591 327 q 565 668 591 590 q 479 781 538 745 q 321 817 420 817 l 225 817 l 225 509 l 389 509 l 389 408 l 225 408 l 225 100 l 321 100 z "},"Ď":{"ha":778,"x_min":114,"x_max":707,"o":"m 114 917 l 330 917 q 546 869 463 917 q 668 721 629 821 q 707 458 707 620 q 668 196 707 297 q 546 48 629 96 q 330 0 463 0 l 114 0 l 114 917 m 321 100 q 479 135 420 100 q 565 249 538 171 q 591 458 591 327 q 565 668 591 590 q 479 781 538 745 q 321 817 420 817 l 225 817 l 225 100 l 321 100 m 140 1252 l 248 1252 l 368 1110 l 490 1252 l 597 1252 l 424 1032 l 313 1032 l 140 1252 z "},"Đ":{"ha":778,"x_min":28,"x_max":707,"o":"m 114 408 l 28 408 l 28 509 l 114 509 l 114 917 l 330 917 q 546 869 463 917 q 668 721 629 821 q 707 458 707 620 q 668 196 707 297 q 546 48 629 96 q 330 0 463 0 l 114 0 l 114 408 m 321 100 q 479 135 420 100 q 565 249 538 171 q 591 458 591 327 q 565 668 591 590 q 479 781 538 745 q 321 817 420 817 l 225 817 l 225 509 l 389 509 l 389 408 l 225 408 l 225 100 l 321 100 z "},"E":{"ha":778,"x_min":153,"x_max":700,"o":"m 153 917 l 700 917 l 700 817 l 264 817 l 264 524 l 616 524 l 616 424 l 264 424 l 264 100 l 700 100 l 700 0 l 153 0 l 153 917 z "},"É":{"ha":778,"x_min":153,"x_max":700,"o":"m 153 917 l 700 917 l 700 817 l 264 817 l 264 524 l 616 524 l 616 424 l 264 424 l 264 100 l 700 100 l 700 0 l 153 0 l 153 917 m 492 1252 l 629 1252 l 438 1032 l 330 1032 l 492 1252 z "},"Ĕ":{"ha":778,"x_min":153,"x_max":700,"o":"m 153 917 l 700 917 l 700 817 l 264 817 l 264 524 l 616 524 l 616 424 l 264 424 l 264 100 l 700 100 l 700 0 l 153 0 l 153 917 m 427 1032 q 282 1086 335 1032 q 220 1239 229 1141 l 309 1239 q 345 1156 316 1183 q 427 1128 374 1128 q 509 1156 480 1128 q 545 1239 538 1183 l 634 1239 q 572 1086 625 1141 q 427 1032 519 1032 z "},"Ě":{"ha":778,"x_min":153,"x_max":700,"o":"m 153 917 l 700 917 l 700 817 l 264 817 l 264 524 l 616 524 l 616 424 l 264 424 l 264 100 l 700 100 l 700 0 l 153 0 l 153 917 m 198 1252 l 306 1252 l 427 1110 l 548 1252 l 656 1252 l 482 1032 l 372 1032 l 198 1252 z "},"Ê":{"ha":778,"x_min":153,"x_max":700,"o":"m 153 917 l 700 917 l 700 817 l 264 817 l 264 524 l 616 524 l 616 424 l 264 424 l 264 100 l 700 100 l 700 0 l 153 0 l 153 917 m 372 1252 l 482 1252 l 656 1032 l 548 1032 l 427 1174 l 306 1032 l 198 1032 l 372 1252 z "},"Ë":{"ha":778,"x_min":153,"x_max":700,"o":"m 153 917 l 700 917 l 700 817 l 264 817 l 264 524 l 616 524 l 616 424 l 264 424 l 264 100 l 700 100 l 700 0 l 153 0 l 153 917 m 288 1040 q 227 1065 252 1040 q 202 1126 202 1090 q 227 1188 202 1163 q 288 1213 252 1213 q 349 1188 324 1213 q 374 1126 374 1163 q 349 1065 374 1090 q 288 1040 324 1040 m 566 1040 q 505 1065 530 1040 q 479 1126 479 1090 q 505 1188 479 1163 q 566 1213 530 1213 q 627 1188 602 1213 q 652 1126 652 1163 q 627 1065 652 1090 q 566 1040 602 1040 z "},"Ė":{"ha":778,"x_min":153,"x_max":700,"o":"m 153 917 l 700 917 l 700 817 l 264 817 l 264 524 l 616 524 l 616 424 l 264 424 l 264 100 l 700 100 l 700 0 l 153 0 l 153 917 m 427 1032 q 359 1059 387 1032 q 332 1126 332 1086 q 359 1194 332 1167 q 427 1221 387 1221 q 494 1194 467 1221 q 522 1126 522 1167 q 494 1059 522 1086 q 427 1032 467 1032 z "},"È":{"ha":778,"x_min":153,"x_max":700,"o":"m 153 917 l 700 917 l 700 817 l 264 817 l 264 524 l 616 524 l 616 424 l 264 424 l 264 100 l 700 100 l 700 0 l 153 0 l 153 917 m 224 1252 l 361 1252 l 524 1032 l 416 1032 l 224 1252 z "},"Ē":{"ha":778,"x_min":153,"x_max":700,"o":"m 153 917 l 700 917 l 700 817 l 264 817 l 264 524 l 616 524 l 616 424 l 264 424 l 264 100 l 700 100 l 700 0 l 153 0 l 153 917 m 231 1170 l 623 1170 l 623 1084 l 231 1084 l 231 1170 z "},"Ę":{"ha":778,"x_min":153,"x_max":700,"o":"m 264 817 l 264 524 l 616 524 l 616 424 l 264 424 l 264 100 l 700 100 l 700 0 l 660 0 q 566 -154 566 -79 q 588 -209 566 -191 q 643 -228 609 -228 q 700 -212 677 -228 l 700 -306 q 666 -318 684 -314 q 623 -322 648 -322 q 511 -285 553 -322 q 469 -184 469 -248 q 494 -92 469 -137 q 571 -3 519 -47 l 571 0 l 153 0 l 153 917 l 700 917 l 700 817 l 264 817 z "},"F":{"ha":778,"x_min":160,"x_max":707,"o":"m 160 917 l 707 917 l 707 817 l 271 817 l 271 517 l 624 517 l 624 416 l 271 416 l 271 0 l 160 0 l 160 917 z "},"G":{"ha":778,"x_min":72,"x_max":699,"o":"m 371 -17 q 148 103 223 -17 q 72 458 72 223 q 106 727 72 623 q 210 883 140 832 q 389 933 279 933 q 587 867 514 933 q 688 665 661 802 l 570 665 q 504 789 549 749 q 389 829 460 829 q 236 740 285 829 q 187 458 187 650 q 237 178 187 269 q 392 87 288 87 q 536 163 486 87 q 590 386 586 239 l 383 386 l 383 484 l 699 484 l 699 0 l 629 0 l 608 147 l 603 147 q 512 25 570 66 q 371 -17 453 -17 z "},"Ğ":{"ha":778,"x_min":72,"x_max":699,"o":"m 371 -17 q 148 103 223 -17 q 72 458 72 223 q 106 727 72 623 q 210 883 140 832 q 389 933 279 933 q 587 867 514 933 q 688 665 661 802 l 570 665 q 504 789 549 749 q 389 829 460 829 q 236 740 285 829 q 187 458 187 650 q 237 178 187 269 q 392 87 288 87 q 536 163 486 87 q 590 386 586 239 l 383 386 l 383 484 l 699 484 l 699 0 l 629 0 l 608 147 l 603 147 q 512 25 570 66 q 371 -17 453 -17 m 389 1032 q 244 1086 297 1032 q 182 1239 191 1141 l 271 1239 q 307 1156 278 1183 q 389 1128 336 1128 q 471 1156 442 1128 q 507 1239 500 1183 l 596 1239 q 534 1086 587 1141 q 389 1032 481 1032 z "},"Ĝ":{"ha":778,"x_min":72,"x_max":699,"o":"m 371 -17 q 148 103 223 -17 q 72 458 72 223 q 106 727 72 623 q 210 883 140 832 q 389 933 279 933 q 587 867 514 933 q 688 665 661 802 l 570 665 q 504 789 549 749 q 389 829 460 829 q 236 740 285 829 q 187 458 187 650 q 237 178 187 269 q 392 87 288 87 q 536 163 486 87 q 590 386 586 239 l 383 386 l 383 484 l 699 484 l 699 0 l 629 0 l 608 147 l 603 147 q 512 25 570 66 q 371 -17 453 -17 m 334 1252 l 444 1252 l 618 1032 l 510 1032 l 389 1174 l 268 1032 l 160 1032 l 334 1252 z "},"Ģ":{"ha":778,"x_min":72,"x_max":699,"o":"m 371 -17 q 148 103 223 -17 q 72 458 72 223 q 106 727 72 623 q 210 883 140 832 q 389 933 279 933 q 587 867 514 933 q 688 665 661 802 l 570 665 q 504 789 549 749 q 389 829 460 829 q 236 740 285 829 q 187 458 187 650 q 237 178 187 269 q 392 87 288 87 q 536 163 486 87 q 590 386 586 239 l 383 386 l 383 484 l 699 484 l 699 0 l 629 0 l 608 147 l 603 147 q 512 25 570 66 q 371 -17 453 -17 m 306 -342 q 375 -308 353 -326 q 403 -256 397 -289 q 376 -261 392 -261 q 325 -240 347 -261 q 302 -184 302 -219 q 327 -124 302 -148 q 389 -100 351 -100 q 455 -129 430 -100 q 479 -207 479 -158 q 461 -285 479 -248 q 407 -351 442 -323 q 323 -392 372 -379 l 306 -342 z "},"Ġ":{"ha":778,"x_min":72,"x_max":699,"o":"m 371 -17 q 148 103 223 -17 q 72 458 72 223 q 106 727 72 623 q 210 883 140 832 q 389 933 279 933 q 587 867 514 933 q 688 665 661 802 l 570 665 q 504 789 549 749 q 389 829 460 829 q 236 740 285 829 q 187 458 187 650 q 237 178 187 269 q 392 87 288 87 q 536 163 486 87 q 590 386 586 239 l 383 386 l 383 484 l 699 484 l 699 0 l 629 0 l 608 147 l 603 147 q 512 25 570 66 q 371 -17 453 -17 m 389 1032 q 321 1059 349 1032 q 294 1126 294 1086 q 321 1194 294 1167 q 389 1221 349 1221 q 456 1194 429 1221 q 484 1126 484 1167 q 456 1059 484 1086 q 389 1032 429 1032 z "},"H":{"ha":778,"x_min":103,"x_max":675,"o":"m 103 917 l 214 917 l 214 524 l 564 524 l 564 917 l 675 917 l 675 0 l 564 0 l 564 424 l 214 424 l 214 0 l 103 0 l 103 917 z "},"Ħ":{"ha":778,"x_min":28,"x_max":750,"o":"m 103 676 l 28 676 l 28 765 l 103 765 l 103 917 l 214 917 l 214 765 l 564 765 l 564 917 l 675 917 l 675 765 l 750 765 l 750 676 l 675 676 l 675 0 l 564 0 l 564 424 l 214 424 l 214 0 l 103 0 l 103 676 m 564 524 l 564 676 l 214 676 l 214 524 l 564 524 z "},"Ĥ":{"ha":778,"x_min":103,"x_max":675,"o":"m 103 917 l 214 917 l 214 524 l 564 524 l 564 917 l 675 917 l 675 0 l 564 0 l 564 424 l 214 424 l 214 0 l 103 0 l 103 917 m 334 1252 l 444 1252 l 618 1032 l 510 1032 l 389 1174 l 268 1032 l 160 1032 l 334 1252 z "},"I":{"ha":778,"x_min":111,"x_max":667,"o":"m 111 100 l 334 100 l 334 817 l 111 817 l 111 917 l 667 917 l 667 817 l 444 817 l 444 100 l 667 100 l 667 0 l 111 0 l 111 100 z "},"Í":{"ha":778,"x_min":111,"x_max":667,"o":"m 111 100 l 334 100 l 334 817 l 111 817 l 111 917 l 667 917 l 667 817 l 444 817 l 444 100 l 667 100 l 667 0 l 111 0 l 111 100 m 454 1252 l 591 1252 l 400 1032 l 292 1032 l 454 1252 z "},"Ĭ":{"ha":778,"x_min":111,"x_max":667,"o":"m 111 100 l 334 100 l 334 817 l 111 817 l 111 917 l 667 917 l 667 817 l 444 817 l 444 100 l 667 100 l 667 0 l 111 0 l 111 100 m 389 1032 q 244 1086 297 1032 q 182 1239 191 1141 l 271 1239 q 307 1156 278 1183 q 389 1128 336 1128 q 471 1156 442 1128 q 507 1239 500 1183 l 596 1239 q 534 1086 587 1141 q 389 1032 481 1032 z "},"Î":{"ha":778,"x_min":111,"x_max":667,"o":"m 111 100 l 334 100 l 334 817 l 111 817 l 111 917 l 667 917 l 667 817 l 444 817 l 444 100 l 667 100 l 667 0 l 111 0 l 111 100 m 334 1252 l 444 1252 l 618 1032 l 510 1032 l 389 1174 l 268 1032 l 160 1032 l 334 1252 z "},"Ï":{"ha":778,"x_min":111,"x_max":667,"o":"m 111 100 l 334 100 l 334 817 l 111 817 l 111 917 l 667 917 l 667 817 l 444 817 l 444 100 l 667 100 l 667 0 l 111 0 l 111 100 m 250 1040 q 189 1065 214 1040 q 164 1126 164 1090 q 189 1188 164 1163 q 250 1213 214 1213 q 311 1188 286 1213 q 336 1126 336 1163 q 311 1065 336 1090 q 250 1040 286 1040 m 528 1040 q 467 1065 492 1040 q 441 1126 441 1090 q 467 1188 441 1163 q 528 1213 492 1213 q 589 1188 564 1213 q 614 1126 614 1163 q 589 1065 614 1090 q 528 1040 564 1040 z "},"İ":{"ha":778,"x_min":111,"x_max":667,"o":"m 111 100 l 334 100 l 334 817 l 111 817 l 111 917 l 667 917 l 667 817 l 444 817 l 444 100 l 667 100 l 667 0 l 111 0 l 111 100 m 389 1032 q 321 1059 349 1032 q 294 1126 294 1086 q 321 1194 294 1167 q 389 1221 349 1221 q 456 1194 429 1221 q 484 1126 484 1167 q 456 1059 484 1086 q 389 1032 429 1032 z "},"Ì":{"ha":778,"x_min":111,"x_max":667,"o":"m 111 100 l 334 100 l 334 817 l 111 817 l 111 917 l 667 917 l 667 817 l 444 817 l 444 100 l 667 100 l 667 0 l 111 0 l 111 100 m 186 1252 l 323 1252 l 486 1032 l 378 1032 l 186 1252 z "},"Ī":{"ha":778,"x_min":111,"x_max":667,"o":"m 111 100 l 334 100 l 334 817 l 111 817 l 111 917 l 667 917 l 667 817 l 444 817 l 444 100 l 667 100 l 667 0 l 111 0 l 111 100 m 193 1170 l 585 1170 l 585 1084 l 193 1084 l 193 1170 z "},"Į":{"ha":778,"x_min":111,"x_max":667,"o":"m 444 817 l 444 100 l 667 100 l 667 0 l 418 0 q 392 -74 400 -42 q 383 -136 383 -106 q 463 -228 383 -228 q 519 -212 496 -228 l 519 -306 q 485 -318 503 -314 q 443 -322 467 -322 q 330 -284 372 -322 q 289 -175 289 -246 q 305 -92 289 -134 q 355 -3 321 -50 l 355 0 l 111 0 l 111 100 l 334 100 l 334 817 l 111 817 l 111 917 l 667 917 l 667 817 l 444 817 z "},"Ĩ":{"ha":778,"x_min":111,"x_max":667,"o":"m 111 100 l 334 100 l 334 817 l 111 817 l 111 917 l 667 917 l 667 817 l 444 817 l 444 100 l 667 100 l 667 0 l 111 0 l 111 100 m 165 1032 q 202 1177 169 1126 q 300 1228 235 1228 q 351 1218 328 1228 q 411 1179 374 1207 q 453 1151 441 1158 q 478 1145 465 1145 q 514 1166 502 1145 q 529 1240 526 1188 l 612 1240 q 576 1096 609 1147 q 479 1045 543 1045 q 427 1056 450 1045 q 367 1093 404 1066 q 325 1121 337 1115 q 300 1128 313 1128 q 264 1106 276 1128 q 249 1032 252 1085 l 165 1032 z "},"J":{"ha":778,"x_min":77,"x_max":637,"o":"m 357 -17 q 150 57 223 -17 q 77 267 77 131 l 77 334 l 184 334 l 184 281 q 355 87 184 87 q 526 281 526 87 l 526 817 l 212 817 l 212 917 l 637 917 l 637 267 q 564 57 637 131 q 357 -17 490 -17 z "},"Ĵ":{"ha":778,"x_min":77,"x_max":654,"o":"m 357 -17 q 150 57 223 -17 q 77 267 77 131 l 77 334 l 184 334 l 184 281 q 355 87 184 87 q 526 281 526 87 l 526 817 l 212 817 l 212 917 l 637 917 l 637 267 q 564 57 637 131 q 357 -17 490 -17 m 370 1252 l 481 1252 l 654 1032 l 547 1032 l 425 1174 l 304 1032 l 197 1032 l 370 1252 z "},"K":{"ha":778,"x_min":134,"x_max":739,"o":"m 134 917 l 244 917 l 244 482 l 250 482 l 586 917 l 720 917 l 372 471 l 739 0 l 600 0 l 250 452 l 244 452 l 244 0 l 134 0 l 134 917 z "},"Ķ":{"ha":778,"x_min":134,"x_max":739,"o":"m 134 917 l 244 917 l 244 482 l 250 482 l 586 917 l 720 917 l 372 471 l 739 0 l 600 0 l 250 452 l 244 452 l 244 0 l 134 0 l 134 917 m 335 -342 q 404 -308 382 -326 q 432 -256 426 -289 q 406 -261 421 -261 q 354 -240 376 -261 q 332 -184 332 -219 q 356 -124 332 -148 q 418 -100 380 -100 q 484 -129 459 -100 q 509 -207 509 -158 q 490 -285 509 -248 q 436 -351 471 -323 q 353 -392 401 -379 l 335 -342 z "},"L":{"ha":778,"x_min":163,"x_max":707,"o":"m 163 917 l 273 917 l 273 100 l 707 100 l 707 0 l 163 0 l 163 917 z "},"Ĺ":{"ha":778,"x_min":121,"x_max":707,"o":"m 163 917 l 273 917 l 273 100 l 707 100 l 707 0 l 163 0 l 163 917 m 284 1252 l 421 1252 l 230 1032 l 121 1032 l 284 1252 z "},"Ľ":{"ha":778,"x_min":163,"x_max":707,"o":"m 163 917 l 273 917 l 273 100 l 707 100 l 707 0 l 163 0 l 163 917 m 454 917 l 565 917 l 498 587 l 426 587 l 454 917 z "},"Ļ":{"ha":778,"x_min":163,"x_max":707,"o":"m 163 917 l 273 917 l 273 100 l 707 100 l 707 0 l 163 0 l 163 917 m 352 -342 q 421 -308 399 -326 q 449 -256 443 -289 q 422 -261 438 -261 q 371 -240 393 -261 q 349 -184 349 -219 q 373 -124 349 -148 q 435 -100 397 -100 q 501 -129 476 -100 q 526 -207 526 -158 q 507 -285 526 -248 q 453 -351 488 -323 q 370 -392 418 -379 l 352 -342 z "},"Ŀ":{"ha":778,"x_min":163,"x_max":721,"o":"m 163 917 l 273 917 l 273 100 l 707 100 l 707 0 l 163 0 l 163 917 m 607 379 q 549 394 575 379 q 508 435 523 409 q 494 493 494 461 q 508 551 494 525 q 549 592 523 577 q 607 607 575 607 q 665 592 640 607 q 706 551 691 577 q 721 493 721 525 q 706 435 721 461 q 665 394 691 409 q 607 379 640 379 z "},"Ł":{"ha":778,"x_min":26,"x_max":707,"o":"m 707 100 l 707 0 l 163 0 l 163 312 l 26 236 l 26 345 l 163 420 l 163 917 l 273 917 l 273 482 l 629 681 l 629 572 l 273 374 l 273 100 l 707 100 z "},"M":{"ha":778,"x_min":89,"x_max":689,"o":"m 89 917 l 216 917 l 386 415 l 393 415 l 562 917 l 689 917 l 689 0 l 589 0 l 589 728 l 583 728 l 415 232 l 359 232 l 192 728 l 186 728 l 186 0 l 89 0 l 89 917 z "},"N":{"ha":778,"x_min":103,"x_max":675,"o":"m 103 917 l 229 917 l 562 233 l 568 233 l 568 917 l 675 917 l 675 0 l 568 0 l 215 721 l 210 721 l 210 0 l 103 0 l 103 917 z "},"Ń":{"ha":778,"x_min":103,"x_max":675,"o":"m 103 917 l 229 917 l 562 233 l 568 233 l 568 917 l 675 917 l 675 0 l 568 0 l 215 721 l 210 721 l 210 0 l 103 0 l 103 917 m 454 1252 l 591 1252 l 400 1032 l 292 1032 l 454 1252 z "},"Ň":{"ha":778,"x_min":103,"x_max":675,"o":"m 103 917 l 229 917 l 562 233 l 568 233 l 568 917 l 675 917 l 675 0 l 568 0 l 215 721 l 210 721 l 210 0 l 103 0 l 103 917 m 160 1252 l 268 1252 l 389 1110 l 510 1252 l 618 1252 l 444 1032 l 334 1032 l 160 1252 z "},"Ņ":{"ha":778,"x_min":103,"x_max":675,"o":"m 103 917 l 229 917 l 562 233 l 568 233 l 568 917 l 675 917 l 675 0 l 568 0 l 215 721 l 210 721 l 210 0 l 103 0 l 103 917 m 306 -342 q 375 -308 353 -326 q 403 -256 397 -289 q 376 -261 392 -261 q 325 -240 347 -261 q 302 -184 302 -219 q 327 -124 302 -148 q 389 -100 351 -100 q 455 -129 430 -100 q 479 -207 479 -158 q 461 -285 479 -248 q 407 -351 442 -323 q 323 -392 372 -379 l 306 -342 z "},"Ŋ":{"ha":778,"x_min":103,"x_max":675,"o":"m 675 917 l 675 -74 q 614 -245 675 -185 q 443 -306 554 -306 l 374 -306 l 374 -210 l 443 -210 q 568 -64 568 -210 l 568 0 l 215 721 l 210 721 l 210 0 l 103 0 l 103 917 l 229 917 l 562 233 l 568 233 l 568 917 l 675 917 z "},"Ñ":{"ha":778,"x_min":103,"x_max":675,"o":"m 103 917 l 229 917 l 562 233 l 568 233 l 568 917 l 675 917 l 675 0 l 568 0 l 215 721 l 210 721 l 210 0 l 103 0 l 103 917 m 165 1032 q 202 1177 169 1126 q 300 1228 235 1228 q 351 1218 328 1228 q 411 1179 374 1207 q 453 1151 441 1158 q 478 1145 465 1145 q 514 1166 502 1145 q 529 1240 526 1188 l 612 1240 q 576 1096 609 1147 q 479 1045 543 1045 q 427 1056 450 1045 q 367 1093 404 1066 q 325 1121 337 1115 q 300 1128 313 1128 q 264 1106 276 1128 q 249 1032 252 1085 l 165 1032 z "},"O":{"ha":778,"x_min":72,"x_max":705,"o":"m 389 -17 q 210 34 279 -17 q 106 189 140 84 q 72 458 72 294 q 106 727 72 623 q 210 883 140 832 q 389 933 279 933 q 568 883 498 933 q 672 727 638 832 q 705 458 705 623 q 672 189 705 294 q 568 34 638 84 q 389 -17 498 -17 m 389 87 q 542 177 493 87 q 590 458 590 267 q 542 740 590 650 q 389 829 493 829 q 236 740 285 829 q 187 458 187 650 q 236 177 187 267 q 389 87 285 87 z "},"Ó":{"ha":778,"x_min":72,"x_max":705,"o":"m 389 -17 q 210 34 279 -17 q 106 189 140 84 q 72 458 72 294 q 106 727 72 623 q 210 883 140 832 q 389 933 279 933 q 568 883 498 933 q 672 727 638 832 q 705 458 705 623 q 672 189 705 294 q 568 34 638 84 q 389 -17 498 -17 m 389 87 q 542 177 493 87 q 590 458 590 267 q 542 740 590 650 q 389 829 493 829 q 236 740 285 829 q 187 458 187 650 q 236 177 187 267 q 389 87 285 87 m 454 1252 l 591 1252 l 400 1032 l 292 1032 l 454 1252 z "},"Ŏ":{"ha":778,"x_min":72,"x_max":705,"o":"m 389 -17 q 210 34 279 -17 q 106 189 140 84 q 72 458 72 294 q 106 727 72 623 q 210 883 140 832 q 389 933 279 933 q 568 883 498 933 q 672 727 638 832 q 705 458 705 623 q 672 189 705 294 q 568 34 638 84 q 389 -17 498 -17 m 389 87 q 542 177 493 87 q 590 458 590 267 q 542 740 590 650 q 389 829 493 829 q 236 740 285 829 q 187 458 187 650 q 236 177 187 267 q 389 87 285 87 m 389 1032 q 244 1086 297 1032 q 182 1239 191 1141 l 271 1239 q 307 1156 278 1183 q 389 1128 336 1128 q 471 1156 442 1128 q 507 1239 500 1183 l 596 1239 q 534 1086 587 1141 q 389 1032 481 1032 z "},"Ô":{"ha":778,"x_min":72,"x_max":705,"o":"m 389 -17 q 210 34 279 -17 q 106 189 140 84 q 72 458 72 294 q 106 727 72 623 q 210 883 140 832 q 389 933 279 933 q 568 883 498 933 q 672 727 638 832 q 705 458 705 623 q 672 189 705 294 q 568 34 638 84 q 389 -17 498 -17 m 389 87 q 542 177 493 87 q 590 458 590 267 q 542 740 590 650 q 389 829 493 829 q 236 740 285 829 q 187 458 187 650 q 236 177 187 267 q 389 87 285 87 m 334 1252 l 444 1252 l 618 1032 l 510 1032 l 389 1174 l 268 1032 l 160 1032 l 334 1252 z "},"Ö":{"ha":778,"x_min":72,"x_max":705,"o":"m 389 -17 q 210 34 279 -17 q 106 189 140 84 q 72 458 72 294 q 106 727 72 623 q 210 883 140 832 q 389 933 279 933 q 568 883 498 933 q 672 727 638 832 q 705 458 705 623 q 672 189 705 294 q 568 34 638 84 q 389 -17 498 -17 m 389 87 q 542 177 493 87 q 590 458 590 267 q 542 740 590 650 q 389 829 493 829 q 236 740 285 829 q 187 458 187 650 q 236 177 187 267 q 389 87 285 87 m 250 1040 q 189 1065 214 1040 q 164 1126 164 1090 q 189 1188 164 1163 q 250 1213 214 1213 q 311 1188 286 1213 q 336 1126 336 1163 q 311 1065 336 1090 q 250 1040 286 1040 m 528 1040 q 467 1065 492 1040 q 441 1126 441 1090 q 467 1188 441 1163 q 528 1213 492 1213 q 589 1188 564 1213 q 614 1126 614 1163 q 589 1065 614 1090 q 528 1040 564 1040 z "},"Ò":{"ha":778,"x_min":72,"x_max":705,"o":"m 389 -17 q 210 34 279 -17 q 106 189 140 84 q 72 458 72 294 q 106 727 72 623 q 210 883 140 832 q 389 933 279 933 q 568 883 498 933 q 672 727 638 832 q 705 458 705 623 q 672 189 705 294 q 568 34 638 84 q 389 -17 498 -17 m 389 87 q 542 177 493 87 q 590 458 590 267 q 542 740 590 650 q 389 829 493 829 q 236 740 285 829 q 187 458 187 650 q 236 177 187 267 q 389 87 285 87 m 186 1252 l 323 1252 l 486 1032 l 378 1032 l 186 1252 z "},"Ő":{"ha":778,"x_min":72,"x_max":705,"o":"m 389 -17 q 210 34 279 -17 q 106 189 140 84 q 72 458 72 294 q 106 727 72 623 q 210 883 140 832 q 389 933 279 933 q 568 883 498 933 q 672 727 638 832 q 705 458 705 623 q 672 189 705 294 q 568 34 638 84 q 389 -17 498 -17 m 389 87 q 542 177 493 87 q 590 458 590 267 q 542 740 590 650 q 389 829 493 829 q 236 740 285 829 q 187 458 187 650 q 236 177 187 267 q 389 87 285 87 m 322 1252 l 447 1252 l 294 1032 l 195 1032 l 322 1252 m 566 1252 l 690 1252 l 538 1032 l 437 1032 l 566 1252 z "},"Ō":{"ha":778,"x_min":72,"x_max":705,"o":"m 389 -17 q 210 34 279 -17 q 106 189 140 84 q 72 458 72 294 q 106 727 72 623 q 210 883 140 832 q 389 933 279 933 q 568 883 498 933 q 672 727 638 832 q 705 458 705 623 q 672 189 705 294 q 568 34 638 84 q 389 -17 498 -17 m 389 87 q 542 177 493 87 q 590 458 590 267 q 542 740 590 650 q 389 829 493 829 q 236 740 285 829 q 187 458 187 650 q 236 177 187 267 q 389 87 285 87 m 193 1170 l 585 1170 l 585 1084 l 193 1084 l 193 1170 z "},"Ø":{"ha":778,"x_min":45,"x_max":733,"o":"m 45 20 l 125 142 q 72 458 72 252 q 106 727 72 623 q 210 883 140 832 q 389 933 279 933 q 597 857 522 933 l 657 947 l 733 897 l 653 775 q 705 458 705 666 q 672 189 705 294 q 568 34 638 84 q 389 -17 498 -17 q 180 60 255 -17 l 121 -31 l 45 20 m 208 267 l 532 757 q 389 829 482 829 q 236 740 285 829 q 187 458 187 650 q 204 267 187 347 l 208 267 m 389 87 q 542 177 493 87 q 590 458 590 267 q 574 650 590 574 l 570 650 l 245 160 q 389 87 296 87 z "},"Ǿ":{"ha":778,"x_min":45,"x_max":733,"o":"m 45 20 l 125 142 q 72 458 72 252 q 106 727 72 623 q 210 883 140 832 q 389 933 279 933 q 597 857 522 933 l 657 947 l 733 897 l 653 775 q 705 458 705 666 q 672 189 705 294 q 568 34 638 84 q 389 -17 498 -17 q 180 60 255 -17 l 121 -31 l 45 20 m 208 267 l 532 757 q 389 829 482 829 q 236 740 285 829 q 187 458 187 650 q 204 267 187 347 l 208 267 m 389 87 q 542 177 493 87 q 590 458 590 267 q 574 650 590 574 l 570 650 l 245 160 q 389 87 296 87 m 454 1252 l 591 1252 l 400 1032 l 292 1032 l 454 1252 z "},"Õ":{"ha":778,"x_min":72,"x_max":705,"o":"m 389 -17 q 210 34 279 -17 q 106 189 140 84 q 72 458 72 294 q 106 727 72 623 q 210 883 140 832 q 389 933 279 933 q 568 883 498 933 q 672 727 638 832 q 705 458 705 623 q 672 189 705 294 q 568 34 638 84 q 389 -17 498 -17 m 389 87 q 542 177 493 87 q 590 458 590 267 q 542 740 590 650 q 389 829 493 829 q 236 740 285 829 q 187 458 187 650 q 236 177 187 267 q 389 87 285 87 m 165 1032 q 202 1177 169 1126 q 300 1228 235 1228 q 351 1218 328 1228 q 411 1179 374 1207 q 453 1151 441 1158 q 478 1145 465 1145 q 514 1166 502 1145 q 529 1240 526 1188 l 612 1240 q 576 1096 609 1147 q 479 1045 543 1045 q 427 1056 450 1045 q 367 1093 404 1066 q 325 1121 337 1115 q 300 1128 313 1128 q 264 1106 276 1128 q 249 1032 252 1085 l 165 1032 z "},"Œ":{"ha":778,"x_min":37,"x_max":766,"o":"m 408 0 q 198 49 279 0 q 77 199 116 98 q 37 458 37 300 q 77 718 37 617 q 198 868 116 819 q 408 917 279 917 l 766 917 l 766 819 l 493 819 l 493 522 l 711 522 l 711 425 l 493 425 l 493 97 l 766 97 l 766 0 l 408 0 m 387 819 q 250 778 303 817 q 172 661 197 739 q 147 458 147 583 q 172 256 147 334 q 250 139 197 177 q 387 97 303 100 l 387 819 z "},"P":{"ha":778,"x_min":139,"x_max":708,"o":"m 139 917 l 431 917 q 637 849 566 917 q 708 653 708 782 q 637 456 708 524 q 431 389 566 389 l 250 389 l 250 0 l 139 0 l 139 917 m 416 489 q 549 530 506 489 q 593 653 593 570 q 549 776 593 735 q 416 817 506 817 l 250 817 l 250 489 l 416 489 z "},"Þ":{"ha":778,"x_min":139,"x_max":708,"o":"m 139 917 l 250 917 l 250 758 l 431 758 q 637 691 566 758 q 708 494 708 623 q 637 298 708 366 q 431 231 566 231 l 250 231 l 250 0 l 139 0 l 139 917 m 416 330 q 549 371 506 330 q 593 494 593 412 q 549 618 593 577 q 416 659 506 659 l 250 659 l 250 330 l 416 330 z "},"Q":{"ha":778,"x_min":72,"x_max":802,"o":"m 579 -281 q 414 -223 472 -281 q 357 -60 357 -166 l 357 -16 q 141 110 210 -5 q 72 458 72 225 q 106 727 72 623 q 210 883 140 832 q 389 933 279 933 q 568 883 498 933 q 672 727 638 832 q 705 458 705 623 q 647 130 705 243 q 465 -9 589 16 l 465 -52 q 494 -148 465 -115 q 581 -180 523 -180 q 667 -148 638 -180 q 696 -52 696 -115 l 696 -46 l 802 -46 l 802 -60 q 744 -223 802 -166 q 579 -281 686 -281 m 389 87 q 542 177 493 87 q 590 458 590 267 q 542 740 590 650 q 389 829 493 829 q 236 740 285 829 q 187 458 187 650 q 236 177 187 267 q 389 87 285 87 z "},"R":{"ha":778,"x_min":131,"x_max":713,"o":"m 131 917 l 416 917 q 694 660 694 917 q 514 412 694 452 l 713 0 l 589 0 l 397 403 l 241 403 l 241 0 l 131 0 l 131 917 m 403 503 q 537 541 495 503 q 579 660 579 578 q 537 779 579 741 q 403 817 495 817 l 241 817 l 241 503 l 403 503 z "},"Ŕ":{"ha":778,"x_min":131,"x_max":713,"o":"m 131 917 l 416 917 q 694 660 694 917 q 514 412 694 452 l 713 0 l 589 0 l 397 403 l 241 403 l 241 0 l 131 0 l 131 917 m 403 503 q 537 541 495 503 q 579 660 579 578 q 537 779 579 741 q 403 817 495 817 l 241 817 l 241 503 l 403 503 m 441 1252 l 578 1252 l 387 1032 l 278 1032 l 441 1252 z "},"Ř":{"ha":778,"x_min":131,"x_max":713,"o":"m 131 917 l 416 917 q 694 660 694 917 q 514 412 694 452 l 713 0 l 589 0 l 397 403 l 241 403 l 241 0 l 131 0 l 131 917 m 403 503 q 537 541 495 503 q 579 660 579 578 q 537 779 579 741 q 403 817 495 817 l 241 817 l 241 503 l 403 503 m 146 1252 l 254 1252 l 375 1110 l 496 1252 l 604 1252 l 431 1032 l 320 1032 l 146 1252 z "},"Ŗ":{"ha":778,"x_min":131,"x_max":713,"o":"m 131 917 l 416 917 q 694 660 694 917 q 514 412 694 452 l 713 0 l 589 0 l 397 403 l 241 403 l 241 0 l 131 0 l 131 917 m 403 503 q 537 541 495 503 q 579 660 579 578 q 537 779 579 741 q 403 817 495 817 l 241 817 l 241 503 l 403 503 m 320 -342 q 389 -308 367 -326 q 417 -256 411 -289 q 391 -261 406 -261 q 339 -240 361 -261 q 317 -184 317 -219 q 341 -124 317 -148 q 403 -100 365 -100 q 469 -129 444 -100 q 494 -207 494 -158 q 475 -285 494 -248 q 421 -351 456 -323 q 338 -392 386 -379 l 320 -342 z "},"S":{"ha":778,"x_min":87,"x_max":686,"o":"m 387 -17 q 170 50 248 -17 q 87 237 92 116 l 201 237 q 254 126 205 165 q 387 87 302 87 q 524 129 475 87 q 572 245 572 171 q 539 344 572 308 q 431 397 505 380 l 334 421 q 163 511 217 449 q 109 679 109 573 q 142 814 109 757 q 237 902 175 871 q 385 933 300 933 q 528 904 467 933 q 624 822 590 876 q 661 694 659 768 l 547 694 q 499 794 542 760 q 383 829 457 829 q 265 790 307 829 q 222 679 222 750 q 256 581 222 616 q 364 528 289 545 l 461 504 q 632 414 578 476 q 686 245 686 352 q 651 104 686 163 q 548 14 615 45 q 387 -17 481 -17 z "},"Ś":{"ha":778,"x_min":87,"x_max":686,"o":"m 387 -17 q 170 50 248 -17 q 87 237 92 116 l 201 237 q 254 126 205 165 q 387 87 302 87 q 524 129 475 87 q 572 245 572 171 q 539 344 572 308 q 431 397 505 380 l 334 421 q 163 511 217 449 q 109 679 109 573 q 142 814 109 757 q 237 902 175 871 q 385 933 300 933 q 528 904 467 933 q 624 822 590 876 q 661 694 659 768 l 547 694 q 499 794 542 760 q 383 829 457 829 q 265 790 307 829 q 222 679 222 750 q 256 581 222 616 q 364 528 289 545 l 461 504 q 632 414 578 476 q 686 245 686 352 q 651 104 686 163 q 548 14 615 45 q 387 -17 481 -17 m 454 1252 l 591 1252 l 400 1032 l 292 1032 l 454 1252 z "},"Š":{"ha":778,"x_min":87,"x_max":686,"o":"m 387 -17 q 170 50 248 -17 q 87 237 92 116 l 201 237 q 254 126 205 165 q 387 87 302 87 q 524 129 475 87 q 572 245 572 171 q 539 344 572 308 q 431 397 505 380 l 334 421 q 163 511 217 449 q 109 679 109 573 q 142 814 109 757 q 237 902 175 871 q 385 933 300 933 q 528 904 467 933 q 624 822 590 876 q 661 694 659 768 l 547 694 q 499 794 542 760 q 383 829 457 829 q 265 790 307 829 q 222 679 222 750 q 256 581 222 616 q 364 528 289 545 l 461 504 q 632 414 578 476 q 686 245 686 352 q 651 104 686 163 q 548 14 615 45 q 387 -17 481 -17 m 160 1252 l 268 1252 l 389 1110 l 510 1252 l 618 1252 l 444 1032 l 334 1032 l 160 1252 z "},"Ş":{"ha":778,"x_min":87,"x_max":686,"o":"m 387 -17 q 170 50 248 -17 q 87 237 92 116 l 201 237 q 254 126 205 165 q 387 87 302 87 q 524 129 475 87 q 572 245 572 171 q 539 344 572 308 q 431 397 505 380 l 334 421 q 163 511 217 449 q 109 679 109 573 q 142 814 109 757 q 237 902 175 871 q 385 933 300 933 q 528 904 467 933 q 624 822 590 876 q 661 694 659 768 l 547 694 q 499 794 542 760 q 383 829 457 829 q 265 790 307 829 q 222 679 222 750 q 256 581 222 616 q 364 528 289 545 l 461 504 q 632 414 578 476 q 686 245 686 352 q 651 104 686 163 q 548 14 615 45 q 387 -17 481 -17 m 375 -322 q 297 -314 334 -322 q 236 -293 260 -307 l 258 -229 q 304 -247 277 -241 q 359 -253 332 -253 q 418 -241 397 -253 q 439 -205 439 -229 q 421 -173 439 -183 q 364 -163 403 -163 l 307 -163 l 366 0 l 440 0 l 401 -110 q 503 -135 467 -110 q 539 -208 539 -159 q 497 -292 539 -262 q 375 -322 454 -322 z "},"Ŝ":{"ha":778,"x_min":87,"x_max":686,"o":"m 387 -17 q 170 50 248 -17 q 87 237 92 116 l 201 237 q 254 126 205 165 q 387 87 302 87 q 524 129 475 87 q 572 245 572 171 q 539 344 572 308 q 431 397 505 380 l 334 421 q 163 511 217 449 q 109 679 109 573 q 142 814 109 757 q 237 902 175 871 q 385 933 300 933 q 528 904 467 933 q 624 822 590 876 q 661 694 659 768 l 547 694 q 499 794 542 760 q 383 829 457 829 q 265 790 307 829 q 222 679 222 750 q 256 581 222 616 q 364 528 289 545 l 461 504 q 632 414 578 476 q 686 245 686 352 q 651 104 686 163 q 548 14 615 45 q 387 -17 481 -17 m 334 1252 l 444 1252 l 618 1032 l 510 1032 l 389 1174 l 268 1032 l 160 1032 l 334 1252 z "},"Ș":{"ha":778,"x_min":87,"x_max":686,"o":"m 387 -17 q 170 50 248 -17 q 87 237 92 116 l 201 237 q 254 126 205 165 q 387 87 302 87 q 524 129 475 87 q 572 245 572 171 q 539 344 572 308 q 431 397 505 380 l 334 421 q 163 511 217 449 q 109 679 109 573 q 142 814 109 757 q 237 902 175 871 q 385 933 300 933 q 528 904 467 933 q 624 822 590 876 q 661 694 659 768 l 547 694 q 499 794 542 760 q 383 829 457 829 q 265 790 307 829 q 222 679 222 750 q 256 581 222 616 q 364 528 289 545 l 461 504 q 632 414 578 476 q 686 245 686 352 q 651 104 686 163 q 548 14 615 45 q 387 -17 481 -17 m 306 -342 q 375 -308 353 -326 q 403 -256 397 -289 q 376 -261 392 -261 q 325 -240 347 -261 q 302 -184 302 -219 q 327 -124 302 -148 q 389 -100 351 -100 q 455 -129 430 -100 q 479 -207 479 -158 q 461 -285 479 -248 q 407 -351 442 -323 q 323 -392 372 -379 l 306 -342 z "},"ẞ":{"ha":778,"x_min":103,"x_max":736,"o":"m 496 -17 q 412 -10 453 -17 q 339 11 371 -3 l 367 114 q 490 87 421 87 q 587 111 553 87 q 621 182 621 134 q 609 229 621 210 q 578 263 597 249 q 524 297 558 278 q 456 341 484 319 q 408 399 428 363 q 389 486 389 435 q 430 613 389 558 q 554 707 471 667 q 498 799 539 768 q 387 829 457 829 q 214 633 214 829 l 214 0 l 103 0 l 103 647 q 176 860 103 787 q 387 933 249 933 q 594 865 520 933 q 672 665 667 796 q 549 597 595 642 q 504 497 504 553 q 516 448 504 469 q 548 414 529 428 q 602 382 568 401 q 674 334 647 356 q 719 276 701 312 q 736 187 736 241 q 674 35 736 87 q 496 -17 613 -17 z "},"T":{"ha":778,"x_min":69,"x_max":708,"o":"m 334 817 l 69 817 l 69 917 l 708 917 l 708 817 l 444 817 l 444 0 l 334 0 l 334 817 z "},"Ŧ":{"ha":778,"x_min":69,"x_max":708,"o":"m 334 408 l 172 408 l 172 509 l 334 509 l 334 817 l 69 817 l 69 917 l 708 917 l 708 817 l 444 817 l 444 509 l 606 509 l 606 408 l 444 408 l 444 0 l 334 0 l 334 408 z "},"Ť":{"ha":778,"x_min":69,"x_max":708,"o":"m 334 817 l 69 817 l 69 917 l 708 917 l 708 817 l 444 817 l 444 0 l 334 0 l 334 817 m 160 1252 l 268 1252 l 389 1110 l 510 1252 l 618 1252 l 444 1032 l 334 1032 l 160 1252 z "},"Ţ":{"ha":778,"x_min":69,"x_max":708,"o":"m 428 0 l 397 -110 l 401 -110 q 503 -135 467 -110 q 539 -208 539 -159 q 497 -292 539 -262 q 375 -322 454 -322 q 297 -314 334 -322 q 236 -293 260 -307 l 258 -229 q 304 -247 277 -241 q 359 -253 332 -253 q 418 -241 397 -253 q 439 -205 439 -229 q 421 -173 439 -183 q 364 -163 403 -163 l 307 -163 l 353 0 l 334 0 l 334 817 l 69 817 l 69 917 l 708 917 l 708 817 l 444 817 l 444 0 l 428 0 z "},"Ț":{"ha":778,"x_min":69,"x_max":708,"o":"m 334 817 l 69 817 l 69 917 l 708 917 l 708 817 l 444 817 l 444 0 l 334 0 l 334 817 m 306 -342 q 375 -308 353 -326 q 403 -256 397 -289 q 376 -261 392 -261 q 325 -240 347 -261 q 302 -184 302 -219 q 327 -124 302 -148 q 389 -100 351 -100 q 455 -129 430 -100 q 479 -207 479 -158 q 461 -285 479 -248 q 407 -351 442 -323 q 323 -392 372 -379 l 306 -342 z "},"U":{"ha":778,"x_min":102,"x_max":676,"o":"m 389 -17 q 173 57 243 -17 q 102 281 102 130 l 102 917 l 212 917 l 212 294 q 255 137 212 186 q 389 87 297 87 q 526 137 483 87 q 570 294 570 186 l 570 917 l 676 917 l 676 281 q 605 57 676 130 q 389 -17 534 -17 z "},"Ú":{"ha":778,"x_min":102,"x_max":676,"o":"m 389 -17 q 173 57 243 -17 q 102 281 102 130 l 102 917 l 212 917 l 212 294 q 255 137 212 186 q 389 87 297 87 q 526 137 483 87 q 570 294 570 186 l 570 917 l 676 917 l 676 281 q 605 57 676 130 q 389 -17 534 -17 m 454 1252 l 591 1252 l 400 1032 l 292 1032 l 454 1252 z "},"Ŭ":{"ha":778,"x_min":102,"x_max":676,"o":"m 389 -17 q 173 57 243 -17 q 102 281 102 130 l 102 917 l 212 917 l 212 294 q 255 137 212 186 q 389 87 297 87 q 526 137 483 87 q 570 294 570 186 l 570 917 l 676 917 l 676 281 q 605 57 676 130 q 389 -17 534 -17 m 389 1032 q 244 1086 297 1032 q 182 1239 191 1141 l 271 1239 q 307 1156 278 1183 q 389 1128 336 1128 q 471 1156 442 1128 q 507 1239 500 1183 l 596 1239 q 534 1086 587 1141 q 389 1032 481 1032 z "},"Û":{"ha":778,"x_min":102,"x_max":676,"o":"m 389 -17 q 173 57 243 -17 q 102 281 102 130 l 102 917 l 212 917 l 212 294 q 255 137 212 186 q 389 87 297 87 q 526 137 483 87 q 570 294 570 186 l 570 917 l 676 917 l 676 281 q 605 57 676 130 q 389 -17 534 -17 m 334 1252 l 444 1252 l 618 1032 l 510 1032 l 389 1174 l 268 1032 l 160 1032 l 334 1252 z "},"Ü":{"ha":778,"x_min":102,"x_max":676,"o":"m 389 -17 q 173 57 243 -17 q 102 281 102 130 l 102 917 l 212 917 l 212 294 q 255 137 212 186 q 389 87 297 87 q 526 137 483 87 q 570 294 570 186 l 570 917 l 676 917 l 676 281 q 605 57 676 130 q 389 -17 534 -17 m 250 1040 q 189 1065 214 1040 q 164 1126 164 1090 q 189 1188 164 1163 q 250 1213 214 1213 q 311 1188 286 1213 q 336 1126 336 1163 q 311 1065 336 1090 q 250 1040 286 1040 m 528 1040 q 467 1065 492 1040 q 441 1126 441 1090 q 467 1188 441 1163 q 528 1213 492 1213 q 589 1188 564 1213 q 614 1126 614 1163 q 589 1065 614 1090 q 528 1040 564 1040 z "},"Ù":{"ha":778,"x_min":102,"x_max":676,"o":"m 389 -17 q 173 57 243 -17 q 102 281 102 130 l 102 917 l 212 917 l 212 294 q 255 137 212 186 q 389 87 297 87 q 526 137 483 87 q 570 294 570 186 l 570 917 l 676 917 l 676 281 q 605 57 676 130 q 389 -17 534 -17 m 186 1252 l 323 1252 l 486 1032 l 378 1032 l 186 1252 z "},"Ű":{"ha":778,"x_min":102,"x_max":690,"o":"m 389 -17 q 173 57 243 -17 q 102 281 102 130 l 102 917 l 212 917 l 212 294 q 255 137 212 186 q 389 87 297 87 q 526 137 483 87 q 570 294 570 186 l 570 917 l 676 917 l 676 281 q 605 57 676 130 q 389 -17 534 -17 m 322 1252 l 447 1252 l 294 1032 l 195 1032 l 322 1252 m 566 1252 l 690 1252 l 538 1032 l 437 1032 l 566 1252 z "},"Ū":{"ha":778,"x_min":102,"x_max":676,"o":"m 389 -17 q 173 57 243 -17 q 102 281 102 130 l 102 917 l 212 917 l 212 294 q 255 137 212 186 q 389 87 297 87 q 526 137 483 87 q 570 294 570 186 l 570 917 l 676 917 l 676 281 q 605 57 676 130 q 389 -17 534 -17 m 193 1170 l 585 1170 l 585 1084 l 193 1084 l 193 1170 z "},"Ų":{"ha":778,"x_min":102,"x_max":676,"o":"m 676 917 l 676 281 q 636 97 676 167 q 513 1 595 28 q 419 -154 419 -80 q 440 -209 419 -191 q 496 -228 462 -228 q 553 -212 530 -228 l 553 -306 q 518 -318 536 -314 q 476 -322 500 -322 q 364 -285 406 -322 q 322 -184 322 -248 q 406 -19 322 -98 l 406 -17 l 389 -17 q 173 57 243 -17 q 102 281 102 130 l 102 917 l 212 917 l 212 294 q 255 137 212 186 q 389 87 297 87 q 526 137 483 87 q 570 294 570 186 l 570 917 l 676 917 z "},"Ů":{"ha":778,"x_min":102,"x_max":676,"o":"m 389 -17 q 173 57 243 -17 q 102 281 102 130 l 102 917 l 212 917 l 212 294 q 255 137 212 186 q 389 87 297 87 q 526 137 483 87 q 570 294 570 186 l 570 917 l 676 917 l 676 281 q 605 57 676 130 q 389 -17 534 -17 m 389 1024 q 311 1043 346 1024 q 257 1096 277 1063 q 237 1171 237 1130 q 257 1246 237 1213 q 311 1299 277 1280 q 389 1318 346 1318 q 466 1299 431 1318 q 520 1246 500 1280 q 541 1171 541 1213 q 520 1096 541 1130 q 466 1043 500 1063 q 389 1024 431 1024 m 389 1102 q 437 1122 418 1102 q 456 1171 456 1141 q 437 1221 456 1201 q 389 1240 418 1240 q 341 1221 359 1240 q 322 1171 322 1201 q 341 1122 322 1141 q 389 1102 359 1102 z "},"Ũ":{"ha":778,"x_min":102,"x_max":676,"o":"m 389 -17 q 173 57 243 -17 q 102 281 102 130 l 102 917 l 212 917 l 212 294 q 255 137 212 186 q 389 87 297 87 q 526 137 483 87 q 570 294 570 186 l 570 917 l 676 917 l 676 281 q 605 57 676 130 q 389 -17 534 -17 m 165 1032 q 202 1177 169 1126 q 300 1228 235 1228 q 351 1218 328 1228 q 411 1179 374 1207 q 453 1151 441 1158 q 478 1145 465 1145 q 514 1166 502 1145 q 529 1240 526 1188 l 612 1240 q 576 1096 609 1147 q 479 1045 543 1045 q 427 1056 450 1045 q 367 1093 404 1066 q 325 1121 337 1115 q 300 1128 313 1128 q 264 1106 276 1128 q 249 1032 252 1085 l 165 1032 z "},"V":{"ha":778,"x_min":69,"x_max":708,"o":"m 69 917 l 184 917 l 387 167 l 395 167 l 597 917 l 708 917 l 452 0 l 326 0 l 69 917 z "},"W":{"ha":778,"x_min":31,"x_max":747,"o":"m 31 917 l 134 917 l 221 201 l 225 201 l 346 917 l 436 917 l 557 201 l 561 201 l 648 917 l 747 917 l 623 0 l 505 0 l 392 675 l 386 675 l 272 0 l 155 0 l 31 917 z "},"Ẃ":{"ha":778,"x_min":31,"x_max":747,"o":"m 31 917 l 134 917 l 221 201 l 225 201 l 346 917 l 436 917 l 557 201 l 561 201 l 648 917 l 747 917 l 623 0 l 505 0 l 392 675 l 386 675 l 272 0 l 155 0 l 31 917 m 454 1252 l 591 1252 l 400 1032 l 292 1032 l 454 1252 z "},"Ŵ":{"ha":778,"x_min":31,"x_max":747,"o":"m 31 917 l 134 917 l 221 201 l 225 201 l 346 917 l 436 917 l 557 201 l 561 201 l 648 917 l 747 917 l 623 0 l 505 0 l 392 675 l 386 675 l 272 0 l 155 0 l 31 917 m 334 1252 l 444 1252 l 618 1032 l 510 1032 l 389 1174 l 268 1032 l 160 1032 l 334 1252 z "},"Ẅ":{"ha":778,"x_min":31,"x_max":747,"o":"m 31 917 l 134 917 l 221 201 l 225 201 l 346 917 l 436 917 l 557 201 l 561 201 l 648 917 l 747 917 l 623 0 l 505 0 l 392 675 l 386 675 l 272 0 l 155 0 l 31 917 m 250 1040 q 189 1065 214 1040 q 164 1126 164 1090 q 189 1188 164 1163 q 250 1213 214 1213 q 311 1188 286 1213 q 336 1126 336 1163 q 311 1065 336 1090 q 250 1040 286 1040 m 528 1040 q 467 1065 492 1040 q 441 1126 441 1090 q 467 1188 441 1163 q 528 1213 492 1213 q 589 1188 564 1213 q 614 1126 614 1163 q 589 1065 614 1090 q 528 1040 564 1040 z "},"Ẁ":{"ha":778,"x_min":31,"x_max":747,"o":"m 31 917 l 134 917 l 221 201 l 225 201 l 346 917 l 436 917 l 557 201 l 561 201 l 648 917 l 747 917 l 623 0 l 505 0 l 392 675 l 386 675 l 272 0 l 155 0 l 31 917 m 186 1252 l 323 1252 l 486 1032 l 378 1032 l 186 1252 z "},"X":{"ha":778,"x_min":60,"x_max":718,"o":"m 319 471 l 74 917 l 201 917 l 390 567 l 396 567 l 582 917 l 704 917 l 458 471 l 718 0 l 590 0 l 387 376 l 382 376 l 182 0 l 60 0 l 319 471 z "},"Y":{"ha":778,"x_min":60,"x_max":718,"o":"m 334 421 l 60 917 l 187 917 l 389 541 l 395 541 l 596 917 l 718 917 l 444 421 l 444 0 l 334 0 l 334 421 z "},"Ý":{"ha":778,"x_min":60,"x_max":718,"o":"m 334 421 l 60 917 l 187 917 l 389 541 l 395 541 l 596 917 l 718 917 l 444 421 l 444 0 l 334 0 l 334 421 m 454 1252 l 591 1252 l 400 1032 l 292 1032 l 454 1252 z "},"Ŷ":{"ha":778,"x_min":60,"x_max":718,"o":"m 334 421 l 60 917 l 187 917 l 389 541 l 395 541 l 596 917 l 718 917 l 444 421 l 444 0 l 334 0 l 334 421 m 334 1252 l 444 1252 l 618 1032 l 510 1032 l 389 1174 l 268 1032 l 160 1032 l 334 1252 z "},"Ÿ":{"ha":778,"x_min":60,"x_max":718,"o":"m 334 421 l 60 917 l 187 917 l 389 541 l 395 541 l 596 917 l 718 917 l 444 421 l 444 0 l 334 0 l 334 421 m 250 1040 q 189 1065 214 1040 q 164 1126 164 1090 q 189 1188 164 1163 q 250 1213 214 1213 q 311 1188 286 1213 q 336 1126 336 1163 q 311 1065 336 1090 q 250 1040 286 1040 m 528 1040 q 467 1065 492 1040 q 441 1126 441 1090 q 467 1188 441 1163 q 528 1213 492 1213 q 589 1188 564 1213 q 614 1126 614 1163 q 589 1065 614 1090 q 528 1040 564 1040 z "},"Ỳ":{"ha":778,"x_min":60,"x_max":718,"o":"m 334 421 l 60 917 l 187 917 l 389 541 l 395 541 l 596 917 l 718 917 l 444 421 l 444 0 l 334 0 l 334 421 m 186 1252 l 323 1252 l 486 1032 l 378 1032 l 186 1252 z "},"Z":{"ha":778,"x_min":96,"x_max":681,"o":"m 96 83 l 543 817 l 117 817 l 117 917 l 681 917 l 681 833 l 233 100 l 681 100 l 681 0 l 96 0 l 96 83 z "},"Ź":{"ha":778,"x_min":96,"x_max":681,"o":"m 96 83 l 543 817 l 117 817 l 117 917 l 681 917 l 681 833 l 233 100 l 681 100 l 681 0 l 96 0 l 96 83 m 465 1252 l 602 1252 l 410 1032 l 302 1032 l 465 1252 z "},"Ž":{"ha":778,"x_min":96,"x_max":681,"o":"m 96 83 l 543 817 l 117 817 l 117 917 l 681 917 l 681 833 l 233 100 l 681 100 l 681 0 l 96 0 l 96 83 m 170 1252 l 278 1252 l 399 1110 l 520 1252 l 628 1252 l 454 1032 l 344 1032 l 170 1252 z "},"Ż":{"ha":778,"x_min":96,"x_max":681,"o":"m 96 83 l 543 817 l 117 817 l 117 917 l 681 917 l 681 833 l 233 100 l 681 100 l 681 0 l 96 0 l 96 83 m 399 1032 q 332 1059 359 1032 q 304 1126 304 1086 q 332 1194 304 1167 q 399 1221 359 1221 q 467 1194 439 1221 q 494 1126 494 1167 q 467 1059 494 1086 q 399 1032 439 1032 z "},"a":{"ha":778,"x_min":87,"x_max":650,"o":"m 307 -17 q 191 8 240 -17 q 114 78 141 33 q 87 186 87 124 q 155 336 87 284 q 351 387 223 387 l 542 387 l 542 439 q 500 555 542 516 q 378 595 459 595 q 272 569 311 595 q 221 493 233 543 l 111 493 q 192 644 124 593 q 380 694 260 694 q 582 632 513 694 q 650 446 650 569 l 650 0 l 554 0 l 547 115 l 542 115 q 448 18 509 53 q 307 -17 387 -17 m 329 83 q 437 110 389 83 q 514 181 486 136 q 542 281 542 226 l 542 294 l 351 294 q 239 267 278 294 q 200 187 200 239 q 234 111 200 138 q 329 83 268 83 z "},"á":{"ha":778,"x_min":87,"x_max":650,"o":"m 307 -17 q 191 8 240 -17 q 114 78 141 33 q 87 186 87 124 q 155 336 87 284 q 351 387 223 387 l 542 387 l 542 439 q 500 555 542 516 q 378 595 459 595 q 272 569 311 595 q 221 493 233 543 l 111 493 q 192 644 124 593 q 380 694 260 694 q 582 632 513 694 q 650 446 650 569 l 650 0 l 554 0 l 547 115 l 542 115 q 448 18 509 53 q 307 -17 387 -17 m 329 83 q 437 110 389 83 q 514 181 486 136 q 542 281 542 226 l 542 294 l 351 294 q 239 267 278 294 q 200 187 200 239 q 234 111 200 138 q 329 83 268 83 m 445 1034 l 582 1034 l 391 814 l 282 814 l 445 1034 z "},"ă":{"ha":778,"x_min":87,"x_max":650,"o":"m 307 -17 q 191 8 240 -17 q 114 78 141 33 q 87 186 87 124 q 155 336 87 284 q 351 387 223 387 l 542 387 l 542 439 q 500 555 542 516 q 378 595 459 595 q 272 569 311 595 q 221 493 233 543 l 111 493 q 192 644 124 593 q 380 694 260 694 q 582 632 513 694 q 650 446 650 569 l 650 0 l 554 0 l 547 115 l 542 115 q 448 18 509 53 q 307 -17 387 -17 m 329 83 q 437 110 389 83 q 514 181 486 136 q 542 281 542 226 l 542 294 l 351 294 q 239 267 278 294 q 200 187 200 239 q 234 111 200 138 q 329 83 268 83 m 379 814 q 234 868 288 814 q 172 1021 181 922 l 261 1021 q 297 937 269 965 q 379 909 326 909 q 461 937 433 909 q 498 1021 490 965 l 587 1021 q 525 868 578 922 q 379 814 471 814 z "},"â":{"ha":778,"x_min":87,"x_max":650,"o":"m 307 -17 q 191 8 240 -17 q 114 78 141 33 q 87 186 87 124 q 155 336 87 284 q 351 387 223 387 l 542 387 l 542 439 q 500 555 542 516 q 378 595 459 595 q 272 569 311 595 q 221 493 233 543 l 111 493 q 192 644 124 593 q 380 694 260 694 q 582 632 513 694 q 650 446 650 569 l 650 0 l 554 0 l 547 115 l 542 115 q 448 18 509 53 q 307 -17 387 -17 m 329 83 q 437 110 389 83 q 514 181 486 136 q 542 281 542 226 l 542 294 l 351 294 q 239 267 278 294 q 200 187 200 239 q 234 111 200 138 q 329 83 268 83 m 324 1034 l 435 1034 l 608 814 l 500 814 l 379 956 l 258 814 l 151 814 l 324 1034 z "},"ä":{"ha":778,"x_min":87,"x_max":650,"o":"m 307 -17 q 191 8 240 -17 q 114 78 141 33 q 87 186 87 124 q 155 336 87 284 q 351 387 223 387 l 542 387 l 542 439 q 500 555 542 516 q 378 595 459 595 q 272 569 311 595 q 221 493 233 543 l 111 493 q 192 644 124 593 q 380 694 260 694 q 582 632 513 694 q 650 446 650 569 l 650 0 l 554 0 l 547 115 l 542 115 q 448 18 509 53 q 307 -17 387 -17 m 329 83 q 437 110 389 83 q 514 181 486 136 q 542 281 542 226 l 542 294 l 351 294 q 239 267 278 294 q 200 187 200 239 q 234 111 200 138 q 329 83 268 83 m 241 822 q 179 847 204 822 q 155 908 155 872 q 179 969 155 945 q 241 994 204 994 q 302 969 277 994 q 327 908 327 945 q 302 847 327 872 q 241 822 277 822 m 518 822 q 457 847 482 822 q 432 908 432 872 q 457 969 432 945 q 518 994 482 994 q 579 969 555 994 q 604 908 604 945 q 579 847 604 872 q 518 822 555 822 z "},"à":{"ha":778,"x_min":87,"x_max":650,"o":"m 307 -17 q 191 8 240 -17 q 114 78 141 33 q 87 186 87 124 q 155 336 87 284 q 351 387 223 387 l 542 387 l 542 439 q 500 555 542 516 q 378 595 459 595 q 272 569 311 595 q 221 493 233 543 l 111 493 q 192 644 124 593 q 380 694 260 694 q 582 632 513 694 q 650 446 650 569 l 650 0 l 554 0 l 547 115 l 542 115 q 448 18 509 53 q 307 -17 387 -17 m 329 83 q 437 110 389 83 q 514 181 486 136 q 542 281 542 226 l 542 294 l 351 294 q 239 267 278 294 q 200 187 200 239 q 234 111 200 138 q 329 83 268 83 m 176 1034 l 314 1034 l 477 814 l 368 814 l 176 1034 z "},"ā":{"ha":778,"x_min":87,"x_max":650,"o":"m 307 -17 q 191 8 240 -17 q 114 78 141 33 q 87 186 87 124 q 155 336 87 284 q 351 387 223 387 l 542 387 l 542 439 q 500 555 542 516 q 378 595 459 595 q 272 569 311 595 q 221 493 233 543 l 111 493 q 192 644 124 593 q 380 694 260 694 q 582 632 513 694 q 650 446 650 569 l 650 0 l 554 0 l 547 115 l 542 115 q 448 18 509 53 q 307 -17 387 -17 m 329 83 q 437 110 389 83 q 514 181 486 136 q 542 281 542 226 l 542 294 l 351 294 q 239 267 278 294 q 200 187 200 239 q 234 111 200 138 q 329 83 268 83 m 184 951 l 575 951 l 575 865 l 184 865 l 184 951 z "},"ą":{"ha":778,"x_min":87,"x_max":650,"o":"m 307 -17 q 191 8 240 -17 q 114 78 141 33 q 87 186 87 124 q 155 336 87 284 q 351 387 223 387 l 542 387 l 542 439 q 500 555 542 516 q 378 595 459 595 q 272 569 311 595 q 221 493 233 543 l 111 493 q 192 644 124 593 q 380 694 260 694 q 582 632 513 694 q 650 446 650 569 l 650 0 l 554 0 l 547 115 l 542 115 q 448 18 509 53 q 307 -17 387 -17 m 329 83 q 437 110 389 83 q 514 181 486 136 q 542 281 542 226 l 542 294 l 351 294 q 239 267 278 294 q 200 187 200 239 q 234 111 200 138 q 329 83 268 83 m 573 -322 q 461 -285 503 -322 q 419 -184 419 -248 q 458 -69 419 -125 q 581 43 498 -14 l 611 1 q 516 -154 516 -79 q 537 -209 516 -191 q 593 -228 559 -228 q 650 -212 627 -228 l 650 -306 q 615 -318 633 -314 q 573 -322 597 -322 z "},"å":{"ha":778,"x_min":87,"x_max":650,"o":"m 307 -17 q 191 8 240 -17 q 114 78 141 33 q 87 186 87 124 q 155 336 87 284 q 351 387 223 387 l 542 387 l 542 439 q 500 555 542 516 q 378 595 459 595 q 272 569 311 595 q 221 493 233 543 l 111 493 q 192 644 124 593 q 380 694 260 694 q 582 632 513 694 q 650 446 650 569 l 650 0 l 554 0 l 547 115 l 542 115 q 448 18 509 53 q 307 -17 387 -17 m 329 83 q 437 110 389 83 q 514 181 486 136 q 542 281 542 226 l 542 294 l 351 294 q 239 267 278 294 q 200 187 200 239 q 234 111 200 138 q 329 83 268 83 m 379 806 q 302 825 336 806 q 248 878 267 844 q 228 953 228 911 q 248 1028 228 994 q 302 1081 267 1061 q 379 1100 336 1100 q 456 1081 422 1100 q 511 1028 491 1061 q 531 953 531 994 q 511 878 531 911 q 456 825 491 844 q 379 806 422 806 m 379 884 q 427 903 408 884 q 446 953 446 923 q 427 1002 446 983 q 379 1022 408 1022 q 331 1002 350 1022 q 313 953 313 983 q 331 903 313 923 q 379 884 350 884 z "},"ã":{"ha":778,"x_min":87,"x_max":650,"o":"m 307 -17 q 191 8 240 -17 q 114 78 141 33 q 87 186 87 124 q 155 336 87 284 q 351 387 223 387 l 542 387 l 542 439 q 500 555 542 516 q 378 595 459 595 q 272 569 311 595 q 221 493 233 543 l 111 493 q 192 644 124 593 q 380 694 260 694 q 582 632 513 694 q 650 446 650 569 l 650 0 l 554 0 l 547 115 l 542 115 q 448 18 509 53 q 307 -17 387 -17 m 329 83 q 437 110 389 83 q 514 181 486 136 q 542 281 542 226 l 542 294 l 351 294 q 239 267 278 294 q 200 187 200 239 q 234 111 200 138 q 329 83 268 83 m 156 814 q 192 959 159 907 q 290 1010 225 1010 q 341 999 318 1010 q 401 961 364 989 q 444 933 431 939 q 469 926 456 926 q 505 948 492 926 q 519 1022 517 970 l 603 1022 q 567 878 600 928 q 470 827 534 827 q 418 837 441 827 q 357 875 395 848 q 315 903 328 897 q 290 909 303 909 q 254 888 267 909 q 239 814 242 867 l 156 814 z "},"æ":{"ha":778,"x_min":14,"x_max":757,"o":"m 200 -17 q 101 7 144 -17 q 36 77 59 32 q 14 180 14 121 q 41 294 14 246 q 119 367 68 341 q 240 392 170 392 l 332 392 l 332 439 q 307 562 332 523 q 229 600 283 600 q 159 574 184 600 q 129 493 134 547 l 28 493 q 86 643 36 591 q 227 694 137 694 q 331 667 291 694 q 390 581 372 639 l 396 581 q 459 667 419 639 q 557 694 498 694 q 706 615 656 694 q 757 380 757 536 q 754 304 757 345 l 436 304 q 557 78 438 78 q 646 172 636 78 l 747 172 q 688 32 738 81 q 555 -17 637 -17 q 379 97 433 -17 l 374 97 q 305 12 349 41 q 200 -17 261 -17 m 650 392 q 622 550 648 499 q 543 600 596 600 q 464 550 490 600 q 436 392 438 499 l 650 392 m 216 78 q 303 128 275 78 q 332 279 332 178 l 332 304 l 240 304 q 153 272 184 304 q 121 183 121 239 q 146 105 121 133 q 216 78 172 78 z "},"ǽ":{"ha":778,"x_min":14,"x_max":757,"o":"m 200 -17 q 101 7 144 -17 q 36 77 59 32 q 14 180 14 121 q 41 294 14 246 q 119 367 68 341 q 240 392 170 392 l 332 392 l 332 439 q 307 562 332 523 q 229 600 283 600 q 159 574 184 600 q 129 493 134 547 l 28 493 q 86 643 36 591 q 227 694 137 694 q 331 667 291 694 q 390 581 372 639 l 396 581 q 459 667 419 639 q 557 694 498 694 q 706 615 656 694 q 757 380 757 536 q 754 304 757 345 l 436 304 q 557 78 438 78 q 646 172 636 78 l 747 172 q 688 32 738 81 q 555 -17 637 -17 q 379 97 433 -17 l 374 97 q 305 12 349 41 q 200 -17 261 -17 m 650 392 q 622 550 648 499 q 543 600 596 600 q 464 550 490 600 q 436 392 438 499 l 650 392 m 216 78 q 303 128 275 78 q 332 279 332 178 l 332 304 l 240 304 q 153 272 184 304 q 121 183 121 239 q 146 105 121 133 q 216 78 172 78 m 458 1034 l 595 1034 l 404 814 l 295 814 l 458 1034 z "},"b":{"ha":778,"x_min":115,"x_max":700,"o":"m 429 -17 q 301 17 353 -17 q 224 115 249 51 l 218 115 l 211 0 l 115 0 l 115 986 l 224 986 l 224 570 l 229 570 q 307 662 256 629 q 431 694 359 694 q 575 651 515 694 q 668 528 636 608 q 700 339 700 448 q 668 149 700 229 q 575 26 636 69 q 429 -17 515 -17 m 411 83 q 542 150 496 83 q 587 339 587 216 q 542 529 587 463 q 411 595 496 595 q 312 566 355 595 q 247 483 270 537 q 224 355 224 429 l 224 322 q 247 194 224 248 q 312 112 270 140 q 411 83 355 83 z "},"c":{"ha":778,"x_min":113,"x_max":689,"o":"m 407 -17 q 188 75 263 -17 q 113 339 113 166 q 188 603 113 512 q 407 694 263 694 q 592 636 521 694 q 688 468 664 578 l 572 468 q 512 563 553 530 q 407 595 470 595 q 271 530 317 595 q 225 339 225 465 q 271 148 225 213 q 407 83 317 83 q 512 116 470 83 q 572 211 553 148 l 689 211 q 593 42 665 100 q 407 -17 521 -17 z "},"ć":{"ha":778,"x_min":113,"x_max":689,"o":"m 407 -17 q 188 75 263 -17 q 113 339 113 166 q 188 603 113 512 q 407 694 263 694 q 592 636 521 694 q 688 468 664 578 l 572 468 q 512 563 553 530 q 407 595 470 595 q 271 530 317 595 q 225 339 225 465 q 271 148 225 213 q 407 83 317 83 q 512 116 470 83 q 572 211 553 148 l 689 211 q 593 42 665 100 q 407 -17 521 -17 m 466 1034 l 603 1034 l 412 814 l 303 814 l 466 1034 z "},"č":{"ha":778,"x_min":113,"x_max":689,"o":"m 407 -17 q 188 75 263 -17 q 113 339 113 166 q 188 603 113 512 q 407 694 263 694 q 592 636 521 694 q 688 468 664 578 l 572 468 q 512 563 553 530 q 407 595 470 595 q 271 530 317 595 q 225 339 225 465 q 271 148 225 213 q 407 83 317 83 q 512 116 470 83 q 572 211 553 148 l 689 211 q 593 42 665 100 q 407 -17 521 -17 m 172 1034 l 279 1034 l 400 892 l 522 1034 l 629 1034 l 456 814 l 345 814 l 172 1034 z "},"ç":{"ha":778,"x_min":113,"x_max":689,"o":"m 407 -17 q 188 75 263 -17 q 113 339 113 166 q 188 603 113 512 q 407 694 263 694 q 592 636 521 694 q 688 468 664 578 l 572 468 q 512 563 553 530 q 407 595 470 595 q 271 530 317 595 q 225 339 225 465 q 271 148 225 213 q 407 83 317 83 q 512 116 470 83 q 572 211 553 148 l 689 211 q 593 42 665 100 q 407 -17 521 -17 m 389 -322 q 311 -314 348 -322 q 250 -293 274 -307 l 273 -229 q 319 -247 292 -241 q 374 -253 346 -253 q 432 -241 412 -253 q 453 -205 453 -229 q 435 -173 453 -183 q 378 -163 417 -163 l 321 -163 l 380 0 l 454 0 l 416 -110 q 517 -135 481 -110 q 553 -208 553 -159 q 511 -292 553 -262 q 389 -322 469 -322 z "},"ĉ":{"ha":778,"x_min":113,"x_max":689,"o":"m 407 -17 q 188 75 263 -17 q 113 339 113 166 q 188 603 113 512 q 407 694 263 694 q 592 636 521 694 q 688 468 664 578 l 572 468 q 512 563 553 530 q 407 595 470 595 q 271 530 317 595 q 225 339 225 465 q 271 148 225 213 q 407 83 317 83 q 512 116 470 83 q 572 211 553 148 l 689 211 q 593 42 665 100 q 407 -17 521 -17 m 345 1034 l 456 1034 l 629 814 l 522 814 l 400 956 l 279 814 l 172 814 l 345 1034 z "},"ċ":{"ha":778,"x_min":113,"x_max":689,"o":"m 407 -17 q 188 75 263 -17 q 113 339 113 166 q 188 603 113 512 q 407 694 263 694 q 592 636 521 694 q 688 468 664 578 l 572 468 q 512 563 553 530 q 407 595 470 595 q 271 530 317 595 q 225 339 225 465 q 271 148 225 213 q 407 83 317 83 q 512 116 470 83 q 572 211 553 148 l 689 211 q 593 42 665 100 q 407 -17 521 -17 m 400 814 q 333 841 360 814 q 306 908 306 868 q 333 976 306 949 q 400 1003 360 1003 q 468 976 441 1003 q 495 908 495 949 q 468 841 495 868 q 400 814 441 814 z "},"d":{"ha":778,"x_min":78,"x_max":663,"o":"m 349 -17 q 202 26 263 -17 q 110 149 142 69 q 78 339 78 229 q 110 528 78 448 q 202 651 142 608 q 347 694 263 694 q 471 662 419 694 q 549 570 522 629 l 554 570 l 554 986 l 663 986 l 663 0 l 567 0 l 559 115 l 554 115 q 477 17 529 51 q 349 -17 425 -17 m 367 83 q 466 112 423 83 q 531 194 508 140 q 554 322 554 248 l 554 355 q 531 483 554 429 q 466 566 508 537 q 367 595 423 595 q 236 529 282 595 q 191 339 191 463 q 236 150 191 216 q 367 83 282 83 z "},"ð":{"ha":778,"x_min":86,"x_max":675,"o":"m 387 -17 q 228 22 296 -17 q 123 132 160 61 q 86 297 86 203 q 121 461 86 389 q 217 573 155 533 q 357 614 279 614 q 471 586 422 614 q 549 509 520 559 l 554 511 q 397 755 525 638 l 199 642 l 153 721 l 321 818 q 168 916 258 865 l 216 1003 q 416 873 333 939 l 545 947 l 590 868 l 489 810 q 629 601 584 713 q 675 351 675 488 q 601 77 675 171 q 387 -17 528 -17 m 380 83 q 476 110 435 83 q 540 185 517 136 q 562 298 562 234 q 540 412 562 363 q 476 487 517 460 q 380 514 435 514 q 285 487 326 514 q 221 412 243 460 q 199 298 199 363 q 221 186 199 235 q 285 110 243 137 q 380 83 326 83 z "},"ď":{"ha":778,"x_min":78,"x_max":883,"o":"m 349 -17 q 202 26 263 -17 q 110 149 142 69 q 78 339 78 229 q 110 528 78 448 q 202 651 142 608 q 347 694 263 694 q 471 662 419 694 q 549 570 522 629 l 554 570 l 554 986 l 663 986 l 663 0 l 567 0 l 559 115 l 554 115 q 477 17 529 51 q 349 -17 425 -17 m 772 986 l 883 986 l 817 656 l 744 656 l 772 986 m 367 83 q 466 112 423 83 q 531 194 508 140 q 554 322 554 248 l 554 355 q 531 483 554 429 q 466 566 508 537 q 367 595 423 595 q 236 529 282 595 q 191 339 191 463 q 236 150 191 216 q 367 83 282 83 z "},"đ":{"ha":778,"x_min":78,"x_max":764,"o":"m 764 789 l 663 789 l 663 0 l 567 0 l 559 115 l 554 115 q 477 17 529 51 q 349 -17 425 -17 q 202 26 263 -17 q 110 149 142 69 q 78 339 78 229 q 110 528 78 448 q 202 651 142 608 q 347 694 263 694 q 471 662 419 694 q 549 570 522 629 l 554 570 l 554 789 l 347 789 l 347 878 l 554 878 l 554 986 l 663 986 l 663 878 l 764 878 l 764 789 m 554 355 q 531 483 554 429 q 466 566 508 537 q 367 595 423 595 q 236 529 282 595 q 191 339 191 463 q 236 150 191 216 q 367 83 282 83 q 466 112 423 83 q 531 194 508 140 q 554 322 554 248 l 554 355 z "},"e":{"ha":778,"x_min":97,"x_max":689,"o":"m 401 -17 q 175 74 252 -17 q 97 340 97 165 q 173 604 97 513 q 393 694 249 694 q 613 604 538 694 q 689 340 689 513 q 688 311 689 321 l 210 311 q 403 83 220 83 q 559 172 517 83 l 681 172 q 581 32 651 81 q 401 -17 511 -17 m 574 403 q 517 546 562 498 q 393 595 471 595 q 270 546 315 595 q 212 403 224 498 l 574 403 z "},"é":{"ha":778,"x_min":97,"x_max":689,"o":"m 401 -17 q 175 74 252 -17 q 97 340 97 165 q 173 604 97 513 q 393 694 249 694 q 613 604 538 694 q 689 340 689 513 q 688 311 689 321 l 210 311 q 403 83 220 83 q 559 172 517 83 l 681 172 q 581 32 651 81 q 401 -17 511 -17 m 574 403 q 517 546 562 498 q 393 595 471 595 q 270 546 315 595 q 212 403 224 498 l 574 403 m 459 1034 l 596 1034 l 405 814 l 296 814 l 459 1034 z "},"ĕ":{"ha":778,"x_min":97,"x_max":689,"o":"m 401 -17 q 175 74 252 -17 q 97 340 97 165 q 173 604 97 513 q 393 694 249 694 q 613 604 538 694 q 689 340 689 513 q 688 311 689 321 l 210 311 q 403 83 220 83 q 559 172 517 83 l 681 172 q 581 32 651 81 q 401 -17 511 -17 m 574 403 q 517 546 562 498 q 393 595 471 595 q 270 546 315 595 q 212 403 224 498 l 574 403 m 393 814 q 249 868 302 814 q 186 1021 195 922 l 275 1021 q 312 937 283 965 q 393 909 340 909 q 476 937 447 909 q 512 1021 505 965 l 601 1021 q 539 868 592 922 q 393 814 486 814 z "},"ě":{"ha":778,"x_min":97,"x_max":689,"o":"m 401 -17 q 175 74 252 -17 q 97 340 97 165 q 173 604 97 513 q 393 694 249 694 q 613 604 538 694 q 689 340 689 513 q 688 311 689 321 l 210 311 q 403 83 220 83 q 559 172 517 83 l 681 172 q 581 32 651 81 q 401 -17 511 -17 m 574 403 q 517 546 562 498 q 393 595 471 595 q 270 546 315 595 q 212 403 224 498 l 574 403 m 165 1034 l 273 1034 l 393 892 l 515 1034 l 623 1034 l 449 814 l 338 814 l 165 1034 z "},"ê":{"ha":778,"x_min":97,"x_max":689,"o":"m 401 -17 q 175 74 252 -17 q 97 340 97 165 q 173 604 97 513 q 393 694 249 694 q 613 604 538 694 q 689 340 689 513 q 688 311 689 321 l 210 311 q 403 83 220 83 q 559 172 517 83 l 681 172 q 581 32 651 81 q 401 -17 511 -17 m 574 403 q 517 546 562 498 q 393 595 471 595 q 270 546 315 595 q 212 403 224 498 l 574 403 m 338 1034 l 449 1034 l 623 814 l 515 814 l 393 956 l 273 814 l 165 814 l 338 1034 z "},"ë":{"ha":778,"x_min":97,"x_max":689,"o":"m 401 -17 q 175 74 252 -17 q 97 340 97 165 q 173 604 97 513 q 393 694 249 694 q 613 604 538 694 q 689 340 689 513 q 688 311 689 321 l 210 311 q 403 83 220 83 q 559 172 517 83 l 681 172 q 581 32 651 81 q 401 -17 511 -17 m 574 403 q 517 546 562 498 q 393 595 471 595 q 270 546 315 595 q 212 403 224 498 l 574 403 m 255 822 q 194 847 218 822 q 169 908 169 872 q 194 969 169 945 q 255 994 218 994 q 316 969 291 994 q 341 908 341 945 q 316 847 341 872 q 255 822 291 822 m 532 822 q 471 847 496 822 q 446 908 446 872 q 471 969 446 945 q 532 994 496 994 q 594 969 569 994 q 618 908 618 945 q 594 847 618 872 q 532 822 569 822 z "},"ė":{"ha":778,"x_min":97,"x_max":689,"o":"m 401 -17 q 175 74 252 -17 q 97 340 97 165 q 173 604 97 513 q 393 694 249 694 q 613 604 538 694 q 689 340 689 513 q 688 311 689 321 l 210 311 q 403 83 220 83 q 559 172 517 83 l 681 172 q 581 32 651 81 q 401 -17 511 -17 m 574 403 q 517 546 562 498 q 393 595 471 595 q 270 546 315 595 q 212 403 224 498 l 574 403 m 393 814 q 326 841 353 814 q 299 908 299 868 q 326 976 299 949 q 393 1003 353 1003 q 461 976 434 1003 q 488 908 488 949 q 461 841 488 868 q 393 814 434 814 z "},"è":{"ha":778,"x_min":97,"x_max":689,"o":"m 401 -17 q 175 74 252 -17 q 97 340 97 165 q 173 604 97 513 q 393 694 249 694 q 613 604 538 694 q 689 340 689 513 q 688 311 689 321 l 210 311 q 403 83 220 83 q 559 172 517 83 l 681 172 q 581 32 651 81 q 401 -17 511 -17 m 574 403 q 517 546 562 498 q 393 595 471 595 q 270 546 315 595 q 212 403 224 498 l 574 403 m 191 1034 l 328 1034 l 491 814 l 382 814 l 191 1034 z "},"ē":{"ha":778,"x_min":97,"x_max":689,"o":"m 401 -17 q 175 74 252 -17 q 97 340 97 165 q 173 604 97 513 q 393 694 249 694 q 613 604 538 694 q 689 340 689 513 q 688 311 689 321 l 210 311 q 403 83 220 83 q 559 172 517 83 l 681 172 q 581 32 651 81 q 401 -17 511 -17 m 574 403 q 517 546 562 498 q 393 595 471 595 q 270 546 315 595 q 212 403 224 498 l 574 403 m 198 951 l 589 951 l 589 865 l 198 865 l 198 951 z "},"ę":{"ha":778,"x_min":97,"x_max":689,"o":"m 689 340 q 688 311 689 321 l 210 311 q 403 83 220 83 q 559 172 517 83 l 681 172 q 597 44 654 92 q 527 -58 549 -13 q 504 -147 504 -103 q 581 -228 504 -228 q 637 -212 614 -228 l 637 -306 q 603 -318 621 -314 q 561 -322 585 -322 q 448 -285 490 -322 q 407 -180 407 -248 q 425 -97 407 -138 q 479 -12 443 -56 l 479 -9 q 401 -17 442 -17 q 175 74 252 -17 q 97 340 97 165 q 173 604 97 513 q 393 694 249 694 q 613 604 538 694 q 689 340 689 513 m 574 403 q 517 546 562 498 q 393 595 471 595 q 270 546 315 595 q 212 403 224 498 l 574 403 z "},"f":{"ha":778,"x_min":94,"x_max":732,"o":"m 268 541 l 94 541 l 94 636 l 268 636 l 268 771 q 328 943 268 882 q 501 1003 389 1003 q 662 952 602 1003 q 732 808 722 902 l 625 808 q 503 903 606 903 q 408 866 439 903 q 376 757 376 830 l 376 636 l 684 636 l 684 541 l 376 541 l 376 0 l 268 0 l 268 541 z "},"g":{"ha":778,"x_min":77,"x_max":772,"o":"m 392 -322 q 155 -273 234 -322 q 77 -127 77 -224 q 201 31 77 -7 l 201 36 q 135 77 159 48 q 111 149 111 106 q 135 225 111 191 q 201 281 158 260 l 201 286 q 133 360 157 314 q 110 468 110 406 q 141 590 110 539 q 233 668 173 641 q 378 694 294 694 q 536 661 472 694 l 541 663 q 606 758 557 724 q 730 791 656 791 l 772 791 l 772 685 l 720 685 q 589 623 625 685 q 646 468 646 566 q 614 346 646 397 q 522 268 583 295 q 378 241 462 241 q 271 256 315 241 q 230 221 244 241 q 215 174 215 200 q 236 125 215 142 q 293 109 256 109 l 449 109 q 657 57 589 109 q 726 -97 726 6 q 643 -267 726 -211 q 392 -322 559 -322 m 378 340 q 495 374 453 340 q 536 468 536 408 q 495 562 536 528 q 378 596 453 596 q 261 562 303 596 q 220 468 220 528 q 261 374 220 408 q 378 340 303 340 m 396 -224 q 615 -98 615 -224 q 571 -16 615 -42 q 432 9 528 9 l 372 9 q 235 -20 283 9 q 187 -107 187 -50 q 239 -195 187 -165 q 396 -224 290 -224 z "},"ğ":{"ha":778,"x_min":77,"x_max":772,"o":"m 392 -322 q 155 -273 234 -322 q 77 -127 77 -224 q 201 31 77 -7 l 201 36 q 135 77 159 48 q 111 149 111 106 q 135 225 111 191 q 201 281 158 260 l 201 286 q 133 360 157 314 q 110 468 110 406 q 141 590 110 539 q 233 668 173 641 q 378 694 294 694 q 536 661 472 694 l 541 663 q 606 758 557 724 q 730 791 656 791 l 772 791 l 772 685 l 720 685 q 589 623 625 685 q 646 468 646 566 q 614 346 646 397 q 522 268 583 295 q 378 241 462 241 q 271 256 315 241 q 230 221 244 241 q 215 174 215 200 q 236 125 215 142 q 293 109 256 109 l 449 109 q 657 57 589 109 q 726 -97 726 6 q 643 -267 726 -211 q 392 -322 559 -322 m 378 340 q 495 374 453 340 q 536 468 536 408 q 495 562 536 528 q 378 596 453 596 q 261 562 303 596 q 220 468 220 528 q 261 374 220 408 q 378 340 303 340 m 396 -224 q 615 -98 615 -224 q 571 -16 615 -42 q 432 9 528 9 l 372 9 q 235 -20 283 9 q 187 -107 187 -50 q 239 -195 187 -165 q 396 -224 290 -224 m 367 814 q 222 868 275 814 q 160 1021 169 922 l 249 1021 q 285 937 256 965 q 367 909 314 909 q 449 937 420 909 q 486 1021 478 965 l 574 1021 q 512 868 566 922 q 367 814 459 814 z "},"ĝ":{"ha":778,"x_min":77,"x_max":772,"o":"m 392 -322 q 155 -273 234 -322 q 77 -127 77 -224 q 201 31 77 -7 l 201 36 q 135 77 159 48 q 111 149 111 106 q 135 225 111 191 q 201 281 158 260 l 201 286 q 133 360 157 314 q 110 468 110 406 q 141 590 110 539 q 233 668 173 641 q 378 694 294 694 q 536 661 472 694 l 541 663 q 606 758 557 724 q 730 791 656 791 l 772 791 l 772 685 l 720 685 q 589 623 625 685 q 646 468 646 566 q 614 346 646 397 q 522 268 583 295 q 378 241 462 241 q 271 256 315 241 q 230 221 244 241 q 215 174 215 200 q 236 125 215 142 q 293 109 256 109 l 449 109 q 657 57 589 109 q 726 -97 726 6 q 643 -267 726 -211 q 392 -322 559 -322 m 378 340 q 495 374 453 340 q 536 468 536 408 q 495 562 536 528 q 378 596 453 596 q 261 562 303 596 q 220 468 220 528 q 261 374 220 408 q 378 340 303 340 m 396 -224 q 615 -98 615 -224 q 571 -16 615 -42 q 432 9 528 9 l 372 9 q 235 -20 283 9 q 187 -107 187 -50 q 239 -195 187 -165 q 396 -224 290 -224 m 312 1034 l 422 1034 l 596 814 l 488 814 l 367 956 l 246 814 l 138 814 l 312 1034 z "},"ģ":{"ha":778,"x_min":77,"x_max":772,"o":"m 392 -322 q 155 -273 234 -322 q 77 -127 77 -224 q 201 31 77 -7 l 201 36 q 135 77 159 48 q 111 149 111 106 q 135 225 111 191 q 201 281 158 260 l 201 286 q 133 360 157 314 q 110 468 110 406 q 141 590 110 539 q 233 668 173 641 q 378 694 294 694 q 536 661 472 694 l 541 663 q 606 758 557 724 q 730 791 656 791 l 772 791 l 772 685 l 720 685 q 589 623 625 685 q 646 468 646 566 q 614 346 646 397 q 522 268 583 295 q 378 241 462 241 q 271 256 315 241 q 230 221 244 241 q 215 174 215 200 q 236 125 215 142 q 293 109 256 109 l 449 109 q 657 57 589 109 q 726 -97 726 6 q 643 -267 726 -211 q 392 -322 559 -322 m 378 340 q 495 374 453 340 q 536 468 536 408 q 495 562 536 528 q 378 596 453 596 q 261 562 303 596 q 220 468 220 528 q 261 374 220 408 q 378 340 303 340 m 396 -224 q 615 -98 615 -224 q 571 -16 615 -42 q 432 9 528 9 l 372 9 q 235 -20 283 9 q 187 -107 187 -50 q 239 -195 187 -165 q 396 -224 290 -224 m 368 814 q 302 843 327 814 q 278 921 278 872 q 297 1003 278 964 q 351 1070 315 1042 q 434 1112 386 1099 l 452 1060 q 383 1025 405 1044 q 355 970 361 1006 q 381 975 366 975 q 433 955 411 975 q 454 899 454 934 q 430 838 454 862 q 368 814 406 814 z "},"ġ":{"ha":778,"x_min":77,"x_max":772,"o":"m 392 -322 q 155 -273 234 -322 q 77 -127 77 -224 q 201 31 77 -7 l 201 36 q 135 77 159 48 q 111 149 111 106 q 135 225 111 191 q 201 281 158 260 l 201 286 q 133 360 157 314 q 110 468 110 406 q 141 590 110 539 q 233 668 173 641 q 378 694 294 694 q 536 661 472 694 l 541 663 q 606 758 557 724 q 730 791 656 791 l 772 791 l 772 685 l 720 685 q 589 623 625 685 q 646 468 646 566 q 614 346 646 397 q 522 268 583 295 q 378 241 462 241 q 271 256 315 241 q 230 221 244 241 q 215 174 215 200 q 236 125 215 142 q 293 109 256 109 l 449 109 q 657 57 589 109 q 726 -97 726 6 q 643 -267 726 -211 q 392 -322 559 -322 m 378 340 q 495 374 453 340 q 536 468 536 408 q 495 562 536 528 q 378 596 453 596 q 261 562 303 596 q 220 468 220 528 q 261 374 220 408 q 378 340 303 340 m 396 -224 q 615 -98 615 -224 q 571 -16 615 -42 q 432 9 528 9 l 372 9 q 235 -20 283 9 q 187 -107 187 -50 q 239 -195 187 -165 q 396 -224 290 -224 m 367 814 q 300 841 327 814 q 273 908 273 868 q 300 976 273 949 q 367 1003 327 1003 q 435 976 408 1003 q 462 908 462 949 q 435 841 462 868 q 367 814 408 814 z "},"h":{"ha":778,"x_min":122,"x_max":667,"o":"m 122 986 l 231 986 l 231 570 l 236 570 q 319 662 266 630 q 447 694 373 694 q 610 628 554 694 q 667 436 667 562 l 667 0 l 558 0 l 558 432 q 524 554 558 513 q 421 595 489 595 q 322 569 366 595 q 255 496 279 543 q 231 392 231 450 l 231 0 l 122 0 l 122 986 z "},"ħ":{"ha":778,"x_min":14,"x_max":667,"o":"m 122 789 l 14 789 l 14 878 l 122 878 l 122 986 l 231 986 l 231 878 l 431 878 l 431 789 l 231 789 l 231 570 l 236 570 q 319 662 266 630 q 447 694 373 694 q 610 628 554 694 q 667 436 667 562 l 667 0 l 558 0 l 558 432 q 524 554 558 513 q 421 595 489 595 q 322 569 366 595 q 255 496 279 543 q 231 392 231 450 l 231 0 l 122 0 l 122 789 z "},"ĥ":{"ha":778,"x_min":-52,"x_max":667,"o":"m 122 986 l 231 986 l 231 570 l 236 570 q 319 662 266 630 q 447 694 373 694 q 610 628 554 694 q 667 436 667 562 l 667 0 l 558 0 l 558 432 q 524 554 558 513 q 421 595 489 595 q 322 569 366 595 q 255 496 279 543 q 231 392 231 450 l 231 0 l 122 0 l 122 986 m 121 1320 l 232 1320 l 406 1100 l 298 1100 l 176 1242 l 56 1100 l -52 1100 l 121 1320 z "},"i":{"ha":778,"x_min":122,"x_max":697,"o":"m 122 96 l 355 96 l 355 582 l 122 582 l 122 677 l 464 677 l 464 96 l 697 96 l 697 0 l 122 0 l 122 96 m 395 814 q 328 841 355 814 q 300 908 300 868 q 328 976 300 949 q 395 1003 355 1003 q 463 976 435 1003 q 490 908 490 949 q 463 841 490 868 q 395 814 435 814 z "},"ı":{"ha":778,"x_min":122,"x_max":697,"o":"m 122 96 l 355 96 l 355 582 l 122 582 l 122 677 l 464 677 l 464 96 l 697 96 l 697 0 l 122 0 l 122 96 z "},"í":{"ha":778,"x_min":122,"x_max":697,"o":"m 122 96 l 355 96 l 355 582 l 122 582 l 122 677 l 464 677 l 464 96 l 697 96 l 697 0 l 122 0 l 122 96 m 460 1034 l 597 1034 l 406 814 l 298 814 l 460 1034 z "},"ĭ":{"ha":778,"x_min":122,"x_max":697,"o":"m 122 96 l 355 96 l 355 582 l 122 582 l 122 677 l 464 677 l 464 96 l 697 96 l 697 0 l 122 0 l 122 96 m 395 814 q 250 868 303 814 q 188 1021 197 922 l 277 1021 q 313 937 284 965 q 395 909 342 909 q 477 937 448 909 q 513 1021 506 965 l 602 1021 q 540 868 593 922 q 395 814 487 814 z "},"î":{"ha":778,"x_min":122,"x_max":697,"o":"m 122 96 l 355 96 l 355 582 l 122 582 l 122 677 l 464 677 l 464 96 l 697 96 l 697 0 l 122 0 l 122 96 m 340 1034 l 450 1034 l 624 814 l 516 814 l 395 956 l 274 814 l 166 814 l 340 1034 z "},"ï":{"ha":778,"x_min":122,"x_max":697,"o":"m 122 96 l 355 96 l 355 582 l 122 582 l 122 677 l 464 677 l 464 96 l 697 96 l 697 0 l 122 0 l 122 96 m 256 822 q 195 847 220 822 q 170 908 170 872 q 195 969 170 945 q 256 994 220 994 q 317 969 292 994 q 342 908 342 945 q 317 847 342 872 q 256 822 292 822 m 534 822 q 473 847 498 822 q 448 908 448 872 q 473 969 448 945 q 534 994 498 994 q 595 969 570 994 q 620 908 620 945 q 595 847 620 872 q 534 822 570 822 z "},"ì":{"ha":778,"x_min":122,"x_max":697,"o":"m 122 96 l 355 96 l 355 582 l 122 582 l 122 677 l 464 677 l 464 96 l 697 96 l 697 0 l 122 0 l 122 96 m 192 1034 l 330 1034 l 492 814 l 384 814 l 192 1034 z "},"ī":{"ha":778,"x_min":122,"x_max":697,"o":"m 122 96 l 355 96 l 355 582 l 122 582 l 122 677 l 464 677 l 464 96 l 697 96 l 697 0 l 122 0 l 122 96 m 199 951 l 591 951 l 591 865 l 199 865 l 199 951 z "},"į":{"ha":778,"x_min":122,"x_max":697,"o":"m 394 814 q 327 841 354 814 q 300 908 300 868 q 327 976 300 949 q 394 1003 354 1003 q 462 976 435 1003 q 489 908 489 949 q 462 841 489 868 q 394 814 435 814 m 438 0 q 411 -74 420 -42 q 403 -136 403 -106 q 482 -228 403 -228 q 539 -212 515 -228 l 539 -306 q 505 -318 523 -314 q 463 -322 487 -322 q 350 -284 391 -322 q 309 -175 309 -246 q 325 -92 309 -134 q 375 -3 340 -50 l 375 0 l 122 0 l 122 96 l 355 96 l 355 582 l 122 582 l 122 677 l 464 677 l 464 96 l 697 96 l 697 0 l 438 0 z "},"ĩ":{"ha":778,"x_min":122,"x_max":697,"o":"m 122 96 l 355 96 l 355 582 l 122 582 l 122 677 l 464 677 l 464 96 l 697 96 l 697 0 l 122 0 l 122 96 m 172 814 q 208 959 175 907 q 306 1010 241 1010 q 357 999 334 1010 q 417 961 380 989 q 459 933 447 939 q 484 926 471 926 q 520 948 508 926 q 535 1022 532 970 l 618 1022 q 582 878 615 928 q 486 827 549 827 q 433 837 456 827 q 373 875 410 848 q 331 903 343 897 q 306 909 319 909 q 270 888 282 909 q 255 814 258 867 l 172 814 z "},"j":{"ha":778,"x_min":115,"x_max":606,"o":"m 349 -322 q 176 -262 236 -322 q 115 -90 115 -201 l 115 -54 l 221 -54 l 221 -77 q 347 -222 221 -222 q 472 -77 472 -222 l 472 582 l 147 582 l 147 677 l 581 677 l 581 -90 q 520 -262 581 -201 q 349 -322 460 -322 m 511 814 q 444 841 471 814 q 417 908 417 868 q 444 976 417 949 q 511 1003 471 1003 q 579 976 552 1003 q 606 908 606 949 q 579 841 606 868 q 511 814 552 814 z "},"ȷ":{"ha":778,"x_min":115,"x_max":581,"o":"m 349 -322 q 176 -262 236 -322 q 115 -90 115 -201 l 115 -54 l 221 -54 l 221 -77 q 347 -222 221 -222 q 472 -77 472 -222 l 472 582 l 147 582 l 147 677 l 581 677 l 581 -90 q 520 -262 581 -201 q 349 -322 460 -322 z "},"ĵ":{"ha":778,"x_min":115,"x_max":741,"o":"m 349 -322 q 176 -262 236 -322 q 115 -90 115 -201 l 115 -54 l 221 -54 l 221 -77 q 347 -222 221 -222 q 472 -77 472 -222 l 472 582 l 147 582 l 147 677 l 581 677 l 581 -90 q 520 -262 581 -201 q 349 -322 460 -322 m 456 1034 l 567 1034 l 741 814 l 633 814 l 511 956 l 391 814 l 283 814 l 456 1034 z "},"k":{"ha":778,"x_min":151,"x_max":720,"o":"m 151 986 l 260 986 l 260 375 l 265 375 l 555 677 l 700 677 l 397 368 l 720 0 l 578 0 l 265 358 l 260 358 l 260 0 l 151 0 l 151 986 z "},"ķ":{"ha":778,"x_min":151,"x_max":720,"o":"m 151 986 l 260 986 l 260 375 l 265 375 l 555 677 l 700 677 l 397 368 l 720 0 l 578 0 l 265 358 l 260 358 l 260 0 l 151 0 l 151 986 m 326 -342 q 394 -308 372 -326 q 422 -256 416 -289 q 396 -261 412 -261 q 344 -240 366 -261 q 322 -184 322 -219 q 346 -124 322 -148 q 408 -100 370 -100 q 474 -129 450 -100 q 499 -207 499 -158 q 480 -285 499 -248 q 427 -351 462 -323 q 343 -392 391 -379 l 326 -342 z "},"ĸ":{"ha":778,"x_min":151,"x_max":720,"o":"m 151 677 l 260 677 l 260 375 l 265 375 l 555 677 l 700 677 l 397 368 l 720 0 l 578 0 l 265 358 l 260 358 l 260 0 l 151 0 l 151 677 z "},"l":{"ha":778,"x_min":56,"x_max":694,"o":"m 461 -17 q 290 43 350 -17 q 229 215 229 104 l 229 890 l 56 890 l 56 986 l 338 986 l 338 229 q 463 83 338 83 q 589 229 589 83 l 589 279 l 694 279 l 694 215 q 634 43 694 104 q 461 -17 574 -17 z "},"ĺ":{"ha":778,"x_min":56,"x_max":694,"o":"m 461 -17 q 290 43 350 -17 q 229 215 229 104 l 229 890 l 56 890 l 56 986 l 338 986 l 338 229 q 463 83 338 83 q 589 229 589 83 l 589 279 l 694 279 l 694 215 q 634 43 694 104 q 461 -17 574 -17 m 349 1320 l 486 1320 l 295 1100 l 186 1100 l 349 1320 z "},"ľ":{"ha":778,"x_min":56,"x_max":694,"o":"m 461 -17 q 290 43 350 -17 q 229 215 229 104 l 229 890 l 56 890 l 56 986 l 338 986 l 338 229 q 463 83 338 83 q 589 229 589 83 l 589 279 l 694 279 l 694 215 q 634 43 694 104 q 461 -17 574 -17 m 500 986 l 611 986 l 545 656 l 472 656 l 500 986 z "},"ļ":{"ha":778,"x_min":56,"x_max":694,"o":"m 461 -17 q 290 43 350 -17 q 229 215 229 104 l 229 890 l 56 890 l 56 986 l 338 986 l 338 229 q 463 83 338 83 q 589 229 589 83 l 589 279 l 694 279 l 694 215 q 634 43 694 104 q 461 -17 574 -17 m 341 -342 q 410 -308 388 -326 q 438 -256 432 -289 q 412 -261 427 -261 q 360 -240 382 -261 q 338 -184 338 -219 q 362 -124 338 -148 q 424 -100 386 -100 q 490 -129 465 -100 q 515 -207 515 -158 q 496 -285 515 -248 q 442 -351 477 -323 q 359 -392 407 -379 l 341 -342 z "},"ŀ":{"ha":778,"x_min":56,"x_max":787,"o":"m 461 -17 q 290 43 350 -17 q 229 215 229 104 l 229 890 l 56 890 l 56 986 l 338 986 l 338 229 q 463 83 338 83 q 589 229 589 83 l 589 279 l 694 279 l 694 215 q 634 43 694 104 q 461 -17 574 -17 m 673 471 q 615 486 642 471 q 575 527 589 500 q 560 585 560 553 q 575 643 560 617 q 615 684 589 669 q 673 699 642 699 q 732 684 706 699 q 773 643 758 669 q 787 585 787 617 q 772 527 787 553 q 732 486 758 500 q 673 471 706 471 z "},"ł":{"ha":778,"x_min":56,"x_max":694,"o":"m 461 -17 q 290 43 350 -17 q 229 215 229 104 l 229 890 l 56 890 l 56 986 l 338 986 l 338 229 q 463 83 338 83 q 589 229 589 83 l 589 279 l 694 279 l 694 215 q 634 43 694 104 q 461 -17 574 -17 m 56 353 l 659 746 l 659 633 l 56 240 l 56 353 z "},"m":{"ha":778,"x_min":78,"x_max":705,"o":"m 78 677 l 161 677 l 167 595 l 172 595 q 301 694 206 694 q 379 670 349 694 q 422 595 409 646 l 428 595 q 567 694 464 694 q 671 644 637 694 q 705 489 705 594 l 705 0 l 604 0 l 604 490 q 587 569 604 543 q 533 595 570 595 q 463 558 488 595 q 437 457 437 521 l 437 0 l 346 0 l 346 490 q 275 595 346 595 q 204 558 230 595 q 179 457 179 522 l 179 0 l 78 0 l 78 677 z "},"n":{"ha":778,"x_min":122,"x_max":667,"o":"m 122 677 l 218 677 l 225 562 l 231 562 q 315 661 260 627 q 447 694 370 694 q 610 628 554 694 q 667 436 667 562 l 667 0 l 558 0 l 558 432 q 524 554 558 513 q 421 595 489 595 q 322 569 366 595 q 255 496 279 543 q 231 392 231 450 l 231 0 l 122 0 l 122 677 z "},"ń":{"ha":778,"x_min":122,"x_max":667,"o":"m 122 677 l 218 677 l 225 562 l 231 562 q 315 661 260 627 q 447 694 370 694 q 610 628 554 694 q 667 436 667 562 l 667 0 l 558 0 l 558 432 q 524 554 558 513 q 421 595 489 595 q 322 569 366 595 q 255 496 279 543 q 231 392 231 450 l 231 0 l 122 0 l 122 677 m 454 1034 l 591 1034 l 400 814 l 292 814 l 454 1034 z "},"ŉ":{"ha":778,"x_min":90,"x_max":667,"o":"m 122 677 l 218 677 l 225 562 l 231 562 q 315 661 260 627 q 447 694 370 694 q 610 628 554 694 q 667 436 667 562 l 667 0 l 558 0 l 558 432 q 524 554 558 513 q 421 595 489 595 q 322 569 366 595 q 255 496 279 543 q 231 392 231 450 l 231 0 l 122 0 l 122 677 m 94 827 q 162 854 140 836 q 191 908 184 871 q 164 904 178 904 q 112 923 134 904 q 90 974 90 942 q 114 1028 90 1006 q 176 1050 138 1050 q 243 1024 219 1050 q 267 953 267 998 q 249 875 267 911 q 195 813 230 839 q 111 779 159 788 l 94 827 z "},"ň":{"ha":778,"x_min":122,"x_max":667,"o":"m 122 677 l 218 677 l 225 562 l 231 562 q 315 661 260 627 q 447 694 370 694 q 610 628 554 694 q 667 436 667 562 l 667 0 l 558 0 l 558 432 q 524 554 558 513 q 421 595 489 595 q 322 569 366 595 q 255 496 279 543 q 231 392 231 450 l 231 0 l 122 0 l 122 677 m 160 1034 l 268 1034 l 389 892 l 510 1034 l 618 1034 l 444 814 l 334 814 l 160 1034 z "},"ņ":{"ha":778,"x_min":122,"x_max":667,"o":"m 122 677 l 218 677 l 225 562 l 231 562 q 315 661 260 627 q 447 694 370 694 q 610 628 554 694 q 667 436 667 562 l 667 0 l 558 0 l 558 432 q 524 554 558 513 q 421 595 489 595 q 322 569 366 595 q 255 496 279 543 q 231 392 231 450 l 231 0 l 122 0 l 122 677 m 312 -342 q 381 -308 359 -326 q 409 -256 403 -289 q 382 -261 398 -261 q 331 -240 353 -261 q 309 -184 309 -219 q 333 -124 309 -148 q 395 -100 357 -100 q 461 -129 436 -100 q 486 -207 486 -158 q 467 -285 486 -248 q 413 -351 448 -323 q 330 -392 378 -379 l 312 -342 z "},"ŋ":{"ha":778,"x_min":122,"x_max":667,"o":"m 366 -210 l 433 -210 q 558 -64 558 -210 l 558 432 q 524 554 558 513 q 421 595 489 595 q 322 569 366 595 q 255 496 279 543 q 231 392 231 450 l 231 0 l 122 0 l 122 677 l 218 677 l 225 562 l 231 562 q 315 661 260 627 q 447 694 370 694 q 610 628 554 694 q 667 436 667 562 l 667 -74 q 606 -245 667 -185 q 435 -306 546 -306 l 366 -306 l 366 -210 z "},"ñ":{"ha":778,"x_min":122,"x_max":667,"o":"m 122 677 l 218 677 l 225 562 l 231 562 q 315 661 260 627 q 447 694 370 694 q 610 628 554 694 q 667 436 667 562 l 667 0 l 558 0 l 558 432 q 524 554 558 513 q 421 595 489 595 q 322 569 366 595 q 255 496 279 543 q 231 392 231 450 l 231 0 l 122 0 l 122 677 m 165 814 q 202 959 169 907 q 300 1010 235 1010 q 351 999 328 1010 q 411 961 374 989 q 453 933 441 939 q 478 926 465 926 q 514 948 502 926 q 529 1022 526 970 l 612 1022 q 576 878 609 928 q 479 827 543 827 q 427 837 450 827 q 367 875 404 848 q 325 903 337 897 q 300 909 313 909 q 264 888 276 909 q 249 814 252 867 l 165 814 z "},"o":{"ha":778,"x_min":94,"x_max":684,"o":"m 389 -17 q 170 75 245 -17 q 94 339 94 166 q 170 603 94 512 q 389 694 245 694 q 608 603 532 694 q 684 339 684 512 q 608 75 684 166 q 389 -17 532 -17 m 389 83 q 525 148 479 83 q 571 339 571 213 q 525 530 571 465 q 389 595 479 595 q 253 530 299 595 q 207 339 207 465 q 253 148 207 213 q 389 83 299 83 z "},"ó":{"ha":778,"x_min":94,"x_max":684,"o":"m 389 -17 q 170 75 245 -17 q 94 339 94 166 q 170 603 94 512 q 389 694 245 694 q 608 603 532 694 q 684 339 684 512 q 608 75 684 166 q 389 -17 532 -17 m 389 83 q 525 148 479 83 q 571 339 571 213 q 525 530 571 465 q 389 595 479 595 q 253 530 299 595 q 207 339 207 465 q 253 148 207 213 q 389 83 299 83 m 454 1034 l 591 1034 l 400 814 l 292 814 l 454 1034 z "},"ŏ":{"ha":778,"x_min":94,"x_max":684,"o":"m 389 -17 q 170 75 245 -17 q 94 339 94 166 q 170 603 94 512 q 389 694 245 694 q 608 603 532 694 q 684 339 684 512 q 608 75 684 166 q 389 -17 532 -17 m 389 83 q 525 148 479 83 q 571 339 571 213 q 525 530 571 465 q 389 595 479 595 q 253 530 299 595 q 207 339 207 465 q 253 148 207 213 q 389 83 299 83 m 389 814 q 244 868 297 814 q 182 1021 191 922 l 271 1021 q 307 937 278 965 q 389 909 336 909 q 471 937 442 909 q 507 1021 500 965 l 596 1021 q 534 868 587 922 q 389 814 481 814 z "},"ô":{"ha":778,"x_min":94,"x_max":684,"o":"m 389 -17 q 170 75 245 -17 q 94 339 94 166 q 170 603 94 512 q 389 694 245 694 q 608 603 532 694 q 684 339 684 512 q 608 75 684 166 q 389 -17 532 -17 m 389 83 q 525 148 479 83 q 571 339 571 213 q 525 530 571 465 q 389 595 479 595 q 253 530 299 595 q 207 339 207 465 q 253 148 207 213 q 389 83 299 83 m 334 1034 l 444 1034 l 618 814 l 510 814 l 389 956 l 268 814 l 160 814 l 334 1034 z "},"ö":{"ha":778,"x_min":94,"x_max":684,"o":"m 389 -17 q 170 75 245 -17 q 94 339 94 166 q 170 603 94 512 q 389 694 245 694 q 608 603 532 694 q 684 339 684 512 q 608 75 684 166 q 389 -17 532 -17 m 389 83 q 525 148 479 83 q 571 339 571 213 q 525 530 571 465 q 389 595 479 595 q 253 530 299 595 q 207 339 207 465 q 253 148 207 213 q 389 83 299 83 m 250 822 q 189 847 214 822 q 164 908 164 872 q 189 969 164 945 q 250 994 214 994 q 311 969 286 994 q 336 908 336 945 q 311 847 336 872 q 250 822 286 822 m 528 822 q 467 847 492 822 q 441 908 441 872 q 467 969 441 945 q 528 994 492 994 q 589 969 564 994 q 614 908 614 945 q 589 847 614 872 q 528 822 564 822 z "},"ò":{"ha":778,"x_min":94,"x_max":684,"o":"m 389 -17 q 170 75 245 -17 q 94 339 94 166 q 170 603 94 512 q 389 694 245 694 q 608 603 532 694 q 684 339 684 512 q 608 75 684 166 q 389 -17 532 -17 m 389 83 q 525 148 479 83 q 571 339 571 213 q 525 530 571 465 q 389 595 479 595 q 253 530 299 595 q 207 339 207 465 q 253 148 207 213 q 389 83 299 83 m 186 1034 l 323 1034 l 486 814 l 378 814 l 186 1034 z "},"ő":{"ha":778,"x_min":94,"x_max":690,"o":"m 389 -17 q 170 75 245 -17 q 94 339 94 166 q 170 603 94 512 q 389 694 245 694 q 608 603 532 694 q 684 339 684 512 q 608 75 684 166 q 389 -17 532 -17 m 389 83 q 525 148 479 83 q 571 339 571 213 q 525 530 571 465 q 389 595 479 595 q 253 530 299 595 q 207 339 207 465 q 253 148 207 213 q 389 83 299 83 m 322 1034 l 447 1034 l 294 814 l 195 814 l 322 1034 m 566 1034 l 690 1034 l 538 814 l 437 814 l 566 1034 z "},"ō":{"ha":778,"x_min":94,"x_max":684,"o":"m 389 -17 q 170 75 245 -17 q 94 339 94 166 q 170 603 94 512 q 389 694 245 694 q 608 603 532 694 q 684 339 684 512 q 608 75 684 166 q 389 -17 532 -17 m 389 83 q 525 148 479 83 q 571 339 571 213 q 525 530 571 465 q 389 595 479 595 q 253 530 299 595 q 207 339 207 465 q 253 148 207 213 q 389 83 299 83 m 193 951 l 585 951 l 585 865 l 193 865 l 193 951 z "},"ø":{"ha":778,"x_min":66,"x_max":711,"o":"m 66 29 l 142 117 q 94 339 94 201 q 170 603 94 512 q 389 694 245 694 q 578 633 505 694 l 642 708 l 711 648 l 636 561 q 684 339 684 476 q 608 75 684 166 q 389 -17 532 -17 q 200 45 272 -17 l 136 -31 l 66 29 m 225 216 l 507 550 q 389 595 463 595 q 253 530 299 595 q 207 339 207 465 q 222 216 207 271 l 225 216 m 389 83 q 525 148 479 83 q 571 339 571 213 q 555 461 571 408 l 553 461 l 271 127 q 389 83 315 83 z "},"ǿ":{"ha":778,"x_min":66,"x_max":711,"o":"m 66 29 l 142 117 q 94 339 94 201 q 170 603 94 512 q 389 694 245 694 q 578 633 505 694 l 642 708 l 711 648 l 636 561 q 684 339 684 476 q 608 75 684 166 q 389 -17 532 -17 q 200 45 272 -17 l 136 -31 l 66 29 m 225 216 l 507 550 q 389 595 463 595 q 253 530 299 595 q 207 339 207 465 q 222 216 207 271 l 225 216 m 389 83 q 525 148 479 83 q 571 339 571 213 q 555 461 571 408 l 553 461 l 271 127 q 389 83 315 83 m 454 1034 l 591 1034 l 400 814 l 292 814 l 454 1034 z "},"õ":{"ha":778,"x_min":94,"x_max":684,"o":"m 389 -17 q 170 75 245 -17 q 94 339 94 166 q 170 603 94 512 q 389 694 245 694 q 608 603 532 694 q 684 339 684 512 q 608 75 684 166 q 389 -17 532 -17 m 389 83 q 525 148 479 83 q 571 339 571 213 q 525 530 571 465 q 389 595 479 595 q 253 530 299 595 q 207 339 207 465 q 253 148 207 213 q 389 83 299 83 m 165 814 q 202 959 169 907 q 300 1010 235 1010 q 351 999 328 1010 q 411 961 374 989 q 453 933 441 939 q 478 926 465 926 q 514 948 502 926 q 529 1022 526 970 l 612 1022 q 576 878 609 928 q 479 827 543 827 q 427 837 450 827 q 367 875 404 848 q 325 903 337 897 q 300 909 313 909 q 264 888 276 909 q 249 814 252 867 l 165 814 z "},"œ":{"ha":778,"x_min":18,"x_max":768,"o":"m 229 -17 q 70 70 121 -17 q 18 339 18 157 q 70 608 18 521 q 229 694 121 694 q 329 667 290 694 q 390 581 368 640 l 396 581 q 458 667 418 640 q 559 694 498 694 q 716 616 665 694 q 768 382 768 538 q 765 313 768 353 l 444 313 l 444 311 q 475 135 444 191 q 568 78 506 78 q 630 101 607 78 q 659 171 654 124 l 758 171 q 699 32 749 81 q 562 -17 648 -17 q 459 11 500 -17 q 396 97 418 39 l 390 97 q 329 11 368 38 q 229 -17 290 -17 m 233 78 q 295 104 272 78 q 330 187 319 130 q 340 339 340 244 q 330 490 340 433 q 295 574 319 547 q 233 600 272 600 q 170 574 193 600 q 135 491 146 547 q 125 339 125 434 q 135 187 125 244 q 170 104 146 130 q 233 78 193 78 m 661 400 q 633 553 659 505 q 553 600 607 600 q 472 552 498 600 q 444 400 446 505 l 661 400 z "},"p":{"ha":778,"x_min":115,"x_max":700,"o":"m 115 677 l 211 677 l 218 562 l 224 562 q 301 661 249 627 q 429 694 353 694 q 575 651 515 694 q 668 528 636 608 q 700 339 700 448 q 668 150 700 230 q 575 26 636 70 q 431 -17 515 -17 q 307 16 359 -17 q 229 109 256 48 l 224 109 l 224 -306 l 115 -306 l 115 677 m 411 83 q 542 150 496 83 q 587 339 587 216 q 542 529 587 463 q 411 595 496 595 q 312 566 355 595 q 247 483 270 537 q 224 355 224 429 l 224 322 q 247 194 224 248 q 312 112 270 140 q 411 83 355 83 z "},"þ":{"ha":778,"x_min":115,"x_max":700,"o":"m 115 986 l 224 986 l 224 570 l 229 570 q 307 662 256 629 q 431 694 359 694 q 575 651 515 694 q 668 528 636 608 q 700 339 700 448 q 668 150 700 230 q 575 26 636 70 q 431 -17 515 -17 q 307 16 359 -17 q 229 109 256 48 l 224 109 l 224 -306 l 115 -306 l 115 986 m 411 83 q 542 150 496 83 q 587 339 587 216 q 542 529 587 463 q 411 595 496 595 q 312 566 355 595 q 247 483 270 537 q 224 355 224 429 l 224 322 q 247 194 224 248 q 312 112 270 140 q 411 83 355 83 z "},"q":{"ha":778,"x_min":78,"x_max":663,"o":"m 554 -306 l 554 109 l 549 109 q 471 16 522 48 q 347 -17 419 -17 q 202 26 263 -17 q 110 150 142 70 q 78 339 78 230 q 110 528 78 448 q 202 651 142 608 q 349 694 263 694 q 477 661 425 694 q 554 562 529 627 l 559 562 l 567 677 l 663 677 l 663 -306 l 554 -306 m 367 83 q 466 112 423 83 q 531 194 508 140 q 554 322 554 248 l 554 355 q 531 483 554 429 q 466 566 508 537 q 367 595 423 595 q 236 529 282 595 q 191 339 191 463 q 236 150 191 216 q 367 83 282 83 z "},"r":{"ha":778,"x_min":150,"x_max":688,"o":"m 150 677 l 245 677 l 253 562 l 258 562 q 342 660 288 626 q 471 694 396 694 q 632 628 576 694 q 688 436 688 562 l 688 346 l 579 346 l 579 422 q 544 551 579 507 q 441 595 508 595 q 347 569 389 595 q 282 496 305 543 q 258 392 258 450 l 258 0 l 150 0 l 150 677 z "},"ŕ":{"ha":778,"x_min":150,"x_max":688,"o":"m 150 677 l 245 677 l 253 562 l 258 562 q 342 660 288 626 q 471 694 396 694 q 632 628 576 694 q 688 436 688 562 l 688 346 l 579 346 l 579 422 q 544 551 579 507 q 441 595 508 595 q 347 569 389 595 q 282 496 305 543 q 258 392 258 450 l 258 0 l 150 0 l 150 677 m 460 1034 l 597 1034 l 406 814 l 298 814 l 460 1034 z "},"ř":{"ha":778,"x_min":150,"x_max":688,"o":"m 150 677 l 245 677 l 253 562 l 258 562 q 342 660 288 626 q 471 694 396 694 q 632 628 576 694 q 688 436 688 562 l 688 346 l 579 346 l 579 422 q 544 551 579 507 q 441 595 508 595 q 347 569 389 595 q 282 496 305 543 q 258 392 258 450 l 258 0 l 150 0 l 150 677 m 166 1034 l 274 1034 l 395 892 l 516 1034 l 624 1034 l 450 814 l 340 814 l 166 1034 z "},"ŗ":{"ha":778,"x_min":118,"x_max":688,"o":"m 150 677 l 245 677 l 253 562 l 258 562 q 342 660 288 626 q 471 694 396 694 q 632 628 576 694 q 688 436 688 562 l 688 346 l 579 346 l 579 422 q 544 551 579 507 q 441 595 508 595 q 347 569 389 595 q 282 496 305 543 q 258 392 258 450 l 258 0 l 150 0 l 150 677 m 121 -342 q 190 -308 168 -326 q 218 -256 212 -289 q 192 -261 208 -261 q 140 -240 162 -261 q 118 -184 118 -219 q 142 -124 118 -148 q 204 -100 166 -100 q 270 -129 245 -100 q 295 -207 295 -158 q 276 -285 295 -248 q 222 -351 258 -323 q 139 -392 187 -379 l 121 -342 z "},"s":{"ha":778,"x_min":107,"x_max":668,"o":"m 389 -17 q 187 34 261 -17 q 107 176 113 85 l 218 176 q 269 107 225 131 q 389 83 313 83 q 513 111 469 83 q 557 191 557 138 q 527 253 557 231 q 429 285 498 275 l 330 298 q 177 359 227 313 q 127 488 127 406 q 196 641 127 588 q 386 694 264 694 q 571 646 503 694 q 646 510 640 598 l 533 510 q 491 571 530 547 q 387 595 453 595 q 279 568 319 595 q 239 494 239 541 q 269 431 239 454 q 367 400 298 409 l 465 386 q 619 326 570 372 q 668 197 668 280 q 595 38 668 93 q 389 -17 522 -17 z "},"ś":{"ha":778,"x_min":107,"x_max":668,"o":"m 389 -17 q 187 34 261 -17 q 107 176 113 85 l 218 176 q 269 107 225 131 q 389 83 313 83 q 513 111 469 83 q 557 191 557 138 q 527 253 557 231 q 429 285 498 275 l 330 298 q 177 359 227 313 q 127 488 127 406 q 196 641 127 588 q 386 694 264 694 q 571 646 503 694 q 646 510 640 598 l 533 510 q 491 571 530 547 q 387 595 453 595 q 279 568 319 595 q 239 494 239 541 q 269 431 239 454 q 367 400 298 409 l 465 386 q 619 326 570 372 q 668 197 668 280 q 595 38 668 93 q 389 -17 522 -17 m 452 1034 l 589 1034 l 397 814 l 289 814 l 452 1034 z "},"š":{"ha":778,"x_min":107,"x_max":668,"o":"m 389 -17 q 187 34 261 -17 q 107 176 113 85 l 218 176 q 269 107 225 131 q 389 83 313 83 q 513 111 469 83 q 557 191 557 138 q 527 253 557 231 q 429 285 498 275 l 330 298 q 177 359 227 313 q 127 488 127 406 q 196 641 127 588 q 386 694 264 694 q 571 646 503 694 q 646 510 640 598 l 533 510 q 491 571 530 547 q 387 595 453 595 q 279 568 319 595 q 239 494 239 541 q 269 431 239 454 q 367 400 298 409 l 465 386 q 619 326 570 372 q 668 197 668 280 q 595 38 668 93 q 389 -17 522 -17 m 157 1034 l 265 1034 l 386 892 l 507 1034 l 615 1034 l 441 814 l 331 814 l 157 1034 z "},"ş":{"ha":778,"x_min":107,"x_max":668,"o":"m 389 -17 q 187 34 261 -17 q 107 176 113 85 l 218 176 q 269 107 225 131 q 389 83 313 83 q 513 111 469 83 q 557 191 557 138 q 527 253 557 231 q 429 285 498 275 l 330 298 q 177 359 227 313 q 127 488 127 406 q 196 641 127 588 q 386 694 264 694 q 571 646 503 694 q 646 510 640 598 l 533 510 q 491 571 530 547 q 387 595 453 595 q 279 568 319 595 q 239 494 239 541 q 269 431 239 454 q 367 400 298 409 l 465 386 q 619 326 570 372 q 668 197 668 280 q 595 38 668 93 q 389 -17 522 -17 m 374 -322 q 295 -314 332 -322 q 235 -293 258 -307 l 257 -229 q 303 -247 276 -241 q 358 -253 330 -253 q 417 -241 396 -253 q 437 -205 437 -229 q 419 -173 437 -183 q 363 -163 401 -163 l 306 -163 l 364 0 l 439 0 l 400 -110 q 502 -135 466 -110 q 538 -208 538 -159 q 495 -292 538 -262 q 374 -322 453 -322 z "},"ŝ":{"ha":778,"x_min":107,"x_max":668,"o":"m 389 -17 q 187 34 261 -17 q 107 176 113 85 l 218 176 q 269 107 225 131 q 389 83 313 83 q 513 111 469 83 q 557 191 557 138 q 527 253 557 231 q 429 285 498 275 l 330 298 q 177 359 227 313 q 127 488 127 406 q 196 641 127 588 q 386 694 264 694 q 571 646 503 694 q 646 510 640 598 l 533 510 q 491 571 530 547 q 387 595 453 595 q 279 568 319 595 q 239 494 239 541 q 269 431 239 454 q 367 400 298 409 l 465 386 q 619 326 570 372 q 668 197 668 280 q 595 38 668 93 q 389 -17 522 -17 m 331 1034 l 441 1034 l 615 814 l 507 814 l 386 956 l 265 814 l 157 814 l 331 1034 z "},"ș":{"ha":778,"x_min":107,"x_max":668,"o":"m 389 -17 q 187 34 261 -17 q 107 176 113 85 l 218 176 q 269 107 225 131 q 389 83 313 83 q 513 111 469 83 q 557 191 557 138 q 527 253 557 231 q 429 285 498 275 l 330 298 q 177 359 227 313 q 127 488 127 406 q 196 641 127 588 q 386 694 264 694 q 571 646 503 694 q 646 510 640 598 l 533 510 q 491 571 530 547 q 387 595 453 595 q 279 568 319 595 q 239 494 239 541 q 269 431 239 454 q 367 400 298 409 l 465 386 q 619 326 570 372 q 668 197 668 280 q 595 38 668 93 q 389 -17 522 -17 m 304 -342 q 373 -308 351 -326 q 401 -256 395 -289 q 375 -261 391 -261 q 323 -240 345 -261 q 301 -184 301 -219 q 325 -124 301 -148 q 387 -100 349 -100 q 453 -129 429 -100 q 478 -207 478 -158 q 459 -285 478 -248 q 406 -351 441 -323 q 322 -392 370 -379 l 304 -342 z "},"ß":{"ha":778,"x_min":119,"x_max":726,"o":"m 481 -17 q 336 8 402 -17 l 355 109 q 407 90 376 96 q 475 83 438 83 q 576 111 539 83 q 614 186 614 138 q 601 236 614 215 q 569 273 588 258 q 515 309 549 288 q 445 358 472 336 q 399 416 418 380 q 380 503 380 452 q 391 568 380 539 q 415 619 401 597 q 453 668 430 641 q 497 729 482 702 q 511 789 511 755 q 475 872 511 841 q 376 903 438 903 q 266 865 304 903 q 228 757 228 828 l 228 0 l 119 0 l 119 764 q 150 892 119 838 q 237 975 180 946 q 374 1003 294 1003 q 506 977 450 1003 q 593 902 562 951 q 624 789 624 854 q 614 724 624 753 q 589 675 604 696 q 551 628 574 654 q 508 569 522 594 q 493 510 493 543 q 506 460 493 482 q 539 423 519 439 q 591 387 559 408 q 662 338 635 361 q 707 280 688 315 q 726 193 726 244 q 663 37 726 91 q 481 -17 600 -17 z "},"t":{"ha":778,"x_min":56,"x_max":694,"o":"m 461 -17 q 290 43 350 -17 q 229 215 229 104 l 229 582 l 56 582 l 56 677 l 235 677 l 252 917 l 338 917 l 338 677 l 644 677 l 644 582 l 338 582 l 338 229 q 463 83 338 83 q 589 229 589 83 l 589 279 l 694 279 l 694 215 q 634 43 694 104 q 461 -17 574 -17 z "},"ŧ":{"ha":778,"x_min":56,"x_max":694,"o":"m 461 -17 q 290 43 350 -17 q 229 215 229 104 l 229 322 l 77 322 l 77 411 l 229 411 l 229 582 l 56 582 l 56 677 l 235 677 l 252 917 l 338 917 l 338 677 l 644 677 l 644 582 l 338 582 l 338 411 l 452 411 l 452 322 l 338 322 l 338 229 q 463 83 338 83 q 589 229 589 83 l 589 279 l 694 279 l 694 215 q 634 43 694 104 q 461 -17 574 -17 z "},"ť":{"ha":778,"x_min":56,"x_max":694,"o":"m 528 1131 l 639 1131 l 572 800 l 500 800 l 528 1131 m 461 -17 q 290 43 350 -17 q 229 215 229 104 l 229 582 l 56 582 l 56 677 l 235 677 l 252 917 l 338 917 l 338 677 l 644 677 l 644 582 l 338 582 l 338 229 q 463 83 338 83 q 589 229 589 83 l 589 279 l 694 279 l 694 215 q 634 43 694 104 q 461 -17 574 -17 z "},"ţ":{"ha":778,"x_min":56,"x_max":694,"o":"m 461 -17 q 290 43 350 -17 q 229 215 229 104 l 229 582 l 56 582 l 56 677 l 235 677 l 252 917 l 338 917 l 338 677 l 644 677 l 644 582 l 338 582 l 338 229 q 463 83 338 83 q 589 229 589 83 l 589 279 l 694 279 l 694 215 q 634 43 694 104 q 461 -17 574 -17 m 410 -322 q 332 -314 369 -322 q 271 -293 295 -307 l 294 -229 q 340 -247 313 -241 q 395 -253 367 -253 q 453 -241 433 -253 q 474 -205 474 -229 q 456 -173 474 -183 q 399 -163 438 -163 l 342 -163 l 401 0 l 475 0 l 437 -110 q 538 -135 503 -110 q 574 -208 574 -159 q 532 -292 574 -262 q 410 -322 490 -322 z "},"ț":{"ha":778,"x_min":56,"x_max":694,"o":"m 461 -17 q 290 43 350 -17 q 229 215 229 104 l 229 582 l 56 582 l 56 677 l 235 677 l 252 917 l 338 917 l 338 677 l 644 677 l 644 582 l 338 582 l 338 229 q 463 83 338 83 q 589 229 589 83 l 589 279 l 694 279 l 694 215 q 634 43 694 104 q 461 -17 574 -17 m 341 -342 q 410 -308 388 -326 q 438 -256 432 -289 q 412 -261 427 -261 q 360 -240 382 -261 q 338 -184 338 -219 q 362 -124 338 -148 q 424 -100 386 -100 q 490 -129 465 -100 q 515 -207 515 -158 q 496 -285 515 -248 q 442 -351 477 -323 q 359 -392 407 -379 l 341 -342 z "},"u":{"ha":778,"x_min":111,"x_max":656,"o":"m 656 0 l 559 0 l 553 115 l 547 115 q 463 17 518 51 q 330 -17 408 -17 q 167 49 223 -17 q 111 241 111 115 l 111 677 l 220 677 l 220 245 q 254 124 220 165 q 357 83 289 83 q 456 110 412 83 q 523 182 499 136 q 547 286 547 228 l 547 677 l 656 677 l 656 0 z "},"ú":{"ha":778,"x_min":111,"x_max":656,"o":"m 656 0 l 559 0 l 553 115 l 547 115 q 463 17 518 51 q 330 -17 408 -17 q 167 49 223 -17 q 111 241 111 115 l 111 677 l 220 677 l 220 245 q 254 124 220 165 q 357 83 289 83 q 456 110 412 83 q 523 182 499 136 q 547 286 547 228 l 547 677 l 656 677 l 656 0 m 449 1034 l 586 1034 l 395 814 l 286 814 l 449 1034 z "},"ŭ":{"ha":778,"x_min":111,"x_max":656,"o":"m 656 0 l 559 0 l 553 115 l 547 115 q 463 17 518 51 q 330 -17 408 -17 q 167 49 223 -17 q 111 241 111 115 l 111 677 l 220 677 l 220 245 q 254 124 220 165 q 357 83 289 83 q 456 110 412 83 q 523 182 499 136 q 547 286 547 228 l 547 677 l 656 677 l 656 0 m 383 814 q 238 868 292 814 q 176 1021 185 922 l 265 1021 q 301 937 273 965 q 383 909 330 909 q 466 937 437 909 q 502 1021 494 965 l 591 1021 q 529 868 582 922 q 383 814 475 814 z "},"û":{"ha":778,"x_min":111,"x_max":656,"o":"m 656 0 l 559 0 l 553 115 l 547 115 q 463 17 518 51 q 330 -17 408 -17 q 167 49 223 -17 q 111 241 111 115 l 111 677 l 220 677 l 220 245 q 254 124 220 165 q 357 83 289 83 q 456 110 412 83 q 523 182 499 136 q 547 286 547 228 l 547 677 l 656 677 l 656 0 m 328 1034 l 439 1034 l 612 814 l 505 814 l 383 956 l 262 814 l 155 814 l 328 1034 z "},"ü":{"ha":778,"x_min":111,"x_max":656,"o":"m 656 0 l 559 0 l 553 115 l 547 115 q 463 17 518 51 q 330 -17 408 -17 q 167 49 223 -17 q 111 241 111 115 l 111 677 l 220 677 l 220 245 q 254 124 220 165 q 357 83 289 83 q 456 110 412 83 q 523 182 499 136 q 547 286 547 228 l 547 677 l 656 677 l 656 0 m 245 822 q 183 847 208 822 q 159 908 159 872 q 183 969 159 945 q 245 994 208 994 q 306 969 281 994 q 331 908 331 945 q 306 847 331 872 q 245 822 281 822 m 522 822 q 461 847 486 822 q 436 908 436 872 q 461 969 436 945 q 522 994 486 994 q 584 969 559 994 q 608 908 608 945 q 584 847 608 872 q 522 822 559 822 z "},"ù":{"ha":778,"x_min":111,"x_max":656,"o":"m 656 0 l 559 0 l 553 115 l 547 115 q 463 17 518 51 q 330 -17 408 -17 q 167 49 223 -17 q 111 241 111 115 l 111 677 l 220 677 l 220 245 q 254 124 220 165 q 357 83 289 83 q 456 110 412 83 q 523 182 499 136 q 547 286 547 228 l 547 677 l 656 677 l 656 0 m 180 1034 l 318 1034 l 481 814 l 372 814 l 180 1034 z "},"ű":{"ha":778,"x_min":111,"x_max":685,"o":"m 656 0 l 559 0 l 553 115 l 547 115 q 463 17 518 51 q 330 -17 408 -17 q 167 49 223 -17 q 111 241 111 115 l 111 677 l 220 677 l 220 245 q 254 124 220 165 q 357 83 289 83 q 456 110 412 83 q 523 182 499 136 q 547 286 547 228 l 547 677 l 656 677 l 656 0 m 317 1034 l 441 1034 l 289 814 l 189 814 l 317 1034 m 560 1034 l 685 1034 l 532 814 l 432 814 l 560 1034 z "},"ū":{"ha":778,"x_min":111,"x_max":656,"o":"m 656 0 l 559 0 l 553 115 l 547 115 q 463 17 518 51 q 330 -17 408 -17 q 167 49 223 -17 q 111 241 111 115 l 111 677 l 220 677 l 220 245 q 254 124 220 165 q 357 83 289 83 q 456 110 412 83 q 523 182 499 136 q 547 286 547 228 l 547 677 l 656 677 l 656 0 m 188 951 l 579 951 l 579 865 l 188 865 l 188 951 z "},"ų":{"ha":778,"x_min":111,"x_max":656,"o":"m 656 0 l 559 0 l 553 115 l 547 115 q 463 17 518 51 q 330 -17 408 -17 q 167 49 223 -17 q 111 241 111 115 l 111 677 l 220 677 l 220 245 q 254 124 220 165 q 357 83 289 83 q 456 110 412 83 q 523 182 499 136 q 547 286 547 228 l 547 677 l 656 677 l 656 0 m 579 -322 q 467 -285 509 -322 q 425 -184 425 -248 q 465 -69 425 -125 q 587 43 504 -14 l 617 1 q 522 -154 522 -79 q 544 -209 522 -191 q 599 -228 565 -228 q 656 -212 633 -228 l 656 -306 q 622 -318 640 -314 q 579 -322 604 -322 z "},"ů":{"ha":778,"x_min":111,"x_max":656,"o":"m 656 0 l 559 0 l 553 115 l 547 115 q 463 17 518 51 q 330 -17 408 -17 q 167 49 223 -17 q 111 241 111 115 l 111 677 l 220 677 l 220 245 q 254 124 220 165 q 357 83 289 83 q 456 110 412 83 q 523 182 499 136 q 547 286 547 228 l 547 677 l 656 677 l 656 0 m 383 806 q 306 825 340 806 q 252 878 271 844 q 232 953 232 911 q 252 1028 232 994 q 306 1081 271 1061 q 383 1100 340 1100 q 460 1081 426 1100 q 515 1028 495 1061 q 535 953 535 994 q 515 878 535 911 q 460 825 495 844 q 383 806 426 806 m 383 884 q 431 903 412 884 q 450 953 450 923 q 431 1002 450 983 q 383 1022 412 1022 q 335 1002 354 1022 q 317 953 317 983 q 335 903 317 923 q 383 884 354 884 z "},"ũ":{"ha":778,"x_min":111,"x_max":656,"o":"m 656 0 l 559 0 l 553 115 l 547 115 q 463 17 518 51 q 330 -17 408 -17 q 167 49 223 -17 q 111 241 111 115 l 111 677 l 220 677 l 220 245 q 254 124 220 165 q 357 83 289 83 q 456 110 412 83 q 523 182 499 136 q 547 286 547 228 l 547 677 l 656 677 l 656 0 m 160 814 q 196 959 163 907 q 294 1010 229 1010 q 345 999 322 1010 q 406 961 368 989 q 448 933 435 939 q 473 926 460 926 q 509 948 496 926 q 524 1022 521 970 l 607 1022 q 571 878 604 928 q 474 827 538 827 q 422 837 445 827 q 361 875 399 848 q 319 903 332 897 q 294 909 307 909 q 258 888 271 909 q 243 814 246 867 l 160 814 z "},"v":{"ha":778,"x_min":81,"x_max":697,"o":"m 81 677 l 197 677 l 387 146 l 393 146 l 583 677 l 697 677 l 444 0 l 334 0 l 81 677 z "},"w":{"ha":778,"x_min":31,"x_max":747,"o":"m 31 677 l 135 677 l 225 163 l 231 163 l 347 677 l 435 677 l 551 163 l 557 163 l 647 677 l 747 677 l 621 0 l 505 0 l 392 503 l 386 503 l 272 0 l 157 0 l 31 677 z "},"ẃ":{"ha":778,"x_min":31,"x_max":747,"o":"m 31 677 l 135 677 l 225 163 l 231 163 l 347 677 l 435 677 l 551 163 l 557 163 l 647 677 l 747 677 l 621 0 l 505 0 l 392 503 l 386 503 l 272 0 l 157 0 l 31 677 m 454 1034 l 591 1034 l 400 814 l 292 814 l 454 1034 z "},"ŵ":{"ha":778,"x_min":31,"x_max":747,"o":"m 31 677 l 135 677 l 225 163 l 231 163 l 347 677 l 435 677 l 551 163 l 557 163 l 647 677 l 747 677 l 621 0 l 505 0 l 392 503 l 386 503 l 272 0 l 157 0 l 31 677 m 334 1034 l 444 1034 l 618 814 l 510 814 l 389 956 l 268 814 l 160 814 l 334 1034 z "},"ẅ":{"ha":778,"x_min":31,"x_max":747,"o":"m 31 677 l 135 677 l 225 163 l 231 163 l 347 677 l 435 677 l 551 163 l 557 163 l 647 677 l 747 677 l 621 0 l 505 0 l 392 503 l 386 503 l 272 0 l 157 0 l 31 677 m 250 822 q 189 847 214 822 q 164 908 164 872 q 189 969 164 945 q 250 994 214 994 q 311 969 286 994 q 336 908 336 945 q 311 847 336 872 q 250 822 286 822 m 528 822 q 467 847 492 822 q 441 908 441 872 q 467 969 441 945 q 528 994 492 994 q 589 969 564 994 q 614 908 614 945 q 589 847 614 872 q 528 822 564 822 z "},"ẁ":{"ha":778,"x_min":31,"x_max":747,"o":"m 31 677 l 135 677 l 225 163 l 231 163 l 347 677 l 435 677 l 551 163 l 557 163 l 647 677 l 747 677 l 621 0 l 505 0 l 392 503 l 386 503 l 272 0 l 157 0 l 31 677 m 186 1034 l 323 1034 l 486 814 l 378 814 l 186 1034 z "},"x":{"ha":778,"x_min":60,"x_max":718,"o":"m 319 349 l 74 677 l 210 677 l 393 422 l 575 677 l 704 677 l 458 349 l 718 0 l 583 0 l 385 273 l 189 0 l 60 0 l 319 349 z "},"y":{"ha":778,"x_min":3,"x_max":697,"o":"m 189 -322 q 52 -276 101 -322 q 3 -147 3 -229 l 3 -119 l 106 -119 l 106 -134 q 191 -222 106 -222 q 239 -212 220 -222 q 274 -175 258 -201 q 309 -100 290 -149 l 343 -5 l 81 677 l 197 677 l 393 146 l 399 146 l 583 677 l 697 677 l 403 -134 q 348 -244 378 -203 q 280 -303 318 -285 q 189 -322 241 -322 z "},"ý":{"ha":778,"x_min":3,"x_max":697,"o":"m 189 -322 q 52 -276 101 -322 q 3 -147 3 -229 l 3 -119 l 106 -119 l 106 -134 q 191 -222 106 -222 q 239 -212 220 -222 q 274 -175 258 -201 q 309 -100 290 -149 l 343 -5 l 81 677 l 197 677 l 393 146 l 399 146 l 583 677 l 697 677 l 403 -134 q 348 -244 378 -203 q 280 -303 318 -285 q 189 -322 241 -322 m 454 1034 l 591 1034 l 400 814 l 292 814 l 454 1034 z "},"ŷ":{"ha":778,"x_min":3,"x_max":697,"o":"m 189 -322 q 52 -276 101 -322 q 3 -147 3 -229 l 3 -119 l 106 -119 l 106 -134 q 191 -222 106 -222 q 239 -212 220 -222 q 274 -175 258 -201 q 309 -100 290 -149 l 343 -5 l 81 677 l 197 677 l 393 146 l 399 146 l 583 677 l 697 677 l 403 -134 q 348 -244 378 -203 q 280 -303 318 -285 q 189 -322 241 -322 m 334 1034 l 444 1034 l 618 814 l 510 814 l 389 956 l 268 814 l 160 814 l 334 1034 z "},"ÿ":{"ha":778,"x_min":3,"x_max":697,"o":"m 189 -322 q 52 -276 101 -322 q 3 -147 3 -229 l 3 -119 l 106 -119 l 106 -134 q 191 -222 106 -222 q 239 -212 220 -222 q 274 -175 258 -201 q 309 -100 290 -149 l 343 -5 l 81 677 l 197 677 l 393 146 l 399 146 l 583 677 l 697 677 l 403 -134 q 348 -244 378 -203 q 280 -303 318 -285 q 189 -322 241 -322 m 250 822 q 189 847 214 822 q 164 908 164 872 q 189 969 164 945 q 250 994 214 994 q 311 969 286 994 q 336 908 336 945 q 311 847 336 872 q 250 822 286 822 m 528 822 q 467 847 492 822 q 441 908 441 872 q 467 969 441 945 q 528 994 492 994 q 589 969 564 994 q 614 908 614 945 q 589 847 614 872 q 528 822 564 822 z "},"ỳ":{"ha":778,"x_min":3,"x_max":697,"o":"m 189 -322 q 52 -276 101 -322 q 3 -147 3 -229 l 3 -119 l 106 -119 l 106 -134 q 191 -222 106 -222 q 239 -212 220 -222 q 274 -175 258 -201 q 309 -100 290 -149 l 343 -5 l 81 677 l 197 677 l 393 146 l 399 146 l 583 677 l 697 677 l 403 -134 q 348 -244 378 -203 q 280 -303 318 -285 q 189 -322 241 -322 m 186 1034 l 323 1034 l 486 814 l 378 814 l 186 1034 z "},"z":{"ha":778,"x_min":109,"x_max":665,"o":"m 109 75 l 518 582 l 129 582 l 129 677 l 665 677 l 665 603 l 256 96 l 665 96 l 665 0 l 109 0 l 109 75 z "},"ź":{"ha":778,"x_min":109,"x_max":665,"o":"m 109 75 l 518 582 l 129 582 l 129 677 l 665 677 l 665 603 l 256 96 l 665 96 l 665 0 l 109 0 l 109 75 m 463 1034 l 600 1034 l 409 814 l 300 814 l 463 1034 z "},"ž":{"ha":778,"x_min":109,"x_max":665,"o":"m 109 75 l 518 582 l 129 582 l 129 677 l 665 677 l 665 603 l 256 96 l 665 96 l 665 0 l 109 0 l 109 75 m 169 1034 l 277 1034 l 397 892 l 519 1034 l 627 1034 l 453 814 l 342 814 l 169 1034 z "},"ż":{"ha":778,"x_min":109,"x_max":665,"o":"m 109 75 l 518 582 l 129 582 l 129 677 l 665 677 l 665 603 l 256 96 l 665 96 l 665 0 l 109 0 l 109 75 m 397 814 q 330 841 357 814 q 303 908 303 868 q 330 976 303 949 q 397 1003 357 1003 q 465 976 438 1003 q 492 908 492 949 q 465 841 492 868 q 397 814 438 814 z "},"ﬁ":{"ha":778,"x_min":0,"x_max":778,"o":"m 139 541 l 0 541 l 0 636 l 139 636 l 139 771 q 199 943 139 882 q 372 1003 260 1003 q 533 952 473 1003 q 603 808 592 902 l 496 808 q 374 903 477 903 q 279 866 310 903 q 248 757 248 830 l 248 636 l 639 636 l 639 96 l 778 96 l 778 0 l 392 0 l 392 96 l 530 96 l 530 541 l 248 541 l 248 0 l 139 0 l 139 541 z "},"ﬂ":{"ha":778,"x_min":0,"x_max":778,"o":"m 139 541 l 0 541 l 0 636 l 139 636 l 139 754 q 199 926 139 865 q 372 986 260 986 l 639 986 l 639 241 q 764 96 639 96 l 778 96 l 778 0 l 764 0 q 591 60 651 0 q 530 232 530 121 l 530 890 l 372 890 q 248 745 248 890 l 248 636 l 386 636 l 386 541 l 248 541 l 248 0 l 139 0 l 139 541 z "},"ª":{"ha":778,"x_min":138,"x_max":625,"o":"m 322 408 q 224 429 266 408 q 160 488 183 450 q 138 579 138 527 q 194 705 138 661 q 358 749 250 749 l 517 749 l 517 787 q 386 913 517 913 q 300 892 333 913 q 260 832 268 871 l 158 832 q 225 960 167 916 q 387 1003 283 1003 q 561 950 503 1003 q 619 794 619 898 l 619 422 l 528 422 l 522 515 l 517 515 q 439 437 490 465 q 322 408 388 408 m 345 498 q 432 519 392 498 q 494 576 471 540 q 517 656 517 612 l 517 667 l 358 667 q 272 644 302 667 q 241 581 241 622 q 269 520 241 542 q 345 498 296 498 m 139 253 l 625 253 l 625 160 l 139 160 l 139 253 z "},"º":{"ha":778,"x_min":139,"x_max":639,"o":"m 389 408 q 203 485 267 408 q 139 705 139 561 q 203 927 139 850 q 389 1003 267 1003 q 575 927 511 1003 q 639 705 639 850 q 575 485 639 561 q 389 408 511 408 m 389 501 q 497 553 460 501 q 534 705 534 604 q 498 858 534 806 q 389 909 461 909 q 280 858 317 909 q 243 705 243 806 q 280 553 243 605 q 389 501 317 501 m 146 253 l 632 253 l 632 160 l 146 160 l 146 253 z "},"Δ":{"ha":778,"x_min":60,"x_max":718,"o":"m 60 79 l 328 917 l 450 917 l 718 79 l 718 0 l 60 0 l 60 79 m 597 100 l 390 775 l 385 775 l 178 100 l 597 100 z "},"Ω":{"ha":778,"x_min":64,"x_max":714,"o":"m 64 100 l 221 100 l 221 106 q 107 315 144 209 q 71 538 71 420 q 109 748 71 659 q 218 885 146 838 q 389 933 290 933 q 559 885 488 933 q 669 748 631 838 q 707 538 707 659 q 670 314 707 420 q 557 106 633 209 l 557 100 l 714 100 l 714 0 l 450 0 l 450 90 q 558 288 522 184 q 595 515 595 391 q 541 747 595 667 q 389 827 488 827 q 237 747 290 827 q 183 515 183 667 q 220 288 183 391 q 328 90 256 184 l 328 0 l 64 0 l 64 100 z "},"μ":{"ha":778,"x_min":122,"x_max":726,"o":"m 122 677 l 231 677 l 231 245 q 263 124 231 165 q 359 83 296 83 q 450 109 410 83 q 511 181 489 135 q 533 286 533 227 l 533 677 l 642 677 l 642 136 q 652 96 642 108 q 686 83 663 83 q 726 94 708 83 l 726 0 q 656 -17 694 -17 q 569 14 598 -17 q 539 104 539 44 l 539 115 l 533 115 q 457 18 506 52 q 343 -17 408 -17 q 222 40 261 -17 l 216 40 q 231 -225 219 -146 l 231 -306 l 122 -306 l 122 677 z "},"π":{"ha":778,"x_min":37,"x_max":724,"o":"m 642 -17 q 535 21 572 -17 q 498 132 498 59 l 498 582 l 282 582 l 282 0 l 174 0 l 174 582 q 98 575 128 581 q 37 555 68 569 l 37 652 q 113 672 75 667 q 222 677 152 677 l 724 677 l 724 582 l 607 582 l 607 153 q 620 99 607 114 q 667 83 633 83 q 695 86 683 83 q 721 97 708 90 l 721 0 q 642 -17 684 -17 z "},"₀":{"ha":778,"x_min":138,"x_max":640,"o":"m 389 -189 q 201 -110 264 -189 q 138 127 138 -31 q 389 444 138 444 q 640 127 640 444 q 577 -110 640 -31 q 389 -189 514 -189 m 389 -93 q 498 -39 463 -93 q 533 127 533 14 q 498 295 533 241 q 389 349 463 349 q 279 295 315 349 q 244 127 244 241 q 279 -39 244 14 q 389 -93 315 -93 z "},"₁":{"ha":778,"x_min":170,"x_max":663,"o":"m 191 -89 l 375 -89 l 375 314 l 203 235 l 170 298 l 396 436 l 478 436 l 478 -89 l 663 -89 l 663 -180 l 191 -180 l 191 -89 z "},"₂":{"ha":778,"x_min":158,"x_max":606,"o":"m 158 -93 l 421 127 q 481 192 465 165 q 498 250 498 218 q 467 323 498 297 q 379 349 435 349 q 291 322 321 349 q 260 248 260 296 l 260 240 l 158 240 l 158 257 q 185 356 158 313 q 263 421 213 398 q 382 444 314 444 q 502 421 451 444 q 579 355 552 398 q 606 253 606 312 q 582 160 606 201 q 496 68 557 119 l 311 -85 l 311 -89 l 606 -89 l 606 -180 l 158 -180 l 158 -93 z "},"₃":{"ha":778,"x_min":139,"x_max":621,"o":"m 379 -189 q 203 -139 267 -189 q 139 0 140 -90 l 244 0 q 279 -69 245 -45 q 379 -93 314 -93 q 478 -69 443 -93 q 514 -3 514 -45 q 483 66 514 45 q 382 87 452 87 l 307 87 l 307 179 l 382 179 q 466 201 437 179 q 494 265 494 223 q 464 330 494 308 q 375 351 434 351 q 254 267 256 351 l 153 267 q 211 397 153 351 q 375 444 270 444 q 495 424 444 444 q 573 364 546 403 q 600 272 600 325 q 509 144 600 178 l 509 139 q 621 -1 621 106 q 591 -101 621 -59 q 508 -166 562 -144 q 379 -189 454 -189 z "},"₄":{"ha":778,"x_min":131,"x_max":646,"o":"m 446 -28 l 131 -28 l 131 77 l 441 436 l 549 436 l 549 64 l 646 64 l 646 -28 l 549 -28 l 549 -180 l 446 -180 l 446 -28 m 452 64 l 452 315 l 447 315 l 237 64 l 452 64 z "},"₅":{"ha":778,"x_min":149,"x_max":635,"o":"m 392 -189 q 225 -146 289 -189 q 149 -22 162 -102 l 260 -22 q 303 -75 269 -56 q 392 -93 337 -93 q 493 -64 459 -93 q 528 20 528 -36 q 494 104 528 76 q 392 133 460 133 q 317 122 349 133 q 258 87 286 111 l 175 118 l 212 436 l 578 436 l 578 345 l 290 345 l 271 174 l 277 171 q 339 211 300 197 q 425 225 377 225 q 534 199 487 225 q 608 127 582 174 q 635 20 635 81 q 571 -134 635 -79 q 392 -189 507 -189 z "},"₆":{"ha":778,"x_min":146,"x_max":635,"o":"m 390 -189 q 262 -163 317 -189 q 176 -90 206 -137 q 146 21 146 -42 q 159 105 146 68 q 205 187 172 141 l 385 436 l 511 436 l 329 203 l 334 199 q 431 218 368 218 q 537 194 490 218 q 609 126 583 170 q 635 24 635 82 q 604 -88 635 -40 q 518 -163 574 -136 q 390 -189 463 -189 m 390 -93 q 492 -64 457 -93 q 528 21 528 -35 q 492 105 528 76 q 390 135 457 135 q 288 105 323 135 q 253 21 253 76 q 288 -64 253 -35 q 390 -93 323 -93 z "},"₇":{"ha":778,"x_min":153,"x_max":619,"o":"m 504 345 l 153 345 l 153 436 l 619 436 l 619 355 l 318 -180 l 200 -180 l 504 345 z "},"₈":{"ha":778,"x_min":134,"x_max":644,"o":"m 389 -189 q 201 -143 268 -189 q 134 -11 134 -96 q 164 84 134 46 q 256 139 195 122 l 256 144 q 154 277 154 178 q 215 400 154 357 q 389 444 277 444 q 563 400 501 444 q 624 277 624 357 q 522 144 624 178 l 522 139 q 613 84 583 122 q 644 -11 644 46 q 577 -143 644 -96 q 389 -189 510 -189 m 389 179 q 487 208 456 185 q 518 269 518 230 q 389 351 518 351 q 260 269 260 351 q 291 208 260 230 q 389 179 322 185 m 389 -93 q 502 -71 465 -93 q 538 -4 538 -48 q 501 61 538 40 q 389 87 465 82 q 276 61 313 82 q 240 -4 240 40 q 276 -71 240 -48 q 389 -93 313 -93 z "},"₉":{"ha":778,"x_min":143,"x_max":632,"o":"m 387 444 q 515 418 460 444 q 602 345 571 392 q 632 235 632 297 q 619 151 632 187 q 572 68 606 114 l 393 -180 l 267 -180 l 449 53 l 444 57 q 402 42 426 47 q 347 37 379 37 q 241 61 288 37 q 169 130 195 85 q 143 232 143 174 q 173 343 143 295 q 259 418 203 391 q 387 444 315 444 m 387 349 q 286 319 321 349 q 250 235 250 290 q 286 150 250 179 q 387 121 321 121 q 489 150 454 121 q 525 235 525 179 q 489 319 525 290 q 387 349 454 349 z "},"⁰":{"ha":778,"x_min":138,"x_max":640,"o":"m 389 444 q 201 524 264 444 q 138 761 138 603 q 389 1078 138 1078 q 640 761 640 1078 q 577 524 640 603 q 389 444 514 444 m 389 541 q 498 594 463 541 q 533 761 533 648 q 498 928 533 875 q 389 982 463 982 q 279 928 315 982 q 244 761 244 875 q 279 594 244 648 q 389 541 315 541 z "},"¹":{"ha":778,"x_min":170,"x_max":663,"o":"m 191 545 l 375 545 l 375 947 l 203 868 l 170 932 l 396 1069 l 478 1069 l 478 545 l 663 545 l 663 453 l 191 453 l 191 545 z "},"²":{"ha":778,"x_min":158,"x_max":606,"o":"m 158 541 l 421 761 q 481 825 465 798 q 498 884 498 852 q 467 956 498 930 q 379 982 435 982 q 291 956 321 982 q 260 882 260 930 l 260 873 l 158 873 l 158 890 q 185 989 158 947 q 263 1055 213 1031 q 382 1078 314 1078 q 502 1055 451 1078 q 579 988 552 1031 q 606 886 606 945 q 582 793 606 834 q 496 701 557 753 l 311 549 l 311 545 l 606 545 l 606 453 l 158 453 l 158 541 z "},"³":{"ha":778,"x_min":139,"x_max":621,"o":"m 379 444 q 203 494 267 444 q 139 633 140 544 l 244 633 q 279 564 245 588 q 379 541 314 541 q 478 564 443 541 q 514 631 514 588 q 483 700 514 678 q 382 721 452 721 l 307 721 l 307 812 l 382 812 q 466 834 437 812 q 494 899 494 857 q 464 963 494 941 q 375 985 434 985 q 254 900 256 985 l 153 900 q 211 1031 153 984 q 375 1078 270 1078 q 495 1057 444 1078 q 573 997 546 1036 q 600 905 600 958 q 509 778 600 812 l 509 772 q 621 632 621 739 q 591 532 621 574 q 508 467 562 490 q 379 444 454 444 z "},"⁴":{"ha":778,"x_min":131,"x_max":646,"o":"m 446 606 l 131 606 l 131 710 l 441 1069 l 549 1069 l 549 697 l 646 697 l 646 606 l 549 606 l 549 453 l 446 453 l 446 606 m 452 697 l 452 949 l 447 949 l 237 697 l 452 697 z "},"⁵":{"ha":778,"x_min":149,"x_max":635,"o":"m 392 444 q 225 488 289 444 q 149 611 162 531 l 260 611 q 303 559 269 577 q 392 541 337 541 q 493 569 459 541 q 528 653 528 597 q 494 738 528 709 q 392 766 460 766 q 317 755 349 766 q 258 721 286 745 l 175 751 l 212 1069 l 578 1069 l 578 978 l 290 978 l 271 807 l 277 804 q 339 844 300 830 q 425 859 377 859 q 534 833 487 859 q 608 761 582 807 q 635 653 635 714 q 571 499 635 554 q 392 444 507 444 z "},"⁶":{"ha":778,"x_min":146,"x_max":635,"o":"m 390 444 q 262 470 317 444 q 176 544 206 496 q 146 654 146 591 q 159 738 146 702 q 205 821 172 774 l 385 1069 l 511 1069 l 329 836 l 334 832 q 431 851 368 851 q 537 827 490 851 q 609 759 583 803 q 635 657 635 715 q 604 545 635 593 q 518 471 574 497 q 390 444 463 444 m 390 541 q 492 570 457 541 q 528 654 528 599 q 492 739 528 709 q 390 768 457 768 q 288 739 323 768 q 253 654 253 709 q 288 570 253 599 q 390 541 323 541 z "},"⁷":{"ha":778,"x_min":153,"x_max":619,"o":"m 504 978 l 153 978 l 153 1069 l 619 1069 l 619 989 l 318 453 l 200 453 l 504 978 z "},"⁸":{"ha":778,"x_min":134,"x_max":644,"o":"m 389 444 q 201 491 268 444 q 134 623 134 537 q 164 718 134 680 q 256 772 195 755 l 256 778 q 154 911 154 811 q 215 1034 154 990 q 389 1078 277 1078 q 563 1034 501 1078 q 624 911 624 990 q 522 778 624 811 l 522 772 q 613 718 583 755 q 644 623 644 680 q 577 491 644 537 q 389 444 510 444 m 389 812 q 487 841 456 819 q 518 903 518 863 q 389 985 518 985 q 260 903 260 985 q 291 841 260 863 q 389 812 322 819 m 389 541 q 502 563 465 541 q 538 629 538 585 q 501 694 538 673 q 389 721 465 715 q 276 694 313 715 q 240 629 240 673 q 276 563 240 585 q 389 541 313 541 z "},"⁹":{"ha":778,"x_min":143,"x_max":632,"o":"m 387 1078 q 515 1052 460 1078 q 602 978 571 1025 q 632 868 632 930 q 619 784 632 821 q 572 701 606 747 l 393 453 l 267 453 l 449 686 l 444 690 q 402 675 426 680 q 347 671 379 671 q 241 695 288 671 q 169 763 195 719 q 143 865 143 807 q 173 977 143 928 q 259 1051 203 1025 q 387 1078 315 1078 m 387 982 q 286 953 321 982 q 250 868 250 924 q 286 783 250 812 q 387 754 321 754 q 489 783 454 754 q 525 868 525 812 q 489 953 525 924 q 387 982 454 982 z "},"⁄":{"ha":778,"x_min":11,"x_max":766,"o":"m 467 571 l 699 852 l 766 790 l 513 529 l 467 571 m 11 89 l 265 350 l 311 309 l 79 26 l 11 89 z "},"½":{"ha":778,"x_min":11,"x_max":766,"o":"m 208 786 l 75 726 l 43 791 l 228 889 l 296 889 l 296 447 l 208 447 l 208 786 m 395 74 l 589 232 q 628 272 617 256 q 639 309 639 289 q 618 351 639 336 q 561 367 597 367 q 503 351 524 367 q 483 306 483 335 l 483 298 l 395 298 l 395 311 q 416 385 395 353 q 475 433 437 416 q 564 450 513 450 q 686 412 641 450 q 730 309 730 374 q 713 242 730 271 q 654 182 696 214 l 522 83 l 522 79 l 730 79 l 730 0 l 395 0 l 395 74 m 467 571 l 699 852 l 766 790 l 513 529 l 467 571 m 11 89 l 265 350 l 311 309 l 79 26 l 11 89 z "},"⅓":{"ha":778,"x_min":11,"x_max":768,"o":"m 589 -8 q 457 28 503 -8 q 411 134 411 65 l 501 134 q 524 87 503 102 q 589 73 545 73 q 653 87 630 73 q 676 130 676 102 q 656 173 676 159 q 590 186 635 186 l 529 186 l 529 258 l 590 258 q 663 314 663 258 q 644 356 663 342 q 586 370 625 370 q 508 317 508 370 l 419 317 q 462 416 419 381 q 586 450 505 450 q 708 417 663 450 q 753 326 753 383 q 736 267 753 290 q 686 232 720 243 l 686 227 q 768 124 768 204 q 720 27 768 62 q 589 -8 672 -8 m 208 786 l 75 726 l 43 791 l 228 889 l 296 889 l 296 447 l 208 447 l 208 786 m 467 571 l 699 852 l 766 790 l 513 529 l 467 571 m 11 89 l 265 350 l 311 309 l 79 26 l 11 89 z "},"⅔":{"ha":778,"x_min":11,"x_max":768,"o":"m 14 521 l 207 679 q 246 719 235 703 q 257 755 257 736 q 236 798 257 783 q 179 814 216 814 q 121 798 142 814 q 101 753 101 782 l 101 745 l 14 745 l 14 758 q 34 832 14 800 q 93 880 55 863 q 182 897 131 897 q 304 859 259 897 q 349 755 349 821 q 331 689 349 718 q 272 629 314 661 l 140 530 l 140 526 l 349 526 l 349 447 l 14 447 l 14 521 m 467 571 l 699 852 l 766 790 l 513 529 l 467 571 m 11 89 l 265 350 l 311 309 l 79 26 l 11 89 m 589 -8 q 457 28 503 -8 q 411 134 411 65 l 501 134 q 524 87 503 102 q 589 73 545 73 q 653 87 630 73 q 676 130 676 102 q 656 173 676 159 q 590 186 635 186 l 529 186 l 529 258 l 590 258 q 663 314 663 258 q 644 356 663 342 q 586 370 625 370 q 508 317 508 370 l 419 317 q 462 416 419 381 q 586 450 505 450 q 708 417 663 450 q 753 326 753 383 q 736 267 753 290 q 686 232 720 243 l 686 227 q 768 124 768 204 q 720 27 768 62 q 589 -8 672 -8 z "},"¼":{"ha":778,"x_min":11,"x_max":766,"o":"m 588 103 l 357 103 l 357 195 l 578 442 l 675 442 l 675 182 l 736 182 l 736 103 l 675 103 l 675 0 l 588 0 l 588 103 m 588 182 l 588 346 l 585 346 l 446 182 l 588 182 m 467 571 l 699 852 l 766 790 l 513 529 l 467 571 m 11 89 l 265 350 l 311 309 l 79 26 l 11 89 m 208 786 l 75 726 l 43 791 l 228 889 l 296 889 l 296 447 l 208 447 l 208 786 z "},"¾":{"ha":778,"x_min":11,"x_max":766,"o":"m 200 439 q 68 475 114 439 q 22 581 22 512 l 113 581 q 135 534 114 549 q 200 519 157 519 q 264 534 241 519 q 288 576 288 549 q 267 620 288 606 q 201 633 247 633 l 140 633 l 140 705 l 201 705 q 274 761 274 705 q 255 803 274 789 q 197 817 236 817 q 119 764 119 817 l 31 764 q 73 863 31 828 q 197 897 116 897 q 319 864 275 897 q 364 772 364 830 q 348 713 364 736 q 298 679 332 690 l 298 673 q 379 571 379 651 q 331 474 379 509 q 200 439 283 439 m 588 103 l 357 103 l 357 195 l 578 442 l 675 442 l 675 182 l 736 182 l 736 103 l 675 103 l 675 0 l 588 0 l 588 103 m 588 182 l 588 346 l 585 346 l 446 182 l 588 182 m 467 571 l 699 852 l 766 790 l 513 529 l 467 571 m 11 89 l 265 350 l 311 309 l 79 26 l 11 89 z "},"⅕":{"ha":778,"x_min":11,"x_max":768,"o":"m 587 -8 q 460 26 508 -8 q 406 121 413 60 l 500 121 q 529 87 507 98 q 588 75 551 75 q 654 94 631 75 q 677 146 677 112 q 654 198 677 180 q 588 216 631 216 q 503 189 530 216 l 422 217 l 452 442 l 729 442 l 729 363 l 524 363 l 509 252 l 514 250 q 614 286 548 286 q 727 248 685 286 q 768 144 768 210 q 721 32 768 73 q 587 -8 673 -8 m 208 786 l 75 726 l 43 791 l 228 889 l 296 889 l 296 447 l 208 447 l 208 786 m 467 571 l 699 852 l 766 790 l 513 529 l 467 571 m 11 89 l 265 350 l 311 309 l 79 26 l 11 89 z "},"⅖":{"ha":778,"x_min":11,"x_max":768,"o":"m 467 571 l 699 852 l 766 790 l 513 529 l 467 571 m 11 89 l 265 350 l 311 309 l 79 26 l 11 89 m 14 521 l 207 679 q 246 719 235 703 q 257 755 257 736 q 236 798 257 783 q 179 814 216 814 q 121 798 142 814 q 101 753 101 782 l 101 745 l 14 745 l 14 758 q 34 832 14 800 q 93 880 55 863 q 182 897 131 897 q 304 859 259 897 q 349 755 349 821 q 331 689 349 718 q 272 629 314 661 l 140 530 l 140 526 l 349 526 l 349 447 l 14 447 l 14 521 m 587 -8 q 460 26 508 -8 q 406 121 413 60 l 500 121 q 529 87 507 98 q 588 75 551 75 q 654 94 631 75 q 677 146 677 112 q 654 198 677 180 q 588 216 631 216 q 503 189 530 216 l 422 217 l 452 442 l 729 442 l 729 363 l 524 363 l 509 252 l 514 250 q 614 286 548 286 q 727 248 685 286 q 768 144 768 210 q 721 32 768 73 q 587 -8 673 -8 z "},"⅗":{"ha":778,"x_min":11,"x_max":768,"o":"m 200 439 q 68 475 114 439 q 22 581 22 512 l 113 581 q 135 534 114 549 q 200 519 157 519 q 264 534 241 519 q 288 576 288 549 q 267 620 288 606 q 201 633 247 633 l 140 633 l 140 705 l 201 705 q 274 761 274 705 q 255 803 274 789 q 197 817 236 817 q 119 764 119 817 l 31 764 q 73 863 31 828 q 197 897 116 897 q 319 864 275 897 q 364 772 364 830 q 348 713 364 736 q 298 679 332 690 l 298 673 q 379 571 379 651 q 331 474 379 509 q 200 439 283 439 m 467 571 l 699 852 l 766 790 l 513 529 l 467 571 m 11 89 l 265 350 l 311 309 l 79 26 l 11 89 m 587 -8 q 460 26 508 -8 q 406 121 413 60 l 500 121 q 529 87 507 98 q 588 75 551 75 q 654 94 631 75 q 677 146 677 112 q 654 198 677 180 q 588 216 631 216 q 503 189 530 216 l 422 217 l 452 442 l 729 442 l 729 363 l 524 363 l 509 252 l 514 250 q 614 286 548 286 q 727 248 685 286 q 768 144 768 210 q 721 32 768 73 q 587 -8 673 -8 z "},"⅘":{"ha":778,"x_min":-4,"x_max":768,"o":"m 227 550 l -4 550 l -4 642 l 216 889 l 314 889 l 314 629 l 375 629 l 375 550 l 314 550 l 314 447 l 227 447 l 227 550 m 227 629 l 227 793 l 223 793 l 85 629 l 227 629 m 467 571 l 699 852 l 766 790 l 513 529 l 467 571 m 11 89 l 265 350 l 311 309 l 79 26 l 11 89 m 587 -8 q 460 26 508 -8 q 406 121 413 60 l 500 121 q 529 87 507 98 q 588 75 551 75 q 654 94 631 75 q 677 146 677 112 q 654 198 677 180 q 588 216 631 216 q 503 189 530 216 l 422 217 l 452 442 l 729 442 l 729 363 l 524 363 l 509 252 l 514 250 q 614 286 548 286 q 727 248 685 286 q 768 144 768 210 q 721 32 768 73 q 587 -8 673 -8 z "},"⅙":{"ha":778,"x_min":11,"x_max":766,"o":"m 560 -8 q 463 11 505 -8 q 399 64 421 29 q 376 146 376 99 q 390 214 376 182 q 435 289 403 246 l 549 442 l 660 442 l 525 271 l 530 267 q 591 282 557 282 q 671 265 636 282 q 724 217 705 248 q 743 146 743 186 q 721 64 743 99 q 657 11 699 29 q 560 -8 616 -8 m 560 75 q 627 94 603 75 q 652 146 652 113 q 627 199 652 180 q 560 218 603 218 q 493 199 517 218 q 468 146 468 180 q 493 94 468 113 q 560 75 517 75 m 208 786 l 75 726 l 43 791 l 228 889 l 296 889 l 296 447 l 208 447 l 208 786 m 467 571 l 699 852 l 766 790 l 513 529 l 467 571 m 11 89 l 265 350 l 311 309 l 79 26 l 11 89 z "},"⅚":{"ha":778,"x_min":11,"x_max":766,"o":"m 212 439 q 85 473 133 439 q 31 568 38 507 l 125 568 q 154 534 132 545 q 213 522 176 522 q 279 541 256 522 q 302 593 302 559 q 279 645 302 627 q 213 663 256 663 q 128 636 155 663 l 47 664 l 77 889 l 354 889 l 354 810 l 149 810 l 134 699 l 139 697 q 239 733 173 733 q 352 695 310 733 q 393 591 393 657 q 346 479 393 519 q 212 439 298 439 m 467 571 l 699 852 l 766 790 l 513 529 l 467 571 m 11 89 l 265 350 l 311 309 l 79 26 l 11 89 m 560 -8 q 463 11 505 -8 q 399 64 421 29 q 376 146 376 99 q 390 214 376 182 q 435 289 403 246 l 549 442 l 660 442 l 525 271 l 530 267 q 591 282 557 282 q 671 265 636 282 q 724 217 705 248 q 743 146 743 186 q 721 64 743 99 q 657 11 699 29 q 560 -8 616 -8 m 560 75 q 627 94 603 75 q 652 146 652 113 q 627 199 652 180 q 560 218 603 218 q 493 199 517 218 q 468 146 468 180 q 493 94 468 113 q 560 75 517 75 z "},"⅛":{"ha":778,"x_min":11,"x_max":770,"o":"m 583 -8 q 446 27 495 -8 q 397 125 397 62 q 418 191 397 165 q 481 227 438 216 l 481 232 q 429 266 446 243 q 413 324 413 289 q 458 417 413 384 q 583 450 503 450 q 709 417 664 450 q 754 324 754 384 q 738 266 754 289 q 686 232 722 243 l 686 227 q 749 191 729 216 q 770 125 770 165 q 721 27 770 62 q 583 -8 672 -8 m 583 253 q 644 272 624 257 q 664 315 664 286 q 645 357 664 344 q 583 370 625 370 q 523 357 542 370 q 503 315 503 344 q 523 272 503 286 q 583 253 543 257 m 583 73 q 655 87 631 73 q 678 132 678 102 q 656 174 678 160 q 583 192 635 188 q 511 174 532 188 q 489 132 489 160 q 512 87 489 102 q 583 73 536 73 m 208 786 l 75 726 l 43 791 l 228 889 l 296 889 l 296 447 l 208 447 l 208 786 m 467 571 l 699 852 l 766 790 l 513 529 l 467 571 m 11 89 l 265 350 l 311 309 l 79 26 l 11 89 z "},"⅜":{"ha":778,"x_min":11,"x_max":770,"o":"m 583 -8 q 446 27 495 -8 q 397 125 397 62 q 418 191 397 165 q 481 227 438 216 l 481 232 q 429 266 446 243 q 413 324 413 289 q 458 417 413 384 q 583 450 503 450 q 709 417 664 450 q 754 324 754 384 q 738 266 754 289 q 686 232 722 243 l 686 227 q 749 191 729 216 q 770 125 770 165 q 721 27 770 62 q 583 -8 672 -8 m 583 253 q 644 272 624 257 q 664 315 664 286 q 645 357 664 344 q 583 370 625 370 q 523 357 542 370 q 503 315 503 344 q 523 272 503 286 q 583 253 543 257 m 583 73 q 655 87 631 73 q 678 132 678 102 q 656 174 678 160 q 583 192 635 188 q 511 174 532 188 q 489 132 489 160 q 512 87 489 102 q 583 73 536 73 m 467 571 l 699 852 l 766 790 l 513 529 l 467 571 m 11 89 l 265 350 l 311 309 l 79 26 l 11 89 m 200 439 q 68 475 114 439 q 22 581 22 512 l 113 581 q 135 534 114 549 q 200 519 157 519 q 264 534 241 519 q 288 576 288 549 q 267 620 288 606 q 201 633 247 633 l 140 633 l 140 705 l 201 705 q 274 761 274 705 q 255 803 274 789 q 197 817 236 817 q 119 764 119 817 l 31 764 q 73 863 31 828 q 197 897 116 897 q 319 864 275 897 q 364 772 364 830 q 348 713 364 736 q 298 679 332 690 l 298 673 q 379 571 379 651 q 331 474 379 509 q 200 439 283 439 z "},"⅝":{"ha":778,"x_min":11,"x_max":770,"o":"m 212 439 q 85 473 133 439 q 31 568 38 507 l 125 568 q 154 534 132 545 q 213 522 176 522 q 279 541 256 522 q 302 593 302 559 q 279 645 302 627 q 213 663 256 663 q 128 636 155 663 l 47 664 l 77 889 l 354 889 l 354 810 l 149 810 l 134 699 l 139 697 q 239 733 173 733 q 352 695 310 733 q 393 591 393 657 q 346 479 393 519 q 212 439 298 439 m 583 -8 q 446 27 495 -8 q 397 125 397 62 q 418 191 397 165 q 481 227 438 216 l 481 232 q 429 266 446 243 q 413 324 413 289 q 458 417 413 384 q 583 450 503 450 q 709 417 664 450 q 754 324 754 384 q 738 266 754 289 q 686 232 722 243 l 686 227 q 749 191 729 216 q 770 125 770 165 q 721 27 770 62 q 583 -8 672 -8 m 583 253 q 644 272 624 257 q 664 315 664 286 q 645 357 664 344 q 583 370 625 370 q 523 357 542 370 q 503 315 503 344 q 523 272 503 286 q 583 253 543 257 m 583 73 q 655 87 631 73 q 678 132 678 102 q 656 174 678 160 q 583 192 635 188 q 511 174 532 188 q 489 132 489 160 q 512 87 489 102 q 583 73 536 73 m 467 571 l 699 852 l 766 790 l 513 529 l 467 571 m 11 89 l 265 350 l 311 309 l 79 26 l 11 89 z "},"⅞":{"ha":778,"x_min":11,"x_max":770,"o":"m 314 810 l 60 810 l 60 889 l 413 889 l 413 817 l 196 447 l 95 447 l 314 810 m 583 -8 q 446 27 495 -8 q 397 125 397 62 q 418 191 397 165 q 481 227 438 216 l 481 232 q 429 266 446 243 q 413 324 413 289 q 458 417 413 384 q 583 450 503 450 q 709 417 664 450 q 754 324 754 384 q 738 266 754 289 q 686 232 722 243 l 686 227 q 749 191 729 216 q 770 125 770 165 q 721 27 770 62 q 583 -8 672 -8 m 583 253 q 644 272 624 257 q 664 315 664 286 q 645 357 664 344 q 583 370 625 370 q 523 357 542 370 q 503 315 503 344 q 523 272 503 286 q 583 253 543 257 m 583 73 q 655 87 631 73 q 678 132 678 102 q 656 174 678 160 q 583 192 635 188 q 511 174 532 188 q 489 132 489 160 q 512 87 489 102 q 583 73 536 73 m 467 571 l 699 852 l 766 790 l 513 529 l 467 571 m 11 89 l 265 350 l 311 309 l 79 26 l 11 89 z "},"*":{"ha":778,"x_min":74,"x_max":704,"o":"m 357 372 l 351 375 l 134 216 l 74 321 l 319 431 l 319 436 l 74 546 l 134 650 l 351 492 l 357 494 l 329 762 l 449 762 l 421 494 l 427 492 l 644 650 l 704 546 l 458 436 l 458 431 l 704 321 l 644 216 l 427 375 l 421 372 l 449 104 l 329 104 l 357 372 z "},"\\":{"ha":778,"x_min":82,"x_max":696,"o":"m 586 -69 l 82 986 l 192 986 l 696 -69 l 586 -69 z "},"·":{"ha":778,"x_min":275,"x_max":503,"o":"m 389 290 q 331 305 357 290 q 290 346 304 320 q 275 404 275 372 q 290 463 275 437 q 331 504 304 489 q 389 518 357 518 q 447 504 421 518 q 488 463 473 489 q 503 404 503 437 q 488 346 503 372 q 447 305 473 320 q 389 290 421 290 z "},"•":{"ha":778,"x_min":197,"x_max":581,"o":"m 389 267 q 291 292 335 267 q 222 360 248 317 q 197 458 197 404 q 222 556 197 513 q 291 625 248 600 q 389 650 335 650 q 487 625 443 650 q 555 556 530 600 q 581 458 581 513 q 555 360 581 404 q 487 292 530 317 q 389 267 443 267 z "},":":{"ha":778,"x_min":275,"x_max":503,"o":"m 389 467 q 331 481 357 467 q 290 523 304 496 q 275 581 275 549 q 290 638 275 612 q 331 680 304 665 q 389 694 357 694 q 447 680 421 694 q 488 638 473 665 q 503 581 503 612 q 488 523 503 549 q 447 481 473 496 q 389 467 421 467 m 389 -17 q 331 -2 357 -17 q 290 39 304 13 q 275 97 275 65 q 290 156 275 130 q 331 196 304 182 q 389 211 357 211 q 447 196 421 211 q 488 156 473 182 q 503 97 503 130 q 488 39 503 65 q 447 -2 473 13 q 389 -17 421 -17 z "},",":{"ha":778,"x_min":239,"x_max":509,"o":"m 239 -228 q 367 -133 326 -188 q 414 -1 408 -79 q 400 -5 406 -4 q 386 -5 394 -5 q 306 25 337 -5 q 275 103 275 56 q 289 158 275 134 q 328 197 303 183 q 385 211 353 211 q 476 166 443 211 q 509 40 509 121 q 478 -104 509 -38 q 393 -219 448 -170 q 268 -294 339 -268 l 239 -228 z "},"…":{"ha":778,"x_min":36,"x_max":742,"o":"m 131 -17 q 63 10 90 -17 q 36 78 36 37 q 63 145 36 119 q 131 172 90 172 q 198 145 171 172 q 225 78 225 119 q 198 10 225 37 q 131 -17 171 -17 m 389 -17 q 321 10 349 -17 q 294 78 294 37 q 321 145 294 119 q 389 172 349 172 q 456 145 429 172 q 484 78 484 119 q 456 10 484 37 q 389 -17 429 -17 m 647 -17 q 579 10 606 -17 q 553 78 553 37 q 579 145 553 119 q 647 172 606 172 q 715 145 688 172 q 742 78 742 119 q 715 10 742 37 q 647 -17 688 -17 z "},"!":{"ha":778,"x_min":285,"x_max":493,"o":"m 315 917 l 463 917 l 421 328 l 357 328 l 315 917 m 389 -17 q 336 -3 359 -17 q 298 34 312 10 q 285 87 285 58 q 298 141 285 117 q 336 178 312 165 q 389 192 359 192 q 442 178 418 192 q 479 141 466 165 q 493 87 493 117 q 479 34 493 58 q 442 -3 466 10 q 389 -17 418 -17 z "},"¡":{"ha":778,"x_min":285,"x_max":493,"o":"m 389 694 q 442 681 418 694 q 479 643 466 667 q 493 590 493 619 q 479 537 493 561 q 442 500 466 513 q 389 486 418 486 q 336 500 359 486 q 298 537 312 513 q 285 590 285 561 q 298 643 285 619 q 336 681 312 667 q 389 694 359 694 m 421 350 l 463 -239 l 315 -239 l 357 350 l 421 350 z "},"#":{"ha":778,"x_min":37,"x_max":741,"o":"m 183 233 l 37 233 l 49 315 l 196 315 l 232 574 l 87 574 l 98 656 l 244 656 l 278 889 l 366 889 l 332 656 l 507 656 l 541 889 l 628 889 l 595 656 l 741 656 l 729 574 l 582 574 l 546 315 l 690 315 l 679 233 l 533 233 l 500 0 l 412 0 l 446 233 l 271 233 l 237 0 l 150 0 l 183 233 m 458 315 l 494 574 l 319 574 l 283 315 l 458 315 z "},".":{"ha":778,"x_min":275,"x_max":503,"o":"m 389 -17 q 331 -2 357 -17 q 290 39 304 13 q 275 97 275 65 q 290 156 275 130 q 331 196 304 182 q 389 211 357 211 q 447 196 421 211 q 488 156 473 182 q 503 97 503 130 q 488 39 503 65 q 447 -2 473 13 q 389 -17 421 -17 z "},"?":{"ha":778,"x_min":121,"x_max":648,"o":"m 306 361 q 316 424 306 397 q 353 479 327 450 q 429 547 379 507 q 495 605 473 581 q 527 651 518 629 q 536 701 536 673 q 496 799 536 764 q 383 833 456 833 q 269 794 309 833 q 229 681 229 755 l 229 669 l 121 669 l 121 692 q 189 870 121 808 q 385 933 258 933 q 524 906 465 933 q 616 829 584 879 q 648 714 648 780 q 636 628 648 663 q 596 559 625 593 q 511 481 568 526 q 449 427 469 447 q 421 391 429 408 q 414 354 414 375 l 414 328 l 306 328 l 306 361 m 368 -17 q 315 -3 339 -17 q 277 34 291 10 q 264 87 264 58 q 277 141 264 117 q 315 178 291 165 q 368 192 339 192 q 421 178 397 192 q 458 141 445 165 q 472 87 472 117 q 458 34 472 58 q 421 -3 445 10 q 368 -17 397 -17 z "},"¿":{"ha":778,"x_min":129,"x_max":657,"o":"m 410 694 q 463 681 439 694 q 500 643 487 667 q 514 590 514 619 q 500 537 514 561 q 463 500 487 513 q 410 486 439 486 q 357 500 380 486 q 319 537 333 513 q 306 590 306 561 q 319 643 306 619 q 357 681 333 667 q 410 694 380 694 m 472 317 q 461 254 472 281 q 424 199 450 227 q 349 131 398 171 q 282 73 305 97 q 251 26 260 48 q 241 -24 241 4 q 282 -121 241 -86 q 395 -155 322 -155 q 509 -117 470 -155 q 549 -3 549 -78 l 549 8 l 657 8 l 657 -14 q 589 -193 657 -130 q 393 -256 520 -256 q 254 -229 313 -256 q 161 -152 194 -201 q 129 -36 129 -102 q 141 50 129 15 q 181 119 153 85 q 267 197 210 152 q 328 251 308 231 q 356 287 349 271 q 364 323 364 303 l 364 350 l 472 350 l 472 317 z "},"\"":{"ha":778,"x_min":175,"x_max":603,"o":"m 175 917 l 311 917 l 283 439 l 203 439 l 175 917 m 467 917 l 603 917 l 575 439 l 494 439 l 467 917 z "},"'":{"ha":778,"x_min":321,"x_max":457,"o":"m 321 917 l 457 917 l 429 439 l 349 439 l 321 917 z "},";":{"ha":778,"x_min":239,"x_max":509,"o":"m 389 467 q 331 481 357 467 q 290 523 304 496 q 275 581 275 549 q 290 638 275 612 q 331 680 304 665 q 389 694 357 694 q 447 680 421 694 q 488 638 473 665 q 503 581 503 612 q 488 523 503 549 q 447 481 473 496 q 389 467 421 467 m 239 -228 q 367 -133 326 -188 q 414 -1 408 -79 q 400 -5 406 -4 q 386 -5 394 -5 q 306 25 337 -5 q 275 103 275 56 q 289 158 275 134 q 328 197 303 183 q 385 211 353 211 q 476 166 443 211 q 509 40 509 121 q 478 -104 509 -38 q 393 -219 448 -170 q 268 -294 339 -268 l 239 -228 z "},"/":{"ha":778,"x_min":82,"x_max":696,"o":"m 586 986 l 696 986 l 192 -69 l 82 -69 l 586 986 z "},"_":{"ha":778,"x_min":83,"x_max":694,"o":"m 83 -109 l 694 -109 l 694 -200 l 83 -200 l 83 -109 z "},"{":{"ha":778,"x_min":118,"x_max":653,"o":"m 582 -189 q 363 -130 435 -189 q 292 54 292 -70 q 298 150 292 99 q 306 236 306 203 q 273 342 306 310 q 165 375 240 375 l 118 375 l 118 458 l 165 458 q 273 491 240 458 q 306 597 306 524 q 298 684 306 630 q 292 779 292 734 q 363 963 292 903 q 582 1022 435 1022 l 653 1022 l 653 937 l 595 937 q 447 899 494 937 q 400 778 400 861 q 407 694 400 743 q 414 602 414 644 q 383 480 414 524 q 292 419 353 436 l 292 414 q 383 353 353 397 q 414 232 414 309 q 407 139 414 190 q 400 56 400 90 q 447 -66 400 -28 q 595 -104 494 -104 l 653 -104 l 653 -189 l 582 -189 z "},"}":{"ha":778,"x_min":125,"x_max":660,"o":"m 125 -189 l 125 -104 l 183 -104 q 331 -66 284 -104 q 378 56 378 -28 q 371 139 378 90 q 364 232 364 190 q 395 353 364 309 q 486 414 425 397 l 486 419 q 395 480 425 436 q 364 602 364 524 q 371 694 364 644 q 378 778 378 743 q 331 899 378 861 q 183 937 284 937 l 125 937 l 125 1022 l 196 1022 q 415 963 343 1022 q 486 779 486 903 q 479 684 486 734 q 472 597 472 637 q 505 491 472 524 q 612 458 538 458 l 660 458 l 660 375 l 612 375 q 505 342 538 375 q 472 236 472 310 q 479 150 472 196 q 486 54 486 99 q 415 -130 486 -70 q 196 -189 343 -189 l 125 -189 z "},"[":{"ha":778,"x_min":228,"x_max":637,"o":"m 228 1008 l 637 1008 l 637 924 l 334 924 l 334 -90 l 637 -90 l 637 -175 l 228 -175 l 228 1008 z "},"]":{"ha":778,"x_min":140,"x_max":550,"o":"m 140 -175 l 140 -90 l 444 -90 l 444 924 l 140 924 l 140 1008 l 550 1008 l 550 -175 l 140 -175 z "},"(":{"ha":778,"x_min":179,"x_max":625,"o":"m 625 -200 q 388 -80 488 -166 q 233 133 287 5 q 179 416 179 261 q 233 700 179 572 q 388 913 287 827 q 625 1034 488 1000 l 625 940 q 445 833 520 906 q 329 653 369 760 q 289 416 289 547 q 329 180 289 286 q 445 0 369 74 q 625 -107 520 -73 l 625 -200 z "},")":{"ha":778,"x_min":153,"x_max":599,"o":"m 153 -107 q 333 0 258 -73 q 449 180 409 74 q 489 416 489 286 q 449 653 489 547 q 333 833 409 760 q 153 940 258 906 l 153 1034 q 390 913 290 1000 q 545 700 491 827 q 599 416 599 572 q 545 133 599 261 q 390 -80 491 5 q 153 -200 290 -166 l 153 -107 z "},"—":{"ha":778,"x_min":0,"x_max":778,"o":"m 0 452 l 778 452 l 778 359 l 0 359 l 0 452 z "},"–":{"ha":778,"x_min":83,"x_max":694,"o":"m 83 452 l 694 452 l 694 359 l 83 359 l 83 452 z "},"-":{"ha":778,"x_min":111,"x_max":667,"o":"m 111 460 l 667 460 l 667 351 l 111 351 l 111 460 z "},"­":{"ha":778,"x_min":111,"x_max":667,"o":"m 111 460 l 667 460 l 667 351 l 111 351 l 111 460 z "},"«":{"ha":778,"x_min":96,"x_max":646,"o":"m 96 310 l 96 378 l 354 631 l 354 505 l 187 345 l 354 182 l 354 57 l 96 310 m 387 310 l 387 378 l 646 631 l 646 505 l 479 345 l 646 182 l 646 57 l 387 310 z "},"»":{"ha":778,"x_min":132,"x_max":682,"o":"m 132 182 l 298 345 l 132 505 l 132 631 l 390 378 l 390 310 l 132 57 l 132 182 m 424 182 l 590 345 l 424 505 l 424 631 l 682 378 l 682 310 l 424 57 l 424 182 z "},"‹":{"ha":778,"x_min":220,"x_max":533,"o":"m 220 296 l 220 392 l 533 632 l 533 518 l 306 345 l 533 170 l 533 56 l 220 296 z "},"›":{"ha":778,"x_min":244,"x_max":558,"o":"m 244 170 l 472 345 l 244 518 l 244 632 l 558 392 l 558 296 l 244 56 l 244 170 z "},"„":{"ha":778,"x_min":83,"x_max":664,"o":"m 403 -231 q 534 -136 489 -191 q 584 3 578 -82 q 542 -5 567 -5 q 470 21 498 -5 q 442 90 442 47 q 470 160 442 133 q 543 187 498 187 q 632 143 600 187 q 664 25 664 98 q 635 -108 664 -45 q 554 -219 607 -171 q 431 -294 501 -267 l 403 -231 m 83 -231 q 214 -136 169 -191 q 264 3 258 -82 q 222 -5 247 -5 q 150 21 178 -5 q 122 90 122 47 q 150 160 122 133 q 223 187 178 187 q 312 143 280 187 q 344 25 344 98 q 315 -108 344 -45 q 234 -219 287 -171 q 111 -294 181 -267 l 83 -231 z "},"“":{"ha":778,"x_min":114,"x_max":694,"o":"m 375 869 q 244 775 289 829 q 195 636 199 721 q 236 644 211 644 q 308 618 280 644 q 336 549 336 591 q 308 479 336 506 q 235 452 280 452 q 146 496 178 452 q 114 614 114 541 q 142 747 114 684 q 224 858 171 810 q 347 933 277 906 l 375 869 m 694 869 q 564 775 608 829 q 514 636 519 721 q 555 644 530 644 q 628 618 600 644 q 656 549 656 591 q 628 479 656 506 q 554 452 600 452 q 465 496 497 452 q 433 614 433 541 q 462 747 433 684 q 543 858 490 810 q 667 933 596 906 l 694 869 z "},"”":{"ha":778,"x_min":83,"x_max":664,"o":"m 83 515 q 214 610 170 555 q 264 749 259 664 q 222 741 248 741 q 150 767 178 741 q 122 836 122 793 q 150 906 122 879 q 224 933 178 933 q 313 889 281 933 q 345 771 345 844 q 316 638 345 701 q 235 527 288 575 q 111 452 182 478 l 83 515 m 403 515 q 534 610 489 555 q 583 749 578 664 q 542 741 567 741 q 470 767 498 741 q 441 836 441 793 q 470 906 441 879 q 543 933 498 933 q 632 889 600 933 q 664 771 664 844 q 635 638 664 701 q 554 527 607 575 q 431 452 501 478 l 403 515 z "},"‘":{"ha":778,"x_min":273,"x_max":534,"o":"m 534 869 q 404 775 449 829 q 354 636 359 721 q 396 644 372 644 q 468 618 440 644 q 496 549 496 591 q 468 479 496 506 q 395 452 440 452 q 305 496 337 452 q 273 614 273 541 q 302 747 273 684 q 383 858 330 810 q 507 933 436 906 l 534 869 z "},"’":{"ha":778,"x_min":243,"x_max":504,"o":"m 243 515 q 374 610 329 555 q 424 749 418 664 q 382 741 407 741 q 310 767 338 741 q 282 836 282 793 q 310 906 282 879 q 383 933 338 933 q 472 889 440 933 q 504 771 504 844 q 475 638 504 701 q 394 527 447 575 q 271 452 341 478 l 243 515 z "},"‚":{"ha":778,"x_min":243,"x_max":504,"o":"m 243 -231 q 374 -136 329 -191 q 424 3 418 -82 q 382 -5 407 -5 q 310 21 338 -5 q 282 90 282 47 q 310 160 282 133 q 383 187 338 187 q 472 143 440 187 q 504 25 504 98 q 475 -108 504 -45 q 394 -219 447 -171 q 271 -294 341 -267 l 243 -231 z "}," ":{"ha":778,"x_min":0,"x_max":0,"o":""},"¢":{"ha":778,"x_min":110,"x_max":684,"o":"m 367 29 q 175 126 239 37 q 110 382 110 214 q 175 638 110 549 q 367 734 239 726 l 357 882 l 452 882 l 441 733 q 599 674 538 728 q 684 519 660 620 l 568 519 q 437 633 538 625 l 437 131 q 568 244 538 139 l 684 244 q 599 90 660 144 q 441 31 538 35 l 452 -118 l 357 -118 l 367 29 m 371 633 q 258 567 294 627 q 222 382 222 506 q 258 197 222 258 q 371 131 294 137 l 371 633 z "},"¤":{"ha":778,"x_min":40,"x_max":737,"o":"m 40 165 l 186 300 q 142 444 142 364 q 186 589 142 525 l 40 724 l 110 793 l 248 646 q 389 685 308 685 q 530 646 470 685 l 668 793 l 737 724 l 591 589 q 636 444 636 524 q 591 300 636 366 l 737 165 l 668 96 l 530 243 q 389 204 469 204 q 248 243 309 204 l 110 96 l 40 165 m 389 297 q 462 316 430 297 q 512 368 494 334 q 530 444 530 401 q 512 521 530 488 q 462 573 494 554 q 389 591 430 591 q 316 573 348 591 q 266 521 283 554 q 248 444 248 488 q 266 368 248 401 q 316 316 283 334 q 389 297 348 297 z "},"$":{"ha":778,"x_min":107,"x_max":668,"o":"m 353 29 q 174 95 237 37 q 107 253 110 153 l 218 253 q 355 129 224 144 l 355 399 l 335 404 q 176 487 226 433 q 126 628 126 541 q 185 791 126 730 q 353 860 245 851 l 342 1007 l 436 1007 l 425 860 q 581 796 523 850 q 643 652 638 741 l 532 652 q 499 724 527 696 q 422 758 471 751 l 422 493 l 460 484 q 618 401 569 454 q 668 260 668 347 q 604 97 668 157 q 425 29 541 36 l 436 -118 l 342 -118 l 353 29 m 355 760 q 268 720 299 752 q 237 633 237 687 q 263 557 237 585 q 355 511 290 530 l 355 760 m 422 129 q 522 168 487 136 q 557 254 557 201 q 544 314 557 291 q 502 352 530 337 q 422 380 473 368 l 422 129 z "},"€":{"ha":778,"x_min":57,"x_max":714,"o":"m 446 -17 q 299 16 358 -17 q 207 120 241 50 q 163 304 174 191 l 57 304 l 87 387 l 157 387 l 157 509 l 57 509 l 87 591 l 163 591 q 209 771 175 702 q 301 873 243 840 q 446 905 359 905 q 624 847 559 905 q 714 664 689 788 l 600 664 q 544 771 581 736 q 444 806 506 806 q 329 755 370 806 q 275 591 288 704 l 518 591 l 518 509 l 269 509 l 269 387 l 518 387 l 518 304 l 275 304 q 328 136 288 188 q 444 83 369 83 q 544 118 506 83 q 600 225 581 152 l 714 225 q 624 42 689 101 q 446 -17 558 -17 z "},"ƒ":{"ha":778,"x_min":56,"x_max":708,"o":"m 161 -98 q 56 -82 106 -98 l 62 16 q 155 1 105 1 q 267 40 231 1 q 307 164 302 78 l 326 458 l 121 458 l 127 554 l 334 554 l 340 657 q 417 842 349 779 q 602 905 486 905 q 708 889 660 905 l 701 791 q 608 806 664 806 q 519 789 553 806 q 468 738 485 773 q 447 643 451 702 l 441 554 l 647 554 l 640 458 l 435 458 l 414 150 q 341 -35 406 29 q 161 -98 276 -98 z "},"₹":{"ha":778,"x_min":103,"x_max":692,"o":"m 103 385 l 103 441 l 192 441 q 355 473 298 441 q 422 574 411 505 l 103 574 l 103 665 l 419 665 q 357 763 406 729 q 231 798 309 798 l 103 798 l 103 889 l 692 889 l 692 798 l 446 798 l 444 791 q 532 665 513 749 l 692 665 l 692 574 l 536 574 q 463 424 527 480 q 282 354 399 368 l 281 351 l 623 0 l 473 0 l 103 385 z "},"£":{"ha":778,"x_min":87,"x_max":701,"o":"m 87 82 q 213 159 168 104 q 258 289 258 214 q 232 397 258 333 l 87 397 l 87 478 l 189 488 q 149 581 163 540 q 135 663 135 623 q 166 793 135 739 q 257 877 197 848 q 399 905 316 905 q 599 842 529 905 q 669 661 669 779 l 558 661 q 517 769 557 732 q 400 806 476 806 q 288 768 328 806 q 248 664 248 730 q 259 600 248 634 q 302 493 271 565 l 597 493 l 597 397 l 342 397 q 359 289 359 341 q 336 182 359 228 q 264 102 313 136 l 264 96 l 538 96 q 581 107 570 96 q 593 149 593 118 l 593 184 l 701 184 l 701 117 q 673 27 701 55 q 582 0 646 0 l 87 0 l 87 82 z "},"¥":{"ha":778,"x_min":66,"x_max":711,"o":"m 335 192 l 117 192 l 117 271 l 335 271 l 335 395 l 117 395 l 117 473 l 335 473 l 335 478 l 66 889 l 195 889 l 389 579 l 395 579 l 589 889 l 711 889 l 443 478 l 443 473 l 661 473 l 661 395 l 443 395 l 443 271 l 661 271 l 661 192 l 443 192 l 443 0 l 335 0 l 335 192 z "},"∙":{"ha":778,"x_min":264,"x_max":514,"o":"m 389 281 q 326 297 355 281 q 280 343 297 314 q 264 406 264 372 q 280 468 264 439 q 326 514 297 497 q 389 530 355 530 q 452 514 423 530 q 497 468 481 497 q 514 406 514 439 q 497 343 514 372 q 452 297 481 314 q 389 281 423 281 z "},"∕":{"ha":778,"x_min":102,"x_max":676,"o":"m 564 889 l 676 889 l 214 0 l 102 0 l 564 889 z "},"+":{"ha":778,"x_min":81,"x_max":697,"o":"m 339 355 l 81 355 l 81 456 l 339 456 l 339 714 l 439 714 l 439 456 l 697 456 l 697 355 l 439 355 l 439 97 l 339 97 l 339 355 z "},"−":{"ha":778,"x_min":81,"x_max":697,"o":"m 81 456 l 697 456 l 697 355 l 81 355 l 81 456 z "},"×":{"ha":778,"x_min":110,"x_max":668,"o":"m 110 196 l 319 406 l 110 615 l 179 685 l 389 475 l 599 685 l 668 615 l 458 406 l 668 196 l 599 126 l 389 336 l 179 126 l 110 196 z "},"÷":{"ha":778,"x_min":81,"x_max":697,"o":"m 389 581 q 341 593 363 581 q 307 627 319 606 q 294 675 294 649 q 307 723 294 701 q 341 757 319 745 q 389 770 363 770 q 436 757 414 770 q 471 723 458 745 q 484 675 484 701 q 471 627 484 649 q 436 593 458 606 q 389 581 414 581 m 81 456 l 697 456 l 697 355 l 81 355 l 81 456 m 389 41 q 341 54 363 41 q 307 89 319 66 q 294 136 294 111 q 307 184 294 162 q 341 218 319 205 q 389 231 363 231 q 436 218 414 231 q 471 184 458 205 q 484 136 484 162 q 471 89 484 111 q 436 54 458 66 q 389 41 414 41 z "},"=":{"ha":778,"x_min":94,"x_max":684,"o":"m 94 585 l 684 585 l 684 485 l 94 485 l 94 585 m 94 326 l 684 326 l 684 227 l 94 227 l 94 326 z "},"≠":{"ha":778,"x_min":94,"x_max":684,"o":"m 245 227 l 94 227 l 94 326 l 301 326 l 390 485 l 94 485 l 94 585 l 446 585 l 550 779 l 646 779 l 532 585 l 684 585 l 684 485 l 476 485 l 387 326 l 684 326 l 684 227 l 332 227 l 228 32 l 132 32 l 245 227 z "},">":{"ha":778,"x_min":134,"x_max":667,"o":"m 134 144 l 553 406 l 134 667 l 134 783 l 667 452 l 667 359 l 134 28 l 134 144 z "},"<":{"ha":778,"x_min":111,"x_max":644,"o":"m 111 359 l 111 452 l 644 783 l 644 667 l 225 406 l 644 144 l 644 28 l 111 359 z "},"≥":{"ha":778,"x_min":109,"x_max":676,"o":"m 109 343 l 514 493 l 514 498 l 109 648 l 109 755 l 676 542 l 676 450 l 109 236 l 109 343 m 109 157 l 676 157 l 676 57 l 109 57 l 109 157 z "},"≤":{"ha":778,"x_min":102,"x_max":669,"o":"m 102 450 l 102 542 l 669 755 l 669 648 l 264 498 l 264 493 l 669 343 l 669 236 l 102 450 m 102 57 l 102 157 l 669 157 l 669 57 l 102 57 z "},"±":{"ha":778,"x_min":94,"x_max":684,"o":"m 339 446 l 94 446 l 94 546 l 339 546 l 339 762 l 439 762 l 439 546 l 684 546 l 684 446 l 439 446 l 439 229 l 339 229 l 339 446 m 94 157 l 684 157 l 684 57 l 94 57 l 94 157 z "},"≈":{"ha":778,"x_min":94,"x_max":684,"o":"m 514 435 q 436 451 469 435 q 363 504 403 467 q 309 547 329 535 q 264 559 289 559 q 205 531 225 559 q 182 437 186 502 l 94 437 q 144 608 101 554 q 267 663 187 663 q 343 646 311 663 q 415 593 376 629 q 470 550 450 562 q 515 538 490 538 q 572 567 553 538 q 596 660 591 595 l 684 660 q 634 489 677 544 q 514 435 591 435 m 514 144 q 436 161 469 144 q 363 214 403 177 q 309 257 329 245 q 264 269 289 269 q 205 240 225 269 q 182 147 186 212 l 94 147 q 144 318 101 264 q 267 372 187 372 q 343 356 311 372 q 415 302 376 339 q 469 259 449 271 q 515 248 489 248 q 572 276 553 248 q 596 370 591 305 l 684 370 q 634 199 677 254 q 514 144 591 144 z "},"~":{"ha":778,"x_min":81,"x_max":697,"o":"m 522 261 q 469 271 492 261 q 422 300 446 280 q 364 358 398 321 q 312 414 329 397 q 282 437 295 431 q 252 444 269 444 q 209 429 226 444 q 182 374 193 414 q 170 264 172 335 l 81 264 q 256 546 86 546 q 309 536 286 546 q 356 507 332 527 q 414 449 380 486 q 465 393 448 410 q 496 370 482 376 q 526 363 509 363 q 569 378 552 363 q 595 433 585 393 q 608 543 606 472 l 697 543 q 522 261 692 261 z "},"¬":{"ha":778,"x_min":81,"x_max":663,"o":"m 562 355 l 81 355 l 81 456 l 663 456 l 663 97 l 562 97 l 562 355 z "},"∅":{"ha":778,"x_min":45,"x_max":733,"o":"m 45 126 l 129 205 q 64 406 64 291 q 105 570 64 497 q 221 684 147 643 q 389 725 296 725 q 495 709 445 725 q 587 664 546 694 l 668 750 l 733 685 l 648 606 q 714 406 714 521 q 672 241 714 314 q 556 127 631 168 q 389 86 482 86 q 282 102 332 86 q 191 147 231 118 l 110 61 l 45 126 m 519 595 q 389 635 464 635 q 274 605 325 635 q 195 524 224 576 q 167 406 167 471 q 201 277 167 332 l 519 595 m 389 176 q 503 206 452 176 q 583 288 554 235 q 611 406 611 340 q 576 534 611 479 l 258 216 q 389 176 314 176 z "},"∞":{"ha":778,"x_min":37,"x_max":741,"o":"m 212 179 q 79 241 121 179 q 37 407 37 304 q 79 571 37 509 q 210 632 121 632 q 309 603 268 632 q 383 510 350 574 l 389 510 q 462 600 419 568 q 566 632 505 632 q 699 570 656 632 q 741 404 741 507 q 699 240 741 302 q 568 179 657 179 q 469 208 510 179 q 395 301 428 237 l 389 301 q 316 211 359 243 q 212 179 273 179 m 218 275 q 266 291 246 275 q 297 330 285 307 q 330 401 310 354 l 342 428 q 308 485 322 464 q 271 522 293 507 q 218 538 249 538 q 158 504 179 538 q 136 407 136 470 q 157 310 136 344 q 218 275 178 275 m 559 273 q 620 307 599 273 q 642 404 642 341 q 621 502 642 467 q 559 536 600 536 q 512 521 532 536 q 481 482 493 505 q 447 410 469 458 l 436 383 q 470 326 456 347 q 507 289 485 304 q 559 273 529 273 z "},"∫":{"ha":778,"x_min":163,"x_max":615,"o":"m 248 -189 q 163 -175 203 -189 l 163 -72 q 198 -84 182 -81 q 231 -87 213 -87 q 312 -52 287 -87 q 336 65 336 -16 l 336 829 q 384 1018 336 958 q 530 1078 431 1078 q 615 1064 577 1078 l 615 961 q 580 973 595 970 q 547 977 565 977 q 466 941 491 977 q 441 823 441 905 l 441 60 q 394 -129 441 -68 q 248 -189 347 -189 z "},"Ω":{"ha":778,"x_min":64,"x_max":714,"o":"m 64 100 l 221 100 l 221 106 q 107 315 144 209 q 71 538 71 420 q 109 748 71 659 q 218 885 146 838 q 389 933 290 933 q 559 885 488 933 q 669 748 631 838 q 707 538 707 659 q 670 314 707 420 q 557 106 633 209 l 557 100 l 714 100 l 714 0 l 450 0 l 450 90 q 558 288 522 184 q 595 515 595 391 q 541 747 595 667 q 389 827 488 827 q 237 747 290 827 q 183 515 183 667 q 220 288 183 391 q 328 90 256 184 l 328 0 l 64 0 l 64 100 z "},"∆":{"ha":778,"x_min":60,"x_max":718,"o":"m 60 79 l 328 917 l 450 917 l 718 79 l 718 0 l 60 0 l 60 79 m 597 100 l 390 775 l 385 775 l 178 100 l 597 100 z "},"∏":{"ha":778,"x_min":89,"x_max":689,"o":"m 89 889 l 689 889 l 689 -172 l 578 -172 l 578 789 l 200 789 l 200 -172 l 89 -172 l 89 889 z "},"∑":{"ha":778,"x_min":93,"x_max":696,"o":"m 93 -64 l 425 358 l 93 781 l 93 889 l 696 889 l 696 789 l 227 789 l 564 358 l 227 -72 l 696 -72 l 696 -172 l 93 -172 l 93 -64 z "},"√":{"ha":778,"x_min":62,"x_max":757,"o":"m 62 481 l 170 481 l 294 127 l 300 127 l 566 1061 l 757 1061 l 757 965 l 636 965 l 361 0 l 239 0 l 62 481 z "},"∂":{"ha":778,"x_min":68,"x_max":688,"o":"m 326 -17 q 192 17 250 -17 q 100 113 133 51 q 68 254 68 174 q 107 414 68 342 q 214 525 146 485 q 367 566 283 566 q 485 539 433 566 q 568 464 537 513 l 574 464 q 575 515 575 481 q 380 833 575 833 q 222 764 292 833 l 165 842 q 390 933 257 933 q 611 827 535 933 q 688 519 688 722 q 643 240 688 362 q 516 51 598 119 q 326 -17 434 -17 m 330 83 q 457 136 403 83 q 543 285 512 189 q 545 309 545 293 q 523 390 545 355 q 462 446 501 426 q 374 465 423 465 q 272 438 316 465 q 204 364 229 412 q 180 256 180 316 q 199 164 180 203 q 252 104 218 125 q 330 83 286 83 z "},"µ":{"ha":778,"x_min":122,"x_max":726,"o":"m 122 677 l 231 677 l 231 245 q 263 124 231 165 q 359 83 296 83 q 450 109 410 83 q 511 181 489 135 q 533 286 533 227 l 533 677 l 642 677 l 642 136 q 652 96 642 108 q 686 83 663 83 q 726 94 708 83 l 726 0 q 656 -17 694 -17 q 569 14 598 -17 q 539 104 539 44 l 539 115 l 533 115 q 457 18 506 52 q 343 -17 408 -17 q 222 40 261 -17 l 216 40 q 231 -225 219 -146 l 231 -306 l 122 -306 l 122 677 z "},"%":{"ha":778,"x_min":11,"x_max":766,"o":"m 467 571 l 699 852 l 766 790 l 513 529 l 467 571 m 11 89 l 265 350 l 311 309 l 79 26 l 11 89 m 208 439 q 67 496 114 439 q 21 668 21 553 q 67 840 21 783 q 208 897 114 897 q 350 840 303 897 q 396 668 396 783 q 350 496 396 553 q 208 439 303 439 m 208 522 q 281 557 258 522 q 304 668 304 592 q 281 779 304 744 q 208 814 258 814 q 135 779 158 814 q 113 668 113 744 q 136 557 113 592 q 208 522 159 522 m 569 -8 q 428 49 475 -8 q 382 221 382 106 q 428 393 382 336 q 569 450 475 450 q 710 393 664 450 q 757 221 757 336 q 710 49 757 106 q 569 -8 664 -8 m 569 75 q 642 110 619 75 q 665 221 665 145 q 642 332 665 297 q 569 367 619 367 q 496 332 519 367 q 473 221 473 297 q 496 110 473 145 q 569 75 519 75 z "},"‰":{"ha":778,"x_min":40,"x_max":768,"o":"m 210 533 q 84 581 129 533 q 40 715 40 628 q 84 850 40 803 q 210 897 128 897 q 335 850 291 897 q 379 715 379 803 q 335 581 379 628 q 210 533 291 533 m 210 606 q 273 632 252 606 q 293 715 293 659 q 273 799 293 772 q 210 825 252 825 q 146 799 167 825 q 126 715 126 772 q 146 632 126 659 q 210 606 167 606 m 81 410 l 700 639 l 726 549 l 94 366 l 81 410 m 210 -8 q 84 39 128 -8 q 40 174 40 86 q 84 308 40 261 q 210 355 128 355 q 335 308 291 355 q 379 174 379 261 q 335 39 379 86 q 210 -8 291 -8 m 599 -8 q 473 39 517 -8 q 429 174 429 86 q 473 308 429 261 q 599 355 517 355 q 724 308 680 355 q 768 174 768 261 q 724 39 768 86 q 599 -8 680 -8 m 210 64 q 273 91 252 64 q 293 174 293 117 q 273 257 293 230 q 210 283 252 283 q 146 257 167 283 q 126 174 126 230 q 146 91 126 117 q 210 64 167 64 m 599 64 q 662 91 642 64 q 682 174 682 117 q 662 257 682 230 q 599 283 642 283 q 536 257 556 283 q 515 174 515 230 q 536 91 515 117 q 599 64 556 64 z "},"↑":{"ha":778,"x_min":39,"x_max":745,"o":"m 340 619 l 107 379 l 39 444 l 390 806 l 393 806 l 745 444 l 676 379 l 443 618 l 443 31 l 340 31 l 340 619 z "},"↗":{"ha":778,"x_min":50,"x_max":657,"o":"m 50 143 l 489 581 l 153 576 l 150 671 l 656 677 l 657 675 l 650 171 l 555 174 l 559 507 l 122 71 l 50 143 z "},"→":{"ha":778,"x_min":35,"x_max":751,"o":"m 325 121 l 566 355 l 35 355 l 35 456 l 566 456 l 325 690 l 390 758 l 751 407 l 751 404 l 390 53 l 325 121 z "},"↘":{"ha":778,"x_min":49,"x_max":656,"o":"m 149 140 l 151 235 l 488 231 l 49 668 l 121 741 l 558 304 l 554 637 l 648 640 l 656 136 l 654 134 l 149 140 z "},"↓":{"ha":778,"x_min":36,"x_max":742,"o":"m 36 367 l 104 432 l 338 193 l 338 781 l 440 781 l 440 193 l 673 432 l 742 367 l 390 5 l 387 5 l 36 367 z "},"↙":{"ha":778,"x_min":121,"x_max":729,"o":"m 121 136 l 127 640 l 222 637 l 218 302 l 656 741 l 729 668 l 290 231 l 625 235 l 628 140 l 123 134 l 121 136 z "},"←":{"ha":778,"x_min":26,"x_max":743,"o":"m 26 404 l 26 407 l 387 758 l 453 690 l 212 456 l 743 456 l 743 355 l 212 355 l 453 121 l 387 53 l 26 404 z "},"↖":{"ha":778,"x_min":122,"x_max":730,"o":"m 220 509 l 224 174 l 129 171 l 122 675 l 125 677 l 629 671 l 627 576 l 292 581 l 730 143 l 657 71 l 220 509 z "},"↔":{"ha":778,"x_min":17,"x_max":761,"o":"m 17 404 l 17 407 l 239 689 l 306 639 l 167 456 l 611 456 l 472 639 l 539 689 l 761 407 l 761 404 l 539 122 l 472 172 l 611 355 l 167 355 l 306 172 l 239 122 l 17 404 z "},"↕":{"ha":778,"x_min":106,"x_max":672,"o":"m 106 214 l 157 281 l 338 143 l 338 668 l 157 530 l 106 597 l 387 819 l 390 819 l 672 597 l 621 530 l 440 668 l 440 143 l 621 281 l 672 214 l 390 -8 l 387 -8 l 106 214 z "},"◊":{"ha":778,"x_min":64,"x_max":714,"o":"m 64 458 l 323 917 l 454 917 l 714 458 l 454 0 l 323 0 l 64 458 m 392 107 l 586 458 l 392 810 l 386 810 l 192 458 l 386 107 l 392 107 z "},"":{"ha":778,"x_min":77,"x_max":701,"o":"m 77 652 l 252 652 l 252 476 l 77 476 l 77 652 m 301 427 l 277 427 l 277 551 l 326 551 l 326 602 l 277 602 l 277 652 l 301 652 l 301 627 l 351 627 l 351 602 l 376 602 l 376 627 l 351 627 l 351 652 l 401 652 l 401 627 l 427 627 l 427 652 l 452 652 l 452 602 l 476 602 l 476 576 l 452 576 l 452 526 l 427 526 l 427 501 l 401 501 l 401 576 l 351 576 l 351 551 l 376 551 l 376 501 l 351 501 l 351 526 l 301 526 l 301 452 l 326 452 l 326 501 l 351 501 l 351 476 l 376 476 l 376 501 l 401 501 l 401 452 l 351 452 l 351 401 l 301 401 l 301 427 m 476 652 l 501 652 l 501 602 l 476 602 l 476 652 m 526 652 l 701 652 l 701 476 l 526 476 l 526 652 m 227 501 l 227 627 l 102 627 l 102 501 l 227 501 m 676 501 l 676 627 l 551 627 l 551 501 l 676 501 m 126 602 l 201 602 l 201 526 l 126 526 l 126 602 m 576 602 l 652 602 l 652 526 l 576 526 l 576 602 m 427 501 l 452 501 l 452 452 l 427 452 l 427 501 m 476 501 l 501 501 l 501 476 l 476 476 l 476 501 m 102 401 l 77 401 l 77 452 l 151 452 l 151 427 l 126 427 l 126 401 l 151 401 l 151 376 l 102 376 l 102 401 m 176 427 l 201 427 l 201 452 l 252 452 l 252 427 l 227 427 l 227 401 l 176 401 l 176 427 m 452 452 l 476 452 l 476 427 l 501 427 l 501 401 l 476 401 l 476 376 l 452 376 l 452 452 m 501 401 l 526 401 l 526 427 l 501 427 l 501 452 l 602 452 l 602 427 l 576 427 l 576 401 l 602 401 l 602 427 l 627 427 l 627 401 l 652 401 l 652 376 l 627 376 l 627 351 l 576 351 l 576 376 l 526 376 l 526 351 l 501 351 l 501 401 m 676 401 l 652 401 l 652 452 l 701 452 l 701 376 l 676 376 l 676 401 m 227 401 l 252 401 l 252 427 l 277 427 l 277 376 l 227 376 l 227 401 m 401 427 l 427 427 l 427 401 l 401 401 l 401 427 m 351 401 l 376 401 l 376 376 l 351 376 l 351 401 m 151 376 l 176 376 l 176 351 l 151 351 l 151 376 m 176 351 l 201 351 l 201 376 l 227 376 l 227 351 l 277 351 l 277 326 l 176 326 l 176 351 m 301 376 l 326 376 l 326 301 l 301 301 l 301 376 m 427 376 l 452 376 l 452 351 l 427 351 l 427 376 m 77 351 l 102 351 l 102 301 l 77 301 l 77 351 m 401 52 l 427 52 l 427 77 l 401 77 l 401 52 l 351 52 l 351 77 l 376 77 l 376 126 l 351 126 l 351 102 l 326 102 l 326 151 l 401 151 l 401 176 l 427 176 l 427 126 l 401 126 l 401 102 l 452 102 l 452 176 l 476 176 l 476 201 l 452 201 l 452 227 l 427 227 l 427 201 l 401 201 l 401 252 l 427 252 l 427 277 l 452 277 l 452 252 l 476 252 l 476 277 l 452 277 l 452 326 l 526 326 l 526 351 l 576 351 l 576 301 l 652 301 l 652 277 l 576 277 l 576 252 l 602 252 l 602 201 l 627 201 l 627 176 l 602 176 l 602 151 l 627 151 l 627 126 l 676 126 l 676 102 l 701 102 l 701 77 l 652 77 l 652 102 l 602 102 l 602 52 l 551 52 l 551 26 l 526 26 l 526 52 l 501 52 l 501 26 l 476 26 l 476 77 l 452 77 l 452 26 l 401 26 l 401 52 m 351 277 l 376 277 l 376 326 l 351 326 l 351 351 l 401 351 l 401 326 l 427 326 l 427 277 l 401 277 l 401 252 l 351 252 l 351 277 m 676 301 l 652 301 l 652 326 l 676 326 l 676 351 l 701 351 l 701 277 l 676 277 l 676 301 m 176 252 l 151 252 l 151 277 l 126 277 l 126 301 l 151 301 l 151 326 l 176 326 l 176 277 l 201 277 l 201 227 l 176 227 l 176 252 m 277 227 l 227 227 l 227 252 l 252 252 l 252 277 l 201 277 l 201 301 l 277 301 l 277 252 l 301 252 l 301 201 l 277 201 l 277 227 m 326 301 l 351 301 l 351 277 l 326 277 l 326 301 m 77 277 l 126 277 l 126 252 l 77 252 l 77 277 m 301 277 l 326 277 l 326 252 l 301 252 l 301 277 m 526 252 l 526 277 l 501 277 l 501 252 l 526 252 m 126 252 l 151 252 l 151 227 l 126 227 l 126 252 m 326 252 l 351 252 l 351 227 l 326 227 l 326 252 m 652 252 l 676 252 l 676 227 l 652 227 l 652 252 m 576 151 l 576 227 l 501 227 l 501 151 l 576 151 m 627 227 l 652 227 l 652 201 l 627 201 l 627 227 m 676 151 l 652 151 l 652 176 l 676 176 l 676 227 l 701 227 l 701 126 l 676 126 l 676 151 m 77 201 l 252 201 l 252 26 l 77 26 l 77 201 m 277 176 l 301 176 l 301 201 l 326 201 l 326 151 l 277 151 l 277 176 m 351 201 l 376 201 l 376 176 l 351 176 l 351 201 m 526 201 l 551 201 l 551 176 l 526 176 l 526 201 m 227 52 l 227 176 l 102 176 l 102 52 l 227 52 m 126 151 l 201 151 l 201 77 l 126 77 l 126 151 m 501 102 l 501 126 l 476 126 l 476 102 l 501 102 m 576 77 l 576 126 l 526 126 l 526 77 l 576 77 m 277 102 l 326 102 l 326 52 l 351 52 l 351 26 l 277 26 l 277 102 m 602 52 l 627 52 l 627 26 l 602 26 l 602 52 m 676 52 l 701 52 l 701 26 l 676 26 l 676 52 z "},"@":{"ha":778,"x_min":49,"x_max":720,"o":"m 443 -65 q 235 -6 324 -65 q 97 163 146 54 q 49 418 49 272 q 97 672 49 564 q 234 840 145 781 q 441 899 323 899 q 650 818 581 899 q 720 576 720 738 l 720 227 l 646 227 l 629 322 l 624 322 q 556 239 600 269 q 456 210 512 210 q 360 234 401 210 q 295 303 318 258 q 272 406 272 347 q 301 515 272 469 q 383 586 330 562 q 510 611 437 611 l 618 611 q 568 756 612 709 q 439 803 524 803 q 287 755 352 803 q 188 620 222 708 q 153 414 153 532 q 188 209 153 296 q 291 77 224 123 q 449 31 358 31 q 596 71 531 31 l 635 -14 q 443 -65 555 -65 m 481 306 q 554 329 523 306 q 602 395 585 352 q 619 496 619 438 l 619 522 l 509 522 q 412 492 447 522 q 376 408 376 462 q 405 334 376 361 q 481 306 433 306 z "},"&":{"ha":778,"x_min":58,"x_max":746,"o":"m 319 -17 q 183 14 242 -17 q 91 103 123 45 q 58 235 58 160 q 96 374 58 311 q 212 493 134 437 q 141 616 162 562 q 121 721 121 670 q 148 832 121 784 q 224 907 175 880 q 338 933 273 933 q 450 908 401 933 q 527 838 499 883 q 554 734 554 793 q 505 601 554 661 q 349 484 456 541 l 536 256 l 539 256 q 567 460 567 343 l 669 460 q 652 305 669 378 q 602 175 635 233 l 746 0 l 614 0 l 545 86 q 446 9 504 36 q 319 -17 389 -17 m 296 550 q 388 611 355 584 q 435 666 420 638 q 449 728 449 693 q 419 805 449 776 q 342 835 390 835 q 259 804 288 835 q 229 718 229 773 q 244 641 229 681 q 296 550 260 601 m 328 82 q 486 157 423 82 l 267 424 q 194 341 218 385 q 171 243 171 296 q 213 125 171 169 q 328 82 256 82 z "},"¶":{"ha":778,"x_min":71,"x_max":640,"o":"m 366 393 q 143 458 216 393 q 71 656 71 523 q 143 852 71 788 q 366 917 216 917 l 419 917 l 419 393 l 366 393 m 532 -167 l 532 917 l 640 917 l 640 -167 l 532 -167 z "},"§":{"ha":778,"x_min":96,"x_max":682,"o":"m 389 -183 q 276 -161 326 -183 q 195 -99 226 -139 q 158 -7 164 -59 l 269 -7 q 311 -64 279 -43 q 392 -85 343 -85 q 484 -55 450 -85 q 518 25 518 -25 q 491 95 518 70 q 400 138 464 121 l 273 171 q 140 240 184 194 q 96 363 96 287 q 131 469 96 422 q 235 547 167 515 l 235 553 q 149 717 149 609 q 178 831 149 782 q 261 907 207 880 q 389 933 316 933 q 502 911 452 933 q 583 849 552 889 q 619 757 613 809 l 509 757 q 467 814 499 793 q 386 835 435 835 q 294 805 328 835 q 260 725 260 775 q 287 655 260 680 q 378 612 314 629 l 504 579 q 638 510 593 556 q 682 387 682 463 q 647 281 682 328 q 543 203 611 234 l 543 197 q 629 33 629 141 q 600 -81 629 -32 q 516 -157 570 -130 q 389 -183 462 -183 m 439 239 q 537 289 503 256 q 571 368 571 323 q 544 438 571 413 q 453 481 517 464 l 339 511 q 241 461 275 494 q 207 382 207 427 q 234 312 207 337 q 325 269 261 286 l 439 239 z "},"©":{"ha":778,"x_min":39,"x_max":739,"o":"m 389 83 q 202 135 281 83 q 81 282 123 186 q 39 509 39 378 q 81 735 39 640 q 202 882 123 831 q 389 933 281 933 q 575 882 496 933 q 697 735 654 831 q 739 509 739 640 q 697 282 739 378 q 575 135 654 186 q 389 83 496 83 m 389 158 q 533 200 473 158 q 626 320 594 241 q 659 509 659 399 q 626 697 659 618 q 533 817 594 776 q 389 859 473 859 q 244 817 304 859 q 152 697 184 776 q 119 509 119 618 q 152 320 119 399 q 244 200 184 241 q 389 158 304 158 m 386 278 q 261 335 302 278 q 220 509 220 391 q 261 682 220 625 q 386 739 302 739 q 497 701 457 739 q 549 583 537 663 l 463 583 q 387 663 448 663 q 325 626 345 663 q 306 509 306 589 q 325 391 306 427 q 387 354 345 354 q 463 433 448 354 l 549 433 q 497 316 537 354 q 386 278 457 278 z "},"®":{"ha":778,"x_min":39,"x_max":739,"o":"m 389 83 q 202 135 281 83 q 81 282 123 186 q 39 509 39 378 q 81 735 39 640 q 202 882 123 831 q 389 933 281 933 q 575 882 496 933 q 697 735 654 831 q 739 509 739 640 q 697 282 739 378 q 575 135 654 186 q 389 83 496 83 m 389 158 q 533 200 473 158 q 626 320 594 241 q 659 509 659 399 q 626 697 659 618 q 533 817 594 776 q 389 859 473 859 q 244 817 304 859 q 152 697 184 776 q 119 509 119 618 q 152 320 119 399 q 244 200 184 241 q 389 158 304 158 m 249 724 l 395 724 q 547 596 547 724 q 460 476 547 500 l 557 293 l 464 293 l 375 468 l 332 468 l 332 293 l 249 293 l 249 724 m 393 539 q 445 553 429 539 q 461 596 461 567 q 445 639 461 625 q 393 653 429 653 l 332 653 l 332 539 l 393 539 z "},"℗":{"ha":778,"x_min":39,"x_max":739,"o":"m 389 83 q 202 135 281 83 q 81 282 123 186 q 39 509 39 378 q 81 735 39 640 q 202 882 123 831 q 389 933 281 933 q 575 882 496 933 q 697 735 654 831 q 739 509 739 640 q 697 282 739 378 q 575 135 654 186 q 389 83 496 83 m 389 158 q 533 200 473 158 q 626 320 594 241 q 659 509 659 399 q 626 697 659 618 q 533 817 594 776 q 389 859 473 859 q 244 817 304 859 q 152 697 184 776 q 119 509 119 618 q 152 320 119 399 q 244 200 184 241 q 389 158 304 158 m 250 718 l 407 718 q 521 685 482 718 q 559 587 559 652 q 521 490 559 523 q 407 457 482 457 l 334 457 l 334 288 l 250 288 l 250 718 m 406 528 q 457 543 440 528 q 473 587 473 557 q 457 632 473 618 q 406 647 440 647 l 334 647 l 334 528 l 406 528 z "},"™":{"ha":778,"x_min":0,"x_max":699,"o":"m 111 851 l 0 851 l 0 917 l 294 917 l 294 851 l 183 851 l 183 510 l 111 510 l 111 851 m 359 917 l 461 917 l 526 726 l 532 726 l 597 917 l 699 917 l 699 510 l 627 510 l 627 832 l 621 832 l 543 607 l 513 607 l 435 832 l 429 832 l 429 510 l 359 510 l 359 917 z "},"°":{"ha":778,"x_min":168,"x_max":610,"o":"m 389 497 q 276 526 326 497 q 197 604 226 554 q 168 715 168 654 q 197 827 168 777 q 276 905 226 876 q 389 933 326 933 q 502 905 451 933 q 581 827 552 876 q 610 715 610 777 q 581 604 610 654 q 502 526 552 554 q 389 497 451 497 m 389 590 q 450 606 423 590 q 492 651 477 623 q 507 715 507 680 q 492 779 507 751 q 450 824 477 808 q 389 840 423 840 q 328 824 355 840 q 286 779 300 808 q 271 715 271 751 q 286 651 271 680 q 328 606 300 623 q 389 590 355 590 z "},"|":{"ha":778,"x_min":342,"x_max":436,"o":"m 342 1035 l 436 1035 l 436 -354 l 342 -354 l 342 1035 z "},"¦":{"ha":778,"x_min":342,"x_max":436,"o":"m 342 1035 l 436 1035 l 436 482 l 342 482 l 342 1035 m 342 199 l 436 199 l 436 -354 l 342 -354 l 342 199 z "},"†":{"ha":778,"x_min":114,"x_max":664,"o":"m 343 597 l 114 585 l 114 692 l 343 679 l 334 917 l 444 917 l 435 679 l 664 692 l 664 585 l 435 597 l 444 -167 l 334 -167 l 343 597 z "},"ℓ":{"ha":778,"x_min":77,"x_max":663,"o":"m 429 -17 q 258 43 318 -17 q 197 215 197 104 l 197 236 q 115 195 144 208 l 77 281 q 197 343 141 311 l 197 753 q 254 938 197 873 q 416 1003 311 1003 q 534 976 484 1003 q 610 896 583 948 q 636 771 636 844 q 552 524 636 644 q 306 300 469 405 l 306 229 q 431 83 306 83 q 557 229 557 83 l 557 279 l 663 279 l 663 215 q 602 43 663 104 q 429 -17 542 -17 m 306 415 q 475 588 418 498 q 533 766 533 677 q 503 867 533 832 q 421 903 473 903 q 335 859 364 903 q 306 730 306 814 l 306 415 z "},"‡":{"ha":778,"x_min":114,"x_max":664,"o":"m 343 71 l 114 58 l 114 165 l 343 153 l 334 375 l 343 597 l 114 585 l 114 692 l 343 679 l 334 917 l 444 917 l 435 679 l 664 692 l 664 585 l 435 597 l 444 375 l 435 153 l 664 165 l 664 58 l 435 71 l 444 -167 l 334 -167 l 343 71 z "},"℮":{"ha":778,"x_min":43,"x_max":753,"o":"m 401 -17 q 212 40 293 -17 q 86 193 130 96 q 43 408 43 290 q 86 623 43 526 q 210 777 130 720 q 399 833 291 833 q 586 777 505 833 q 709 624 666 721 q 753 408 753 527 l 753 385 l 184 385 q 180 382 182 385 q 178 376 178 380 l 178 184 q 183 158 178 168 q 231 98 198 127 q 309 52 264 70 q 404 33 354 33 q 493 49 451 33 q 565 92 534 65 q 608 150 595 119 l 692 150 q 629 62 672 100 q 526 3 585 24 q 401 -17 467 -17 m 610 435 q 618 443 618 435 l 618 632 q 612 659 618 645 q 574 710 604 680 q 498 762 544 740 q 397 783 452 783 q 305 765 349 783 q 230 718 262 747 q 183 659 199 689 q 178 632 178 650 l 178 443 q 186 435 178 435 l 610 435 z "},"№":{"ha":778,"x_min":68,"x_max":711,"o":"m 581 525 q 481 573 512 525 q 450 729 450 622 q 481 885 450 836 q 581 933 512 933 q 680 885 649 933 q 711 729 711 836 q 680 573 711 622 q 581 525 649 525 m 68 917 l 153 917 l 261 371 l 267 371 l 267 917 l 342 917 l 342 0 l 275 0 l 149 637 l 143 637 l 143 0 l 68 0 l 68 917 m 581 589 q 612 602 601 589 q 629 645 624 614 q 633 729 633 675 q 629 813 633 783 q 612 857 624 844 q 581 869 601 869 q 549 857 560 869 q 532 813 537 844 q 528 729 528 783 q 532 645 528 675 q 549 602 537 614 q 581 589 560 589 m 457 424 l 703 424 l 703 335 l 457 335 l 457 424 z "},"^":{"ha":778,"x_min":81,"x_max":697,"o":"m 343 889 l 435 889 l 697 431 l 582 431 l 392 765 l 386 765 l 196 431 l 81 431 l 343 889 z "},"℠":{"ha":778,"x_min":32,"x_max":714,"o":"m 170 503 q 70 532 106 503 q 32 616 34 562 l 104 616 q 123 576 106 591 q 171 562 140 562 q 217 577 200 562 q 233 616 233 591 q 220 650 233 636 q 179 673 208 663 l 139 689 q 63 736 87 709 q 40 806 40 764 q 74 892 40 861 q 167 924 109 924 q 256 896 222 924 q 293 817 289 867 l 221 817 q 205 851 219 839 q 167 864 191 864 q 127 850 141 864 q 113 810 113 836 q 125 775 113 789 q 167 751 138 762 l 207 736 q 282 689 259 717 q 306 619 306 661 q 270 534 306 565 q 170 503 233 503 m 375 917 l 476 917 l 542 726 l 547 726 l 612 917 l 714 917 l 714 510 l 642 510 l 642 832 l 636 832 l 558 607 l 528 607 l 450 832 l 444 832 l 444 510 l 375 510 l 375 917 z "},"̈":{"ha":0,"x_min":-612,"x_max":-163,"o":"m -526 822 q -588 847 -563 822 q -612 908 -612 872 q -588 969 -612 945 q -526 994 -563 994 q -465 969 -490 994 q -440 908 -440 945 q -465 847 -440 872 q -526 822 -490 822 m -249 822 q -310 847 -285 822 q -335 908 -335 872 q -310 969 -335 945 q -249 994 -285 994 q -188 969 -212 994 q -163 908 -163 945 q -188 847 -163 872 q -249 822 -212 822 z "},"̇":{"ha":0,"x_min":-484,"x_max":-294,"o":"m -389 814 q -456 841 -429 814 q -484 908 -484 868 q -456 976 -484 949 q -389 1003 -429 1003 q -321 976 -349 1003 q -294 908 -294 949 q -321 841 -294 868 q -389 814 -349 814 z "},"̀":{"ha":0,"x_min":-592,"x_max":-292,"o":"m -592 1034 l -454 1034 l -292 814 l -400 814 l -592 1034 z "},"́":{"ha":0,"x_min":-486,"x_max":-186,"o":"m -323 1034 l -186 1034 l -378 814 l -486 814 l -323 1034 z "},"̋":{"ha":0,"x_min":-583,"x_max":-87,"o":"m -456 1034 l -331 1034 l -484 814 l -583 814 l -456 1034 m -212 1034 l -87 1034 l -240 814 l -340 814 l -212 1034 z "},"̂":{"ha":0,"x_min":-618,"x_max":-160,"o":"m -444 1034 l -334 1034 l -160 814 l -268 814 l -389 956 l -510 814 l -618 814 l -444 1034 z "},"̌":{"ha":0,"x_min":-618,"x_max":-160,"o":"m -618 1034 l -510 1034 l -389 892 l -268 1034 l -160 1034 l -334 814 l -444 814 l -618 1034 z "},"̆":{"ha":0,"x_min":-596,"x_max":-182,"o":"m -389 814 q -534 868 -481 814 q -596 1021 -587 922 l -507 1021 q -471 937 -500 965 q -389 909 -442 909 q -307 937 -336 909 q -271 1021 -278 965 l -182 1021 q -244 868 -191 922 q -389 814 -297 814 z "},"̊":{"ha":0,"x_min":-541,"x_max":-237,"o":"m -389 806 q -467 825 -432 806 q -521 878 -501 844 q -541 953 -541 911 q -521 1028 -541 994 q -467 1081 -501 1061 q -389 1100 -432 1100 q -312 1081 -347 1100 q -257 1028 -277 1061 q -237 953 -237 994 q -257 878 -237 911 q -312 825 -277 844 q -389 806 -347 806 m -389 884 q -341 903 -360 884 q -322 953 -322 923 q -341 1002 -322 983 q -389 1022 -360 1022 q -437 1002 -418 1022 q -456 953 -456 983 q -437 903 -456 923 q -389 884 -418 884 z "},"̃":{"ha":0,"x_min":-611,"x_max":-164,"o":"m -611 814 q -575 959 -608 907 q -477 1010 -542 1010 q -426 999 -449 1010 q -366 961 -403 989 q -323 933 -336 939 q -298 926 -311 926 q -262 948 -275 926 q -248 1022 -250 970 l -164 1022 q -200 878 -168 928 q -297 827 -233 827 q -349 837 -326 827 q -410 875 -372 848 q -452 903 -439 897 q -477 909 -464 909 q -513 888 -500 909 q -528 814 -525 867 l -611 814 z "},"̄":{"ha":0,"x_min":-585,"x_max":-193,"o":"m -585 951 l -193 951 l -193 865 l -585 865 l -585 951 z "},"̒":{"ha":0,"x_min":-479,"x_max":-303,"o":"m -389 814 q -455 843 -431 814 q -479 921 -479 872 q -461 1003 -479 964 q -407 1070 -442 1042 q -323 1112 -372 1099 l -306 1060 q -375 1025 -353 1044 q -403 970 -397 1006 q -376 975 -392 975 q -325 955 -347 975 q -303 899 -303 934 q -327 838 -303 862 q -389 814 -351 814 z "},"̦":{"ha":0,"x_min":-475,"x_max":-298,"o":"m -472 -342 q -403 -308 -425 -326 q -375 -256 -381 -289 q -401 -261 -386 -261 q -453 -240 -431 -261 q -475 -184 -475 -219 q -451 -124 -475 -148 q -389 -100 -427 -100 q -323 -129 -348 -100 q -298 -207 -298 -158 q -317 -285 -298 -248 q -371 -351 -336 -323 q -454 -392 -406 -379 l -472 -342 z "},"̧":{"ha":0,"x_min":-542,"x_max":-239,"o":"m -403 -322 q -481 -314 -444 -322 q -542 -293 -518 -307 l -519 -229 q -473 -247 -500 -241 q -418 -253 -446 -253 q -360 -241 -380 -253 q -339 -205 -339 -229 q -357 -173 -339 -183 q -414 -163 -375 -163 l -471 -163 l -412 0 l -338 0 l -376 -110 q -275 -135 -311 -110 q -239 -208 -239 -159 q -281 -292 -239 -262 q -403 -322 -323 -322 z "},"̨":{"ha":0,"x_min":-486,"x_max":-256,"o":"m -332 -322 q -445 -285 -403 -322 q -486 -184 -486 -248 q -447 -69 -486 -125 q -325 43 -408 -14 l -294 1 q -389 -154 -389 -79 q -368 -209 -389 -191 q -313 -228 -347 -228 q -256 -212 -279 -228 l -256 -306 q -290 -318 -272 -314 q -332 -322 -308 -322 z "},"̵":{"ha":0,"x_min":-597,"x_max":-180,"o":"m -597 503 l -180 503 l -180 414 l -597 414 l -597 503 z "},"̶":{"ha":0,"x_min":-750,"x_max":-28,"o":"m -750 503 l -28 503 l -28 414 l -750 414 l -750 503 z "},"̷":{"ha":0,"x_min":-690,"x_max":-87,"o":"m -690 353 l -87 746 l -87 633 l -690 240 l -690 353 z "},"̸":{"ha":0,"x_min":-711,"x_max":-66,"o":"m -711 29 l -136 708 l -66 648 l -642 -31 l -711 29 z "},"ʼ":{"ha":778,"x_min":302,"x_max":479,"o":"m 306 827 q 374 854 352 836 q 403 908 397 871 q 376 904 391 904 q 324 923 346 904 q 302 974 302 942 q 326 1028 302 1006 q 389 1050 350 1050 q 455 1024 431 1050 q 479 953 479 998 q 461 875 479 911 q 407 813 442 839 q 323 779 372 788 l 306 827 z "},"ˉ":{"ha":778,"x_min":193,"x_max":585,"o":"m 193 951 l 585 951 l 585 865 l 193 865 l 193 951 z "},"´":{"ha":778,"x_min":292,"x_max":591,"o":"m 454 1034 l 591 1034 l 400 814 l 292 814 l 454 1034 z "},"˘":{"ha":778,"x_min":182,"x_max":596,"o":"m 389 814 q 244 868 297 814 q 182 1021 191 922 l 271 1021 q 307 937 278 965 q 389 909 336 909 q 471 937 442 909 q 507 1021 500 965 l 596 1021 q 534 868 587 922 q 389 814 481 814 z "},"ˇ":{"ha":778,"x_min":160,"x_max":618,"o":"m 160 1034 l 268 1034 l 389 892 l 510 1034 l 618 1034 l 444 814 l 334 814 l 160 1034 z "},"¸":{"ha":778,"x_min":236,"x_max":539,"o":"m 375 -322 q 297 -314 334 -322 q 236 -293 260 -307 l 258 -229 q 304 -247 277 -241 q 359 -253 332 -253 q 418 -241 397 -253 q 439 -205 439 -229 q 421 -173 439 -183 q 364 -163 403 -163 l 307 -163 l 366 0 l 440 0 l 401 -110 q 503 -135 467 -110 q 539 -208 539 -159 q 497 -292 539 -262 q 375 -322 454 -322 z "},"ˆ":{"ha":778,"x_min":160,"x_max":618,"o":"m 334 1034 l 444 1034 l 618 814 l 510 814 l 389 956 l 268 814 l 160 814 l 334 1034 z "},"¨":{"ha":778,"x_min":165,"x_max":615,"o":"m 252 822 q 190 847 215 822 q 165 908 165 872 q 190 969 165 945 q 252 994 215 994 q 313 969 288 994 q 338 908 338 945 q 313 847 338 872 q 252 822 288 822 m 529 822 q 468 847 493 822 q 443 908 443 872 q 468 969 443 945 q 529 994 493 994 q 590 969 566 994 q 615 908 615 945 q 590 847 615 872 q 529 822 566 822 z "},"˙":{"ha":778,"x_min":294,"x_max":484,"o":"m 389 814 q 321 841 349 814 q 294 908 294 868 q 321 976 294 949 q 389 1003 349 1003 q 456 976 429 1003 q 484 908 484 949 q 456 841 484 868 q 389 814 429 814 z "},"`":{"ha":778,"x_min":186,"x_max":486,"o":"m 186 1034 l 323 1034 l 486 814 l 378 814 l 186 1034 z "},"˝":{"ha":778,"x_min":195,"x_max":690,"o":"m 322 1034 l 447 1034 l 294 814 l 195 814 l 322 1034 m 566 1034 l 690 1034 l 538 814 l 437 814 l 566 1034 z "},"¯":{"ha":778,"x_min":193,"x_max":585,"o":"m 193 951 l 585 951 l 585 865 l 193 865 l 193 951 z "},"˛":{"ha":778,"x_min":292,"x_max":522,"o":"m 446 -322 q 333 -285 375 -322 q 292 -184 292 -248 q 331 -69 292 -125 q 453 43 370 -14 l 484 1 q 389 -154 389 -79 q 410 -209 389 -191 q 465 -228 431 -228 q 522 -212 499 -228 l 522 -306 q 488 -318 506 -314 q 446 -322 470 -322 z "},"˚":{"ha":778,"x_min":237,"x_max":541,"o":"m 389 806 q 311 825 346 806 q 257 878 277 844 q 237 953 237 911 q 257 1028 237 994 q 311 1081 277 1061 q 389 1100 346 1100 q 466 1081 431 1100 q 520 1028 500 1061 q 541 953 541 994 q 520 878 541 911 q 466 825 500 844 q 389 806 431 806 m 389 884 q 437 903 418 884 q 456 953 456 923 q 437 1002 456 983 q 389 1022 418 1022 q 341 1002 359 1022 q 322 953 322 983 q 341 903 322 923 q 389 884 359 884 z "},"˜":{"ha":778,"x_min":167,"x_max":614,"o":"m 167 814 q 203 959 170 907 q 301 1010 236 1010 q 352 999 329 1010 q 412 961 375 989 q 454 933 442 939 q 479 926 467 926 q 515 948 503 926 q 530 1022 528 970 l 614 1022 q 577 878 610 928 q 481 827 545 827 q 429 837 452 827 q 368 875 406 848 q 326 903 338 897 q 301 909 314 909 q 265 888 277 909 q 250 814 253 867 l 167 814 z "}}}
